<?xml version="1.0" encoding="UTF-8" standalone="no"?>
<svg
   xmlns:dc="http://purl.org/dc/elements/1.1/"
   xmlns:cc="http://creativecommons.org/ns#"
   xmlns:rdf="http://www.w3.org/1999/02/22-rdf-syntax-ns#"
   xmlns:svg="http://www.w3.org/2000/svg"
   xmlns="http://www.w3.org/2000/svg"
   xmlns:sodipodi="http://sodipodi.sourceforge.net/DTD/sodipodi-0.dtd"
   xmlns:inkscape="http://www.inkscape.org/namespaces/inkscape"
   width="233"
   height="430"
   viewBox="0 0 233 430"
   version="1.1"
   id="svg271"
   sodipodi:docname="bgda.svg"
   inkscape:version="0.92.3 (2405546, 2018-03-11)">
  <metadata
     id="metadata275">
    <rdf:RDF>
      <cc:Work
         rdf:about="">
        <dc:format>image/svg+xml</dc:format>
        <dc:type
           rdf:resource="http://purl.org/dc/dcmitype/StillImage" />
        <dc:title>notitle</dc:title>
      </cc:Work>
    </rdf:RDF>
  </metadata>
  <sodipodi:namedview
     pagecolor="#ffffff"
     bordercolor="#666666"
     borderopacity="1"
     objecttolerance="10"
     gridtolerance="10"
     guidetolerance="10"
     inkscape:pageopacity="0"
     inkscape:pageshadow="2"
     inkscape:window-width="1920"
     inkscape:window-height="1001"
     id="namedview273"
     showgrid="false"
     fit-margin-top="0"
     fit-margin-left="0"
     fit-margin-right="0"
     fit-margin-bottom="0"
     inkscape:zoom="0.99267935"
     inkscape:cx="-81.032018"
     inkscape:cy="343.05874"
     inkscape:window-x="-9"
     inkscape:window-y="-9"
     inkscape:window-maximized="1"
     inkscape:current-layer="events" />
  <!-- Generator: Sketch 51.1 (57501) - http://www.bohemiancoding.com/sketch -->
  <title
     id="title2">notitle</title>
  <desc
     id="desc4">Created with Sketch.</desc>
  <defs
     id="defs8">
    <polygon
       id="path-1"
       points="0.013039394,8.9519393 0.013039394,0.99444444 34.715238,0.99444444 34.715238,8.9519393 " />
    <polygon
       id="path-3"
       points="0.047511614,227 0.047511614,0.19205278 53.940546,0.19205278 53.940546,227 " />
  </defs>
  <g
     id="Page-1"
     style="fill:none;fill-rule:evenodd;stroke:none;stroke-width:1"
     transform="translate(-255,-190)">
    <g
       id="events"
       transform="translate(0,-140)">
      <path
         style="fill:#dddddd"
         inkscape:connector-curvature="0"
         id="Fill-103"
         d="m 282.00075,487.30021 c 2.09834,35.10333 3.39584,70.2155 3.42908,105.39834 0,0.40193 0.57118,0.40193 0.57017,0 -0.0332,-35.18284 -1.33174,-70.29501 -3.43009,-105.39834 -0.0232,-0.39862 -0.59334,-0.40194 -0.56916,0" />
      <path
         style="fill:#dddddd"
         inkscape:connector-curvature="0"
         id="Fill-107"
         d="m 286.00255,466.30275 c 0.79737,6.79592 1.54899,13.59746 2.34865,20.3945 0.0469,0.40141 0.69327,0.40591 0.64637,0 -0.79852,-6.79704 -1.55014,-13.59858 -2.34866,-20.3945 -0.048,-0.40141 -0.69441,-0.40591 -0.64636,0" />
      <path
         style="fill:#dddddd"
         inkscape:connector-curvature="0"
         id="Fill-109"
         d="m 286.30989,465.67247 c 4.12854,0.046 8.25594,0.089 12.38106,-0.106 0.41093,-0.02 0.4132,-0.585 0,-0.566 -4.12512,0.195 -8.25252,0.152 -12.38106,0.107 -0.41319,-0.005 -0.41319,0.561 0,0.565" />
      <path
         style="fill:#dddddd"
         inkscape:connector-curvature="0"
         id="Fill-111"
         d="m 298.55014,465.29993 c -0.19179,6.80014 -0.35812,13.60028 -0.54991,20.39931 -0.0119,0.40156 0.43849,0.40046 0.44963,0 0.19179,-6.79903 0.35812,-13.59917 0.54991,-20.39931 0.0119,-0.40046 -0.4377,-0.39936 -0.44963,0" />
      <path
         style="fill:#dddddd"
         inkscape:connector-curvature="0"
         id="Fill-113"
         d="m 281.00076,451.31022 c 0.36686,5.91865 1.59751,13.19857 7.6218,15.66553 0.37575,0.15404 0.53917,-0.47012 0.16786,-0.62188 -5.7308,-2.34714 -6.81693,-9.49699 -7.16155,-15.04365 -0.0245,-0.41192 -0.65368,-0.41534 -0.62811,0" />
      <path
         style="fill:#dddddd"
         inkscape:connector-curvature="0"
         id="Fill-115"
         d="m 282.01551,450.38892 c 1.82739,5.85268 7.40011,9.59518 9.3343,15.39204 0.12771,0.38519 0.76277,0.21995 0.63274,-0.16748 -1.93536,-5.80355 -7.50924,-9.5494 -9.3343,-15.39203 -0.1219,-0.38854 -0.75464,-0.2233 -0.63274,0.16747" />
      <path
         style="fill:#dddddd"
         inkscape:connector-curvature="0"
         id="Fill-117"
         d="m 291.73702,465.7732 c 1.65555,-6.17777 1.68349,-12.35777 0.0838,-18.54559 -0.10248,-0.39814 -0.82778,-0.23038 -0.72397,0.16775 1.57437,6.1006 1.54642,12.12067 -0.0865,18.21008 -0.10513,0.39702 0.62017,0.56477 0.72664,0.16776" />
      <path
         style="fill:#dddddd"
         inkscape:connector-curvature="0"
         id="Fill-119"
         d="m 291.05756,447.46517 c 3.83089,5.44002 6.82297,11.51138 4.41314,18.14767 -0.14175,0.38712 0.4979,0.55368 0.63848,0.1688 2.46021,-6.77358 -0.54827,-13.05425 -4.47992,-18.63832 -0.23782,-0.33649 -0.81187,-0.0191 -0.5717,0.32185" />
      <path
         style="fill:#dddddd"
         inkscape:connector-curvature="0"
         id="Fill-121"
         d="m 295.5962,464.86229 c 1.95643,-2.8394 4.3897,-5.2838 7.26752,-7.28646 0.32421,-0.22617 0.01,-0.74754 -0.31865,-0.51924 -2.96583,2.06637 -5.47709,4.57553 -7.49257,7.50201 -0.22282,0.32493 0.32199,0.62543 0.5437,0.30369" />
      <path
         style="fill:#dddddd"
         inkscape:connector-curvature="0"
         id="Fill-123"
         d="m 302.38899,457.28266 c -0.36072,2.92248 -2.32908,5.98792 -5.18686,7.12117 -0.3575,0.14192 -0.20136,0.71801 0.16151,0.57294 3.14314,-1.24574 5.2364,-4.47518 5.63374,-7.69411 0.0474,-0.37845 -0.56209,-0.3753 -0.60839,0" />
      <path
         style="fill:#dddddd"
         inkscape:connector-curvature="0"
         id="Fill-131"
         d="m 296.3112,508.566 h 10.37718 c 0.4155,0 0.4155,-0.566 0,-0.566 H 296.3112 c -0.41436,0 -0.4155,0.566 0,0.566" />
      <path
         style="fill:#dddddd"
         inkscape:connector-curvature="0"
         id="Fill-133"
         d="m 298.3081,557.566 h 14.38295 c 0.41137,0 0.4125,-0.566 0,-0.566 H 298.3081 c -0.41023,0 -0.41136,0.566 0,0.566" />
      <path
         style="fill:#dddddd"
         inkscape:connector-curvature="0"
         id="Fill-135"
         d="m 301.31426,589.565 h 8.37105 c 0.41901,0 0.42016,-0.565 0,-0.565 h -8.37105 c -0.41901,0 -0.41901,0.565 0,0.565" />
      <path
         style="fill:#070707"
         inkscape:connector-curvature="0"
         id="Fill-208"
         d="M 372.1906,431 379,416.65036 l -8.47311,-4.02073 c -3.24462,-1.54006 -7.12514,-0.15787 -8.6641,3.08786 l -1.23316,2.59658 c -1.54006,3.24572 -0.15787,7.12514 3.08786,8.6652 z" />
      <path
         style="fill:#ffffff"
         inkscape:connector-curvature="0"
         id="Fill-210"
         d="m 365.51837,426 c -2.36406,-1.7691 -3.70507,-4.83499 -3.49731,-8 l 0.86043,0.07 c -0.18468,2.82332 1.00942,5.55685 3.11851,7.13353 z" />
      <path
         style="fill:#fcb69d"
         inkscape:connector-curvature="0"
         id="Fill-212"
         d="m 399.89436,436.03561 c 0,0 0.94716,8.76974 -2.83072,8.95953 -3.77681,0.18979 -11.5136,-5.24385 -11.5136,-5.24385 0,0 -0.94609,-6.23777 -0.35667,-7.26789 0.5905,-1.03012 8.09346,-0.25781 8.26156,0.85788 0.16918,1.11679 -3.05161,2.23467 -3.05161,2.23467 z" />
      <path
         style="fill:#ff9900;fill-opacity:1"
         inkscape:connector-curvature="0"
         id="Fill-214"
         d="m 336.10883,423 c 2.52559,0 4.85503,1.36245 6.08402,3.5618 l 30.74818,49.34746 c 0,0 4.76305,-9.29316 9.5394,-26.20787 L 400,461.16409 c -1.26668,11.50244 -4.63229,27.29319 -13.18206,42.85538 -4.36632,7.94616 -15.24554,9.37155 -21.62214,2.91481 L 334.39665,475.74475 320,423 Z" />
      <path
         style="fill:#ffc3a9"
         inkscape:connector-curvature="0"
         id="Fill-216"
         d="m 325.99256,744.76462 c -0.5723,-0.16452 -1.17839,-0.31769 -1.80927,-0.47086 -4.94226,-1.19359 -7.73053,-6.48535 -5.9866,-11.29376 h -15.34613 c -0.19039,2.78997 -0.36952,5.62419 -0.52273,8.55144 L 302,745.8232 c 0.74804,0.71366 1.66282,1.48745 2.55055,1.95377 1.97263,1.03589 17.42241,2.13531 19.94367,0 1.22346,-1.03702 1.56255,-2.08539 1.49834,-3.01235" />
      <path
         style="fill:#182646"
         inkscape:connector-curvature="0"
         id="Fill-218"
         d="M 335.62481,747.02434 C 331.9712,745.48995 326.11161,744 326.11161,744 c -3.46653,2.69418 -7.85954,4.06667 -12.33385,3.891 -4.08902,-0.16084 -7.9453,-0.62751 -8.86065,-1.08148 -0.87749,-0.43492 -1.7817,-1.15661 -2.52111,-1.82222 l -0.38641,4.74815 C 301.86705,751.4963 303.33139,753 305.18994,753 h 23.91494 c 10.72809,-0.0804 10.17354,-4.44127 6.51993,-5.97566" />
      <path
         style="fill:#ffc3a9"
         inkscape:connector-curvature="0"
         id="Fill-220"
         d="m 298.99256,750.76484 c -0.5723,-0.16452 -1.17839,-0.31769 -1.80927,-0.47086 -4.94339,-1.19362 -7.73053,-6.48547 -5.9866,-11.29398 h -15.34613 c -0.19039,2.79002 -0.36952,5.62316 -0.52273,8.55161 L 275,751.82344 c 0.74804,0.71367 1.66169,1.48748 2.54943,1.95268 1.97375,1.03704 17.4224,2.13648 19.94479,0 1.22346,-1.03591 1.56255,-2.08543 1.49834,-3.01128" />
      <path
         style="fill:#182646"
         inkscape:connector-curvature="0"
         id="Fill-222"
         d="M 308.62481,754.02434 C 304.9712,752.48995 299.11161,751 299.11161,751 c -3.46653,2.69418 -7.85954,4.06667 -12.33385,3.891 -4.08902,-0.16084 -7.9453,-0.62751 -8.86065,-1.08253 -0.87749,-0.43387 -1.7817,-1.15556 -2.52111,-1.82117 l -0.38641,4.74815 C 274.86705,758.4963 276.33139,760 278.18994,760 h 23.91494 c 10.72809,-0.0815 10.17354,-4.44127 6.51993,-5.97566" />
      <path
         style="fill:#ff9900;fill-opacity:1"
         inkscape:connector-curvature="0"
         id="Fill-224"
         d="m 281.42469,423 h 48.78839 c 2.88963,0 5.47469,1.81098 6.47968,4.54075 L 347,455.51116 l -10.13791,24.8472 -2.9567,32.62643 L 269.08107,514 268.00241,436.78516 C 267.86166,429.21318 273.91142,423 281.42469,423" />
      <path
         style="fill:#182646"
         inkscape:connector-curvature="0"
         id="Fill-226"
         d="m 327.40799,423 0.58559,9.29268 c 0.16309,2.67967 -2.81629,4.31293 -4.88719,2.67742 l -5.83835,-4.61143 c -1.95925,-1.54652 -4.62012,-1.7549 -6.78405,-0.53052 l -11.97771,6.77971 C 296.47917,437.75565 294,436.24629 294,433.86511 V 423" />
      <path
         style="fill:#182646"
         inkscape:connector-curvature="0"
         id="Fill-228"
         d="m 303.06216,718.00462 5.26609,-148.84863 6.38604,46.68214 z M 269,514.01521 274.46981,748 h 25.6785 l 2.01084,-4.11517 h 20.42012 L 349,621.51823 333.92195,513 Z" />
      <path
         style="fill:#ffc3a9"
         inkscape:connector-curvature="0"
         id="Fill-230"
         d="m 286.81359,550 10.17194,5.03884 c 0,0 0.57085,2.78418 -5.45858,2.02153 -2.4633,-0.31083 2.86201,11.67292 3.75271,12.89517 0.88958,1.22335 -0.7119,3.4658 -3.86377,-0.23979 0,0 1.10616,3.64897 -0.24766,4.04195 -1.14724,0.33415 -4.12364,-3.77885 -4.12364,-3.77885 0,0 1.10504,4.50931 -0.53198,3.97756 -1.63701,-0.53174 -3.17963,-3.49022 -3.17963,-3.49022 0,0 0.27432,4.23622 -2.19343,2.37566 -2.4844,-1.87166 -6.38592,-11.89161 -8.13955,-19.67912" />
      <path
         style="fill:#ff9900;fill-opacity:1"
         inkscape:connector-curvature="0"
         id="Fill-232"
         d="M 267.21082,434.50907 C 268.36967,427.86054 274.23451,423 281.09794,423 h 1.91423 L 290,445.85178 277.67183,496.74969 289.29393,536.3798 268.96702,544 255.5551,498.92217 c -0.62874,-2.10858 -0.72513,-4.33724 -0.28019,-6.49099 z" />
      <polygon
         style="fill:#9654de;fill-opacity:1"
         points="299,409.72221 280.08821,420 276,405.69138 295.69923,398 "
         id="Fill-234"
         transform="translate(-8,139)" />
      <polygon
         style="fill:#000000"
         points="353.99596,316.59706 348.58459,302.31868 349.46128,302 355,316.61489 346.86532,336 346,335.65235 "
         id="Fill-236"
         transform="translate(-8,139)" />
      <path
         style="fill:#9654de"
         inkscape:connector-curvature="0"
         id="Fill-238"
         d="m 399.95205,445.75327 c 0.0941,2.66894 0.12688,8.11761 -0.66063,15.24673 L 382,449.72246 c 0.92971,-3.28159 1.85722,-6.87059 2.75302,-10.72246 z" />
      <polygon
         style="fill:#182646"
         points="414,299.49131 393.73926,285 390,292.40672 412.12927,304 "
         id="Fill-240"
         transform="translate(-8,139)" />
      <path
         style="fill:#ffc3a9"
         inkscape:connector-curvature="0"
         id="Fill-242"
         d="m 387.80669,427.04654 c 1.19611,-1.85942 3.89867,-2.56573 6.37483,-1.64301 3.7297,1.38891 9.4253,4.28625 8.76595,8.86752 -1.03597,7.19329 -4.51827,8.49822 -5.02852,7.37309 -0.51136,-1.1262 -0.71457,-2.8758 -0.71457,-2.8758 0,0 -2.02665,1.54288 -3.08029,1.27155 -1.05253,-0.2724 -1.04922,-3.23111 -1.04922,-3.23111 0,0 -1.65114,1.15528 -2.80638,0.84735 -1.15525,-0.30686 -1.23587,-2.97056 -1.23587,-2.97056 0,0 -0.89239,1.86481 -2.36571,1.16281 -1.0691,-0.50926 -0.96528,-5.52982 1.13978,-8.80184" />
      <polygon
         style="fill:#aa0000;fill-opacity:1"
         points="388.91998,299 396,284.08002 381.08002,277 374,291.91998 "
         id="Fill-244"
         transform="translate(-8,139)" />
      <polygon
         style="fill:#ff0000;fill-opacity:1"
         points="390.91998,294 398,279.08002 383.08002,272 376,286.91998 "
         id="Fill-246"
         transform="translate(-8,139)" />
      <polygon
         style="fill:#ffffff"
         points="390.61993,293 378,286.85775 378.38007,286 391,292.1411 "
         id="Fill-248"
         transform="translate(-8,139)" />
      <path
         style="fill:#fcb69d"
         inkscape:connector-curvature="0"
         id="Fill-250"
         d="M 390.03344,435 389,434.83125 c 0.3361,-1.92182 1.49986,-3.60715 2.54587,-4.79066 0.42184,-0.0377 0.91112,-0.05 1.45413,-0.0333 -1.05973,1.05472 -2.60189,2.89659 -2.96656,4.99271" />
      <path
         style="fill:#fcb69d"
         inkscape:connector-curvature="0"
         id="Fill-252"
         d="M 393,437.29681 393.77819,438 c 1.52624,-1.89011 2.0454,-4.49638 2.22181,-6.20243 -0.31485,-0.27372 -0.63751,-0.54037 -0.96465,-0.79757 -0.0904,1.45946 -0.47115,4.35951 -2.03535,6.29681" />
      <path
         style="fill:#fcb69d"
         inkscape:connector-curvature="0"
         id="Fill-254"
         d="M 398,438.34161 398.79673,439 c 1.46125,-1.68823 2.0038,-3.97146 2.20327,-5.57405 -0.34308,-0.16793 -0.67819,-0.30917 -1.00418,-0.42595 -0.15502,1.47359 -0.61778,3.74903 -1.99582,5.34161" />
      <polygon
         style="fill:#000000"
         points="311.94226,579 311,578.96795 317.05774,413 318,413.03205 "
         id="Fill-256"
         transform="translate(-8,139)" />
      <path
         style="fill:#ffffff"
         inkscape:connector-curvature="0"
         id="Fill-258"
         d="M 343.0533,625 343,624.05269 c 2.65386,-0.13154 2.97614,-1.97423 2.98977,-2.05269 L 347,622.12923 c -0.13387,0.93231 -1.1317,2.73231 -3.9467,2.87077" />
      <path
         style="fill:#ffffff"
         inkscape:connector-curvature="0"
         id="Fill-260"
         d="M 301.05328,622 301,621.05154 c 2.65427,-0.13039 2.97646,-1.97308 2.99009,-2.05154 L 305,619.12923 c -0.13383,0.93231 -1.13135,2.73231 -3.94672,2.87077" />
      <polygon
         style="fill:#000000"
         points="312.38818,414 312,413.21384 324.61182,408 325,408.78616 "
         id="Fill-262"
         transform="translate(-8,139)" />
      <path
         style="fill:#000000"
         inkscape:connector-curvature="0"
         id="Fill-264"
         d="m 292.12338,549 c -4.40752,-15.20436 -15.0912,-51.77318 -15.0912,-51.77318 L 277,497.11203 l 0.0277,-0.117 L 289.23275,446 l 0.88883,0.21082 -12.17727,50.87803 c 0.6558,2.25057 10.79243,36.95183 15.05569,51.65949 z" />
      <path
         style="fill:#182646"
         inkscape:connector-curvature="0"
         id="Fill-266"
         d="m 333.74981,386.5899 c 0,0 3.37528,17.0066 8.25019,24.94317 0,0 -7.62497,5.85797 -20.37516,4.1572 L 315,383 Z" />
      <path
         style="fill:#ffc3a9"
         inkscape:connector-curvature="0"
         id="Fill-268"
         d="m 301.18962,424.99551 -0.18938,-34.99279 c -0.0463,-8.60565 6.69016,-15.68957 15.21032,-15.99303 8.01146,-0.28566 14.85798,5.77452 15.62434,13.82994 l 1.15062,18.22725 c 0.24775,3.92044 -2.71416,7.29289 -6.59877,7.5152 l -3.59173,0.20564 0.31161,10.82652 c 0.17948,6.2536 -4.80842,11.41454 -11.0075,11.38564 -6.0097,-0.0278 -10.87648,-4.93641 -10.90951,-11.00437" />
      <polygon
         style="fill:#070707"
         points="331,260.83816 333.84025,260.59446 333.54407,253.04874 334.66151,253 335,261.66675 331.09113,262 "
         id="Fill-270"
         transform="translate(-8,139)" />
      <path
         style="fill:#070707"
         inkscape:connector-curvature="0"
         id="Fill-272"
         d="m 324.18614,405.97723 c -3.1901,0.21394 -5.08144,-1.14835 -5.18614,-1.22605 L 319.74629,404 c 0.11918,0.0863 2.99963,2.12018 7.75693,0.15733 L 328,405.04762 c -1.41795,0.58616 -2.69554,0.85478 -3.81386,0.92961" />
      <path
         style="fill:#070707"
         inkscape:connector-curvature="0"
         id="Fill-274"
         d="m 319.99621,392.97734 0.0265,0.0199 c -0.002,-0.0133 -0.0133,-0.0218 -0.0265,-0.0199 m 0.14318,1.01282 c -0.54522,0.0768 -1.05252,-0.30442 -1.12932,-0.84971 -0.0778,-0.54528 0.30342,-1.05264 0.84865,-1.1304 0.54712,-0.0778 1.05441,0.30441 1.13121,0.8497 0.0778,0.54529 -0.30342,1.05264 -0.85054,1.13041" />
      <path
         style="fill:#070707"
         inkscape:connector-curvature="0"
         id="Fill-276"
         d="m 328.99668,392.97677 0.0256,0.0199 c -0.002,-0.0133 -0.0123,-0.0208 -0.0256,-0.0199 m 0.14409,1.01317 c -0.54602,0.0777 -1.05318,-0.30329 -1.13091,-0.85015 -0.0768,-0.54497 0.30334,-1.05203 0.84937,-1.12975 0.54697,-0.0777 1.05318,0.30424 1.13091,0.84921 0.0768,0.54686 -0.30334,1.05392 -0.84937,1.13069" />
      <polygon
         style="fill:#dd9a83"
         points="331,283 330.75414,274 324,274 "
         id="Fill-278"
         transform="translate(-8,139)" />
      <path
         style="fill:#182646"
         inkscape:connector-curvature="0"
         id="Fill-280"
         d="M 320.16113,388.43663 H 337 c 0,0 -1.49069,-23.78703 -26.37136,-20.0353 C 282.97671,372.57127 293.07428,410.62458 290,417 h 22.54952 l -3.5874,-16.06676 c 0,0 -4.35597,-0.50955 -4.09941,-4.08079 0.25545,-3.57015 4.51632,-2.8691 6.47036,-0.0638 l -0.32069,-8.35199 h 6.6473 c 1.8501,-1.80158 2.27806,-4.5111 2.27806,-4.5111 0,0 0.70554,2.02058 0.22339,4.5111" />
      <path
         style="fill:#f9d671"
         inkscape:connector-curvature="0"
         id="Fill-282"
         d="m 308.9776,399.57909 c 0.10268,0.18687 0.25567,0.34089 0.44254,0.44356 0.77315,0.422 0.77315,1.53193 0,1.95393 -0.18687,0.10267 -0.33986,0.25669 -0.44254,0.44356 -0.42302,0.77315 -1.53295,0.77315 -1.95495,0 -0.10267,-0.18687 -0.25566,-0.34089 -0.44356,-0.44356 -0.77212,-0.422 -0.77212,-1.53193 0,-1.95393 0.1879,-0.10267 0.34089,-0.25669 0.44356,-0.44356 0.422,-0.77212 1.53193,-0.77212 1.95495,0" />
      <path
         style="fill:#35c28c;fill-opacity:1"
         inkscape:connector-curvature="0"
         id="Fill-396"
         d="m 487.09776,330.00302 -120.77618,9.39905 c -0.51202,0.04 -0.93925,0.46646 -0.95467,0.9529 l -1.36648,45.91578 c -0.0154,0.48755 0.38979,0.8485 0.90181,0.80963 l 24.73332,-1.92579 c 0.40081,-0.0311 0.74766,0.18436 0.86328,0.5342 l 3.23288,9.77444 c 0.25546,0.77521 1.44137,0.6908 1.75739,-0.12439 l 4.01798,-10.36306 c 0.14094,-0.36428 0.49881,-0.62749 0.89411,-0.65859 l 85.27722,-6.63698 c 0.51312,-0.0389 0.94035,-0.46645 0.95466,-0.9529 l 1.36649,-45.91577 c 0.0154,-0.48645 -0.38869,-0.84851 -0.90181,-0.80852" />
      <path
         style="fill:#ffffff"
         inkscape:connector-curvature="0"
         id="Fill-397"
         d="m 459.14362,346.51967 -73.33375,5.47759 c -0.46068,0.0354 -0.82281,-0.27661 -0.80952,-0.69582 0.0133,-0.41921 0.39646,-0.78588 0.85603,-0.82126 l 73.33375,-5.47759 c 0.46068,-0.0343 0.82281,0.27661 0.80952,0.69582 -0.0122,0.41921 -0.39646,0.78695 -0.85603,0.82126" />
      <path
         style="fill:#ffffff"
         inkscape:connector-curvature="0"
         id="Fill-398"
         d="m 459.14362,356.51967 -73.33375,5.47759 c -0.46068,0.0354 -0.82281,-0.27661 -0.80952,-0.69582 0.0133,-0.41921 0.39646,-0.78588 0.85714,-0.82126 l 73.33375,-5.47759 c 0.45957,-0.0343 0.8217,0.27661 0.80841,0.69582 -0.0122,0.41921 -0.39535,0.78695 -0.85603,0.82126" />
      <path
         style="fill:#ffffff"
         inkscape:connector-curvature="0"
         id="Fill-399"
         d="m 435.14205,368.46016 -49.33174,3.5375 c -0.45983,0.0319 -0.82325,-0.26665 -0.80996,-0.6692 0.0133,-0.40255 0.39667,-0.75568 0.8576,-0.78863 l 49.33174,-3.53749 c 0.45983,-0.0319 0.82325,0.26665 0.80996,0.6692 -0.0122,0.40255 -0.39667,0.75568 -0.8576,0.78862" />
    </g>
  </g>
</svg>
