<svg version="1" xmlns="http://www.w3.org/2000/svg" width="3941.333" height="3941.333" viewBox="0 0 2956.000000 2956.000000"><path d="M0 1478v1478h2956V0H0v1478zM1396.3 354.7l81.7 14.7 81.8-14.8 81.8-14.8 74.3 37.1 74.2 37.2 78.7 8.4c43.3 4.6 80.6 8.7 83 9 4.1.6 8 4.1 65.1 57.3l60.8 56.7 75.9 31.4c41.7 17.2 76.6 32.1 77.5 33 .9.9 20.4 33.3 43.4 72.1l41.7 70.5 60.5 48.5c33.2 26.7 62.4 50.3 64.8 52.5l4.4 4 20.4 80 20.4 80 47.3 68 47.3 68-3 83-3 83 26.2 79.2 26.2 79.3-26.2 79.2-26.2 79.3 3 83 3 83-47.3 68-47.3 68-20.4 80-20.4 80-4.4 4c-2.4 2.2-31.6 25.8-64.8 52.5l-60.5 48.5-41.7 70.5c-23 38.8-42.5 71.2-43.4 72.1-.9.9-35.8 15.8-77.5 33l-75.9 31.4-60.8 56.7c-57.1 53.2-61 56.7-65.1 57.3-2.4.3-39.7 4.4-83 9l-78.7 8.4-74.2 37.2-74.3 37.1-81.8-14.8-81.8-14.8-81.8 14.8-81.8 14.8-74.3-37.1-74.2-37.2-78.7-8.4c-43.3-4.6-80.6-8.7-83-9-4.1-.6-8-4.1-65.1-57.3l-60.8-56.7-75.9-31.4c-41.7-17.2-76.6-32.1-77.5-33-.9-.9-20.4-33.3-43.4-72.1l-41.7-70.5-60.5-48.5c-33.2-26.7-62.4-50.3-64.8-52.5l-4.4-4-20.4-80-20.4-80-47.3-68-47.3-68 3-83 3-83-26.2-79.3-26.2-79.2 26.2-79.3 26.2-79.2-3-83-3-83 47.3-68 47.3-68 20.4-80 20.4-80 4.4-4c2.4-2.2 31.6-25.8 64.8-52.5l60.5-48.5 41.7-70.5c23-38.8 42.5-71.2 43.4-72.1.9-.9 35.8-15.8 77.5-33l75.9-31.4 60.8-56.7c57.1-53.2 61-56.7 65.1-57.3 2.4-.3 39.7-4.4 83-9l78.7-8.4 73.8-37c40.6-20.3 74-37 74.3-37.1.3 0 37.3 6.6 82.3 14.7z"/><path d="M1426 481.1c-212.1 10.7-415 89.2-580.6 224.6-46.8 38.4-101.3 92.9-139.7 139.7-118.6 145.1-194.4 320.4-217.6 503.6-33.2 260.9 34.9 519.5 191.4 727.8 31.2 41.5 53.6 67.3 91.5 105.3 30.7 30.7 55.2 52.9 83.5 75.5 140.7 112.6 308.8 184.9 486.5 209.3 49.8 6.8 87 9 146 8.6 63.8-.4 100-3.4 156.1-13 107.8-18.3 203.2-50.5 299.9-101.1 124-64.8 235.8-158.7 323.6-271.5 108.9-139.9 179.2-308.5 201.3-482.9 35-275.5-42.8-547.8-217.6-761.6-38.4-46.8-92.9-101.3-139.7-139.7-106.7-87.2-228.7-150.9-360.3-188.3-72.3-20.5-146.4-32.5-223.8-36.4-23.9-1.1-76.1-1.1-100.5.1zm21.2 183.4c3.1 26.9 5.7 50.8 5.7 53 .1 10.9-5.4 26-12.4 34.2-18.2 21.3-67.9 28.4-92.2 13-10.2-6.4-16.3-14.3-20.7-26.7-2.3-6.3-3.6-15.1-8.6-57.5-3.2-27.5-5.7-50.1-5.5-50.3.4-.5 40-5 40.4-4.6.2.2 3 22.6 6.2 49.8 5.3 45.6 5.9 49.9 8.3 54.3 3.6 6.6 8 9.4 15.9 10 12.1 1 23.1-4.3 25.8-12.5 1.9-5.6 1.3-12.8-4.4-61.7-3-24.8-5.2-45.2-5.1-45.4.4-.5 36.5-4.9 38.9-4.7 1.8.1 2.3 3.1 7.7 49.1zm223.1-28.9c8.2 1.6 22.4 6.2 29.2 9.6 6.5 3.3 15.5 9.2 15.5 10.3 0 1.4-5.8 27.6-6.2 28-.2.2-4.2-1.6-9.1-4-11.2-5.5-25.4-10.2-35.3-11.6-13.5-2.1-25.1 1.4-32.3 9.6-10.6 12.1-16.6 40.4-11.7 55.3 2.3 6.7 8.9 14.1 15.9 17.5 6.2 3 16.3 5.7 21.8 5.7h3.6l2.6-12.3c1.5-6.7 2.7-12.5 2.7-12.8 0-.3-5-1.6-11.1-2.9-6.2-1.3-11.3-2.9-11.6-3.6-.5-1.5 4.4-25.6 5.5-26.5.7-.7 57.8 11.4 58.8 12.4.3.2-3 17.1-7.4 37.3l-7.9 36.9-5.9 1.3c-14.5 3.1-44.7 1.1-61.4-4-16-4.9-31.1-15.8-39.2-28.2-8.5-13.1-11.6-32.2-8.4-51.5 5.7-33.8 21.2-55.4 46.5-64.5 13-4.7 27.4-5.3 45.4-2zm-499.4 55.9c3.3 7.4 6.1 13.6 6.1 13.8 0 .3-3 1-6.7 1.7-3.8.7-11.3 2.7-16.9 4.5-19.2 6.3-29.4 13.2-29.4 20 0 1.8.3 4.1.6 5 1.7 4.4 11 5.5 28.9 3.4 37.8-4.5 54.5 3.1 63.1 28.7 2.3 6.8 2.6 9.1 2.2 17-.3 7.8-.8 10.1-3.7 15.8-6.7 13.7-21.1 25.6-41.1 34.1-10.6 4.4-26.9 8.8-36.6 9.8l-5.2.6-6.1-13.6c-3.4-7.5-5.8-13.9-5.4-14.3.4-.4 4.6-1.5 9.3-2.4 16.6-3.5 36.7-11.2 44.6-17.3 8.7-6.5 5.8-17.9-4.8-19-2.4-.2-11.9.2-21.3 1.1-19.1 1.6-28.5 1.1-37.7-2.4-16.6-6.2-28.9-28.5-25.7-46.5 3.8-21.4 22.6-38.4 52.9-48 7.1-2.2 11.6-3.1 26.1-5.4.4-.1 3.4 6 6.8 13.4zm725.1 33c23.8 13.9 28.5 17 35.1 23.5 8.3 8.2 12 14.7 13.7 24 3.6 19.7-12.1 40-30.8 40h-5l3.4 5.2c3.6 5.4 6.6 14.7 6.6 20.4 0 1.8-.8 5.9-1.9 9.3-7 22.4-26.6 33.1-50 27.2-4.6-1.1-10.9-3.2-14-4.6-7.9-3.7-59.2-33.8-59.8-35.1-.6-1.6 72.8-126.5 74.2-126.2.6.2 13.5 7.5 28.5 16.3zM987.4 856.9c20.2 35.9 36.6 65.7 36.4 66.1-.2.4-7.2 7.4-15.5 15.5L993 953.2 953.4 927c-21.7-14.4-39.7-26-39.9-25.8-.2.2 11.1 18.3 25 40.3l25.4 40-15.3 15.4-15.3 15.3-65.7-38.8-65.7-38.7 15.8-15.9c8.7-8.7 16-15.8 16.3-15.8.3 0 18.7 13.3 40.9 29.5 22.3 16.2 40.6 29.5 40.8 29.5.4 0-1.1-2.4-30.4-48.5l-22.2-35 15.2-14.6 15.2-14.6 40.5 27.2c22.3 14.9 41.2 27.6 42 28 .8.5-.1-1.3-2.1-4-8-11-54.1-77.8-54.6-79.1-.6-1.5 29.8-31.7 30.8-30.6.4.4 17.1 30.1 37.3 66.1zM1512 845c125.8 7 244.1 49.7 344 124 131.9 98.1 221.3 244.6 247.4 405 33.4 205.3-33.4 410.7-180.6 555.6-230.7 227.1-595.3 244.1-845.8 39.5-119.2-97.3-200-236.7-224.4-387.1-21.6-132.8-1.5-267.5 57.5-386 72.7-145.8 198.1-258 350.9-313.8 79.3-28.9 166.5-41.9 251-37.2zm576.4 24.7c5 5.4 11.3 12.1 13.9 14.9l4.8 5.2-40.3 37.4c-22.2 20.6-40.8 38.1-41.5 38.9-1 1.3 2.1 5.1 19 23.4 11.1 12 20.2 22.2 20.2 22.7 0 1.1-22.3 21.8-23.5 21.8-.5 0-16.4-16.7-35.4-37.1l-34.5-37 6.7-6.3c24.4-22.9 100.7-93.6 101.1-93.6.2 0 4.5 4.4 9.5 9.7zm154.2 210.9c18.7 38.4 18.9 38.8 18.9 53.9 0 10.2-.4 12.9-2.3 17.8-4.5 11.2-14.6 20.5-28 25.8-4.6 1.9-7.7 2.3-15.7 2.4-10.1 0-11.2-.3-24.1-6.1-.5-.3-9.7 11.7-20.3 26.6-10.6 14.8-19.6 27-19.9 27-.4 0-4.8-8.5-9.8-18.8l-9-18.8 17.2-22.7 17.3-22.8-3.4-7.6c-1.9-4.1-3.5-7.7-3.5-7.9 0-1.4-5.5.9-25 10.6l-22.1 11-8.5-17.6c-4.7-9.7-8.3-17.8-8.2-18 .4-.3 131.1-64.3 131.6-64.4.2 0 6.9 13.3 14.8 29.6zm-1450.4 14c40.1 4.4 72.8 8.3 72.8 8.7 0 .5-4.2 9.6-9.2 20.3-6 12.5-9.8 19.4-10.8 19.4-.8 0-7.4-1.1-14.7-2.4l-13.1-2.3-9.4 19.5c-5.1 10.7-9.4 19.8-9.6 20.2-.2.6 12.6 12.2 20 18.1 1.9 1.5 1.7 2-7.4 21.2l-9.3 19.7-55.3-55.3-55.3-55.3 9.8-20.3 9.8-20.3 4.5.5c2.5.3 37.2 4 77.2 8.3zm1509.6 200.9l5.2 2.4-1.9 4.8c-1 2.6-3 7.6-4.4 11-1.4 3.5-2.4 6.3-2.1 6.3.2 0 5.3-2 11.4-4.4 12.1-4.9 11.6-5 14.9 2.5 1.4 3 2.1 6.6 2.1 11.1 0 10.2.7 9.7-13.3 9l-12.2-.5 3.5 4.1c1.9 2.3 5.4 6.4 7.8 9.1l4.3 5-3.6 3.9c-3.8 4.3-10.8 7.8-16.5 8.4l-3.5.3-3.2-9c-1.7-5-3.4-9.9-3.7-11-.4-1.5-2 .5-6.7 9-3.4 6-6.3 11.2-6.5 11.3-.7 1-9.6-4-12.7-7.2-4.2-4.2-8.3-11.5-7-12.6.4-.4 5.3-4 10.8-8l10-7.3-12.9-3.6-12.8-3.6.5-5.2c.6-5.9 4.5-13.8 8.7-17.8l2.8-2.7 9.5 8.1c5.2 4.5 9.7 8.1 10 8.1.2 0 .2-5.1-.1-11.4-.5-13.1-1.2-12.3 9.8-12.5 5-.1 7.7.5 11.8 2.4zm-1628.5 4.1c1.5.5 1.6 1.6 1 12.2l-.6 11.6 7.7-6.4c4.2-3.6 8.8-7.4 10.1-8.4l2.5-2 3 2.9c3.9 3.8 7.8 11.7 8.6 17.6l.6 4.6-6.8 2.1c-3.8 1.1-9.5 2.8-12.6 3.7-3.2.9-5.8 1.8-5.8 2 0 .2 4.7 3.7 10.4 7.9 10.3 7.5 10.5 7.7 9.5 10.6-2.2 6.2-13.3 16-18.2 16-.7 0-4-4.7-7.3-10.5-3.2-5.7-6.1-10.4-6.4-10.5-.3 0-2 4.8-3.8 10.5l-3.3 10.5h-3.7c-5 0-13.3-4.2-17.2-8.7l-3.1-3.5 3.3-3.8c1.8-2.2 5.3-6.2 7.8-9.1l4.4-5.2-12.4.4-12.4.4-.8-3.5c-1.1-5 0-12.6 2.7-18.8 1.3-2.8 2.5-5.2 2.7-5.2.2 0 5.3 2 11.3 4.4 6.1 2.4 11.1 4.3 11.3 4.1.2-.1-1.5-4.8-3.8-10.4-2.2-5.6-3.8-10.7-3.5-11.2.9-1.4 6-3.8 10.2-4.8 3.6-.9 10.6-.6 14.6.5zM2266.4 1517c20.4 2.3 39.8 4.7 43.1 5.6 9.3 2.3 15.9 6 21.4 11.9 6.6 7.3 9.3 14.4 9.9 26.1 1.5 29.7-12.9 49.8-37.3 52.1-4 .4-19.8-.9-46.4-3.8l-40.3-4.4.7-8c.4-4.4 1-8.3 1.4-8.7.3-.4 16.8 1 36.6 3.2 50.8 5.6 54.1 5.5 62.6-3 5.6-5.6 7.9-12 7.9-21.9 0-8.9-1.5-13.5-5.7-18.2-7.3-8-9-8.4-56.8-13.4-18.7-2-35-3.8-36.3-4.1-2.3-.5-2.3-.7-1.7-7.2.8-8.3 1.3-10.2 2.8-10.2.6 0 17.8 1.8 38.1 4zM673 1532.1l59.8 15.2.6 5.6c.4 3.1.9 7.3 1.2 9.3l.6 3.7-55.8 27.5c-30.6 15.2-55.8 27.6-56 27.6-.1 0-.5-2.6-.9-5.8-.3-3.1-.8-7.1-1.1-8.8l-.4-3.1 15-7.1 15.1-7.2-.5-3.3c-.3-1.7-1.5-12.2-2.7-23.2-1.1-11-2.4-20.3-2.7-20.6-.4-.3-7.5-2.1-15.9-3.9l-15.2-3.3-.5-3.6c-1.4-9.4-1.7-14.1-1.1-14.1.4 0 27.6 6.8 60.5 15.1zm65.3 76.5l2.5 9-43.3 24.5c-23.9 13.4-43.3 24.5-43.1 24.6.1.1 19.5-.5 43.1-1.2 23.7-.8 45.1-1.5 47.6-1.5h4.6l2.3 8.4c1.2 4.6 2.1 8.9 1.8 9.6-.2.6-19 11.3-41.8 23.7l-41.5 22.5 49.9-.4 49.9-.3 2.3 8.5c1.3 4.6 2.2 8.6 2 8.7-.6.7-120.1-2-120.9-2.7-.4-.3-1.8-4.6-3.1-9.3-1.6-6.2-2-9-1.2-9.5.6-.5 18.7-10.5 40.3-22.2 21.6-11.8 39.1-21.5 38.9-21.7-.1-.1-20.6.3-45.4.9-27.2.7-45.6.8-46.1.2-1.2-1.3-5.4-17.5-4.7-18.1.7-.7 103.1-63.1 103.3-62.9 0 0 1.2 4.2 2.6 9.2zm1514.7 22.5c10.4 4.8 16.7 12.7 19.1 23.8.7 3.2 1.5 5.1 2.2 4.8 7.8-2.9 53-16.7 53.4-16.3.6.5-2.7 14.9-3.7 16.6-.4.6-12.3 4.6-26.4 9-14.2 4.3-25.9 8-26.1 8.2-.5.8-5.6 21-5.3 21.3.2.2 10.3 2.9 22.6 6.1 12.2 3.2 22.2 6.2 22.2 6.8 0 .6-.9 4.2-1.8 8.1-1.5 5.8-2.2 7-3.8 6.7-3.1-.4-110.5-27.9-110.9-28.4-.9-.9 11.4-46.7 13.9-51.6 3.8-7.5 7.9-11.7 14.9-15.2 5.8-3 6.7-3.1 15.2-2.8 7 .3 10.2 1 14.5 2.9zm-28.5 102.2c40.9 16.8 42.2 17.4 48.8 23.5 11.8 11.1 15.1 23.4 10.8 40.4-4.2 16.2-14.3 30.4-25.6 35.7-6.2 3-18.3 3.9-26.4 2.1-4.4-1-77.5-30-78.8-31.3-.6-.6 5.9-15.7 6.8-15.7.4 0 15.8 6.1 34.1 13.6 37.9 15.6 43.1 17.4 49.7 17.4 6.4 0 14.6-4.2 18.8-9.7 8-10.8 9.7-26 3.8-34.5-1.7-2.4-5.1-5.7-7.6-7.3-2.4-1.7-20.9-9.7-40.9-17.9-20.1-8.2-36.6-14.9-36.6-15-.6-.5 6.2-15.6 7-15.6.6 0 16.9 6.4 36.1 14.3zm-1446.7 28.3c13.4 5.9 24.6 25.7 26.8 47.1l.7 6.2-5.8 2.6c-3.2 1.4-6.1 2.5-6.4 2.5-.4 0-1.2-3.3-1.9-7.3-2.8-16.2-9-29.7-16.1-34.4-6.4-4.3-17.3-2.1-21.7 4.4-1.7 2.6-1.9 4.9-1.9 27.8 0 23.2-.1 25.3-2.1 29.5-1.1 2.5-3.6 6-5.5 7.9-4.3 4.4-13.7 8.8-20.4 9.6-10 1.3-23.2-4.5-30.2-13.3-7.8-9.7-14.9-27.6-15.9-40.4l-.6-7.3 5.6-2.8c3.1-1.5 6-2.7 6.4-2.7.5 0 1.4 3.4 2 7.6 1.7 10.8 6.9 25.6 11.1 31.7 4.6 6.5 9.9 9.7 16.4 9.7 7.2 0 12.4-3.1 14.9-8.8 2-4.3 2-5.8 1.4-23.7-.9-25.5.8-33.2 8.9-40.3 4.8-4.3 9-6.4 15.5-7.7 6.9-1.5 12.1-.9 18.8 2.1zM2166 1885c24.2 13.7 44.1 25 44.4 25 .2 0 6.1-10 13-22.3 6.9-12.2 13-22.8 13.5-23.6.7-1.1 2-.8 6.8 1.9 3.2 1.8 6 3.4 6.2 3.6.6.5-34.3 61.6-35.5 62.1-1 .4-97.3-53.6-100.1-56.1-.9-.8-.3-2.8 2.8-8.4 2.2-3.9 4.2-7.2 4.5-7.2.2 0 20.2 11.2 44.4 25zm-1321.6-7.3c4.4 6.4 4.5 6.8 2.9 8.4-1 .9-15.5 11.2-32.3 22.9-16.8 11.7-31.6 22.2-32.9 23.4-1.3 1.1-3.6 4.3-5.2 7.1-5.6 9.7-3.5 21.6 5.7 32.3 5.7 6.8 11.5 9.6 19.3 9.6 9-.1 11.2-1.3 47.8-27 16.9-11.9 31.2-21.8 31.8-22 1-.4 11.2 13.3 10.4 14-9.9 7.6-66.1 45.7-70.6 47.8-18.1 8.5-33.7 5-48.2-10.8-10.3-11.3-16.9-27.2-15.8-37.9.3-2.7 1.5-7.6 2.7-10.9 3.8-9.9 11.5-16.8 47-41.6 17.3-12.1 31.8-22 32.1-22 .4 0 2.7 3 5.3 6.7zm1299.1 59c30.8 9.1 56.5 16.8 57.2 17.2 1.3.7-8.2 14.1-10.1 14.1-.6 0-7.5-2-15.1-4.5-7.7-2.4-14.3-4.5-14.7-4.5-.8 0-27.6 35.2-28.4 37.3-.2.7 3 6.2 7.2 12.2 4.2 6.1 8.3 12 9.1 13.2 1.3 2 1.1 2.7-3.8 9.2-3 3.9-5.6 6.7-6 6.3-1.2-1.2-66-101.2-66.5-102.7-.3-.7 1.8-4.5 4.8-8.5 4.7-6.2 5.6-7 7.8-6.5 1.4.4 27.7 8.1 58.5 17.2zm-1227.1 37.6c6.6 3.1 17.1 12.6 22.6 20.7 4.3 6.4 9 15.3 9 17.3 0 .7-1.5 2.7-3.2 4.3-6.7 6.1-6 6.3-11.4-3.3-6.6-11.8-17.9-23.4-24.7-25.3-4.1-1.1-5.3-1-9.2.4-4.8 1.9-9.1 6.2-10.1 10.2-1.2 4.6.6 11.6 6.5 26.4 9.3 23 10 30.3 4.1 40.7-3.4 5.9-11.3 12.4-17.9 14.8-9.4 3.3-21.6 1.4-31.6-5-10-6.3-23.9-23.9-27.9-35.2l-1.5-4.2 5.1-4.6 5.1-4.6 4.3 8.1c7.1 13.2 16.8 24.6 24.4 28.5 1.7.9 5.2 1.8 7.8 2.1 6.2.7 12.8-2.6 16-8.2 3.4-5.7 2.5-11.2-4.6-29.5-3.3-8.5-6.5-18.2-7.1-21.6-2.7-14.8 5.5-28.3 20.8-34 5.6-2.1 16.6-1.2 23.5 2zm1129.9 10.5l4.8 4.8-9.3 5.5c-11.3 6.6-21.9 16.9-26.8 25.9-3.2 5.9-3.5 7.3-3.5 14.5 0 12 3.6 18.8 17.4 32.6 13.6 13.6 20.6 17.4 32.1 17.4 10.8 0 18.7-4 29.5-15 4.4-4.4 8.6-9.3 9.4-10.8 1.5-2.8 1.5-2.8-9.9-14.2-6.3-6.3-11.9-11.5-12.5-11.5-.5 0-4.9 3.9-9.7 8.7l-8.8 8.8-4.7-4.8-4.8-4.7 15-15 15-15 19.8 19.8 19.8 19.8-2.1 5.4c-5.1 13-20.3 30.9-32.5 38.2-20 12-39.6 10-59.8-6.1-24.5-19.4-34.5-43.2-27.7-65.3 4.7-15.4 20-31.8 37.9-40.9 3.1-1.6 5.8-2.9 6.1-2.9.3 0 2.7 2.2 5.3 4.8zM997 2051.4c14.8 12.5 27 23.1 27 23.5-.1.3-2 2.8-4.4 5.5l-4.4 5-11.7-10c-6.5-5.4-15.9-13.4-20.9-17.6-5-4.3-9.4-7.7-9.7-7.5-.4.1-4.8 5.1-9.9 11.2-5.1 6-10.1 11.9-11.2 13.1-1.8 2-1.6 2.2 15.7 16.8 9.6 8.2 17.5 15.1 17.5 15.5 0 .3-2 2.8-4.4 5.6l-4.3 4.9-11.8-9.9c-24.9-21.1-23.5-20.2-25.4-17.9-.9 1.1-6.5 7.7-12.5 14.8-9.1 10.7-10.7 13-9.5 14 .8.7 10.1 8.6 20.7 17.6 10.5 8.9 19.2 16.7 19.2 17.2s-1.8 3.1-4.1 5.8l-4.1 4.9-27.5-23.4c-15.1-12.8-27.4-23.7-27.3-24.1.3-1.7 74.4-88.4 75.2-88.2.4.2 12.9 10.6 27.8 23.2zm997.7 46.3c18.6 25.2 34.2 46.3 34.6 47 .5.7-2.1 3.2-6.9 6.7l-7.7 5.5-4.6-1.9c-2.5-1-22.8-9.1-45.1-18s-42.7-17.1-45.3-18.1c-4.4-1.8-4.7-1.8-3.8-.1.5.9 12.7 17.4 27 36.7l26 35-2.7 2.3c-5.9 4.9-10.4 7.6-11 6.6-.4-.6-15.9-21.6-34.4-46.6-18.6-25.1-33.8-45.9-33.8-46.2 0-.3 3.3-3 7.3-6l7.3-5.4 49.8 20c27.4 10.9 50 19.8 50.1 19.6.2-.2-11.8-16.7-26.7-36.7-22.2-30-26.7-36.6-25.6-37.7 2.2-2.2 10.3-8.3 11-8.3.4-.1 15.9 20.5 34.5 45.6zm-935.2.9c11 7.2 21.6 14.9 23.4 17 5.6 6.4 8.5 13.8 8.5 22 0 6.2-.4 8.1-3.7 14.7-6.8 13.7-17.3 20.2-31.8 19.5l-7.6-.3-.7 7.4c-.3 4.1-.6 17.1-.6 28.9 0 17.2-.3 21.3-1.3 20.9-.7-.3-4.5-2.6-8.5-5.1-7.1-4.6-7.2-4.8-6.7-8.4.2-2 .7-14.3 1-27.3l.6-23.5-6.8-4.5c-3.7-2.5-8-5.3-9.4-6.2l-2.6-1.7-12.3 19c-6.8 10.5-12.7 19.3-13.1 19.6-1.2.7-13.9-7.9-13.6-9.2.1-.6 14.3-22.7 31.6-49.2 19.5-30 31.8-47.9 32.5-47.5.6.4 10.1 6.6 21.1 13.9zm817.3 22.3l3.2 6-16.2 8.9c-9 4.9-19.8 10.8-24 13.2-4.3 2.3-7.8 4.5-7.8 4.8 0 .8 15 28.5 16.1 29.6.4.5 9-3.6 20.2-9.8 10.7-5.8 19.9-10.6 20.5-10.6.5 0 2.3 2.7 4.1 5.9l3.1 5.9-20 10.8c-11 6-20 11.3-20 11.9 0 2.4 17.9 33 19.2 32.7.7-.2 11.5-6 24.1-12.9 12.6-6.9 23.2-12.1 23.6-11.7 2.2 2.4 6.5 11.7 5.6 12-.5.3-14.9 8.1-31.9 17.4-17 9.4-31 16.9-31.2 16.8-1.5-1.6-55.4-101.2-55.2-102 .4-1 60.6-34.6 62.3-34.7.6-.1 2.5 2.6 4.3 5.8zm-681.2 49.1c13.4 3.4 36 16.2 38.1 21.6.3.7-.6 4.1-1.8 7.3l-2.4 5.9-6.5-4.9c-19-14.3-39.5-19.6-52.5-13.5-9.4 4.4-17.8 15.6-23.5 31.4-5.7 15.8-6.2 25.4-1.9 34.8 4.3 9.1 15.7 17.3 31.1 22.3 10.5 3.5 10.2 3.8 17-13.3 3.2-8.2 5.5-15.2 5.1-15.6-.4-.4-5.6-2.6-11.5-5-6-2.3-10.8-4.8-10.8-5.5 0-.7 1-3.6 2.2-6.4 1.6-3.9 2.5-5 3.7-4.6 17.3 6.6 37.1 15.1 37.1 16 0 .5-4.5 12.4-10.1 26.2l-10.1 25.3h-5.7c-7.5 0-15.7-1.5-25.6-4.7-18.8-6-31.7-15.8-38.2-29.1-3.5-6.9-3.8-8.3-4.1-17.7-.5-11.6 1.4-20.9 6.8-33.9 12.7-30.5 35.6-43.7 63.6-36.6zm589.2 2c8.6 3.8 14.1 10.6 16.7 20.6 1.8 7.1.8 14.3-3.1 19.9-1.3 2-2.4 3.7-2.4 3.9 0 .2 2.8.6 6.3.8 13.5 1.1 22.5 9.9 25.6 25 2.5 12.1-2.9 23.9-14.7 32-3.6 2.5-50.2 22.1-50.9 21.4-.1 0-9-22.4-19.8-49.6-10.8-27.2-20.5-51.6-21.6-54.2l-1.8-4.7 19.7-7.7c10.8-4.3 22-8.4 24.7-9.1 6.4-1.6 15.4-.9 21.3 1.7zm-501.5 28.6c12.2 3 24.4 6.7 27.2 8 14.3 7.2 21.3 21.3 18.1 36.5-1.8 8.3-4.3 13.3-9.3 18.3-4.3 4.4-12.5 8.6-18.4 9.3-2.1.3-3.9.6-3.9.7 0 0 4 12.5 8.8 27.6 4.9 15.1 8.8 27.6 8.7 27.8-.2.2-4.1-.7-8.9-1.9-5.3-1.3-9-2.8-9.5-3.8-.4-.9-4.1-12.4-8.1-25.6-4-13.2-7.8-24.5-8.5-25-1.3-1.1-20.4-6-21-5.4-.2.2-2.8 10.3-5.9 22.3-3.1 12.1-5.7 22.1-5.9 22.2-.4.4-14.8-3.3-15.5-4-.3-.4 5.2-23.5 12.2-51.4 14.8-58.9 15.4-61.2 16.7-61.2.5 0 11 2.5 23.2 5.6zm368.3 12.3c12.4 5.5 20.4 19 20.4 34.7 0 9.9-2.5 16-9.5 23-7.3 7.3-11.5 9.1-31 13-7.7 1.5-14.1 2.8-14.3 3-.2.1 1.6 9.9 3.9 21.8s4 21.8 3.7 22.1c-1 1-15.2 3.5-15.8 2.8-.4-.5-5.5-25.6-11.4-55.8-5.9-30.3-10.9-55.7-11.2-56.6-.4-1.4 3-2.3 22.3-6.2 26-5.2 34.3-5.6 42.9-1.8zm-240.8 8.6c9.1 2.2 16.4 5.9 22.6 11.6 7 6.4 11.2 13 14.4 22.7 2.2 6.8 2.5 9.3 2.5 21.2-.1 15.5-2 24.6-7.8 36.8-4.1 8.8-13.4 18.6-21.3 22.6-14.7 7.5-35.5 7.3-51.9-.3-12.9-6.1-23.3-19.5-26.9-34.7-2.3-9.7-1.5-31 1.6-41.4 5.8-20.1 18.5-33.8 35.8-38.5 6.5-1.8 23.4-1.8 31 0zm154.3 1.7c0 .2 1.1 17.9 2.3 39.4 2.4 41.5 2.3 47.9-1.4 57.6-6 16.1-24.7 25.8-47.5 24.5-15.2-.9-25.2-5.7-32.9-16.1-6.7-9-7.5-13.5-10.1-59.1-1.4-22.5-2.2-41.1-2-41.3.2-.2 4.2-.7 8.9-.9l8.6-.6v2.9c0 12.8 4.4 77.8 5.5 82 2 7.1 6.4 12.7 12.2 15.5 4 2 6.3 2.4 14.4 2.4 8.7 0 10.1-.3 15.5-3 4.7-2.5 6.5-4.1 9.1-8.3 1.7-2.9 3.4-7.5 3.8-10.2.4-2.6-.3-22.2-1.5-43.4-1.2-21.3-1.9-39.3-1.6-40.1.4-1.2 2.4-1.5 8.6-1.5 4.4 0 8 .1 8.1.2z"/><path d="M1878.9 762.7c-3.4 6-6.9 11.8-7.6 12.9-1.3 2.1-1 2.4 5.4 6 12.8 7.3 15.8 7.9 21.4 4.1 7.3-4.9 10.3-16.4 5.8-22.1-1.8-2.3-16.2-11.6-18-11.6-.4 0-3.5 4.8-7 10.7zM1848.4 814.7c-4.3 7.5-8 14-8.2 14.3-.1.4 4.8 3.5 11 7.1 9.5 5.4 12 6.4 16 6.4 3.8 0 5.2-.5 7.8-3 4.2-4 7.3-10.1 7.3-14.7 0-7.2-4.9-12.2-20.2-20.6l-5.7-3.1-8 13.6zM1444 1052.1c-61.6 5-124.1 24.3-177.6 54.8-16.1 9.3-40.1 25.6-55.4 37.7-17.6 14-52.4 48.8-66.4 66.4-32.3 40.7-56.9 86.4-72.9 135.6-27.7 84.9-27.7 177.9 0 262.8 16 49.2 40.6 94.9 72.9 135.6 14 17.6 48.8 52.4 66.4 66.4 40.7 32.3 86.4 56.9 135.6 72.9 84.9 27.7 177.9 27.7 262.8 0 49.2-16 94.9-40.6 135.6-72.9 17.6-14 52.4-48.8 66.4-66.4 32.3-40.7 56.9-86.4 72.9-135.6 24.6-75.4 27.4-157.4 8.1-234.8-14.7-59-42.6-115.3-81-163.6-14-17.6-48.8-52.4-66.4-66.4-68.1-54.1-148.6-85.8-235.4-92.6-15-1.2-50.4-1.1-65.6.1zm-140.8 246.7c11.2 3 18.2 6.7 25.2 13.3 7.1 6.6 11.4 13.9 14.7 24.9 2.1 7.2 2.3 9.6 2.9 56 .7 53.1.2 49.1 7.2 64.2 4.3 9.4 3.8 10.5-7.3 17.8-11.5 7.6-13.7 7.7-19.5 1.5-2.3-2.5-5.8-7.7-7.8-11.5l-3.7-7-6.9 6.2c-15.3 14-32.8 20.8-52.8 20.8-28.2-.1-48.4-15.3-53.7-40.5-1.9-8.9-1.9-16.1 0-25 4.5-21.2 19.7-36.3 43.2-42.7 11.3-3.1 35.1-3.1 51.8 0 6.6 1.3 12.8 2.5 13.9 2.8 1.7.6 1.8-.2 1.4-15.2-.3-15-.5-16.3-3.2-22.2-3.7-8.1-8.9-12.6-17.6-15.3-14.9-4.6-35.3-3.2-55.5 3.8-22.2 7.6-19.5 7.1-21.6 4.4-1.5-1.8-1.9-3.9-1.9-9.6 0-12.4 1.5-14.5 14.9-19.9 7.7-3.1 19.1-6.4 28.6-8.2 10.6-2 37.8-1.2 47.7 1.4zm404.3-1.3c18 2.7 32.2 7.8 36.3 13 1.9 2.4 2.2 4 2.2 11.2 0 9.2-1 12.3-4.1 12.3-1 0-5.9-1.5-10.7-3.4-11.4-4.5-23-6.6-35.8-6.6-25.8 0-37.2 7.6-36.2 24.1.7 13.3 6.8 17.4 41.9 29 26.7 8.7 33.4 12 41.8 20.1 11.3 11.2 15.6 27.6 11.6 44.7-4.9 20.6-20.7 34.9-46 41.6-8.5 2.3-28.3 3-39.9 1.6-20.3-2.6-41-10.1-44.1-16.1-2.1-4.1-2.1-19.3.1-21.4 2.2-2.2 3.2-2.1 13.7 2 17.6 6.9 22.2 7.7 42.7 7.8 17.2.1 18.9-.1 24.3-2.3 11.4-4.6 16.7-11.6 16.7-22.3 0-4.8-.6-7.2-2.3-10-4.4-7.3-10.7-10.5-36.2-18.6-23.4-7.4-28.2-9.3-35.1-13.7-11.8-7.5-20.4-20.4-22.7-33.8-4.1-24 12-47.7 38.1-56.2 13.8-4.5 27.6-5.4 43.7-3zm-311.5 4.8c1.4.7 3.1 2.6 3.9 4.2.8 1.7 9 32.9 18.2 69.4 9.3 36.5 17 66.5 17.2 66.7.2.2 7-27.9 15.1-62.4s15.6-65.8 16.7-69.5c2.6-8.8 4.4-9.7 19.9-9.7 13.8 0 17.3 1.2 19.1 6.7.7 2.1 8.3 33.9 16.9 70.8 9.1 38.6 16 66.1 16.3 65 .3-1.1 8.3-31.6 17.7-67.7 9.4-36.2 17.4-66.8 17.9-68 2.1-5.4 4.4-6.3 17.6-6.6 13.2-.4 16.1.3 17 4.1.5 2-50 166-52.7 171-1.7 3.3-7.1 4.7-18 4.7-14.3 0-17.5-1-19.7-6.3-1-2.3-8.7-33.1-17.2-68.4-8.4-35.3-15.5-64-15.7-63.9-.1.2-7.5 30.2-16.2 66.7-13.8 57.4-16.3 66.7-18.4 68.8-2.3 2.3-3.4 2.5-13.8 2.9-13.2.5-19-.7-21.4-4.4-2.3-3.4-51.4-166.1-51.4-170.1 0-2 .7-3.6 1.8-4.2 2.5-1.5 26.1-1.4 29.2.2zm370.4 224.5c8.6 2.2 12.7 4.6 13.7 8.3 3.1 10.9-2.1 38.2-11 58.8-8.3 19.1-26 41.1-33 41.1-2.7 0-3.1-.3-3.1-2.8 0-1.6 1.8-7.3 4-12.7 5.4-13.2 12.5-35.3 14.4-44.7 3.9-19 1.1-24.1-15-26.9-8.2-1.4-32.4-.7-52.1 1.6-7.3.8-13.9 1.2-14.8.9-.8-.3-1.5-1.7-1.5-2.9 0-7.1 27.5-19.3 50.5-22.4 11.3-1.6 38.6-.6 47.9 1.7zm-574.5 14.1c127 70.5 278.1 92.8 418.2 61.6 31.2-7 63.2-16.8 91.4-27.9 14.8-5.9 18.6-6.6 22.3-4 6.5 4.5 4.4 10.6-6.1 18.1-66.6 47.5-172.5 75.7-263.7 70.4-52.5-3.1-97.7-13-144.4-31.4-18.1-7.1-52.3-24.5-69.4-35.2-26.3-16.5-63.5-45.8-64.8-51.1-.7-2.7 1.8-6.4 4.4-6.4.8 0 6.3 2.6 12.1 5.9z"/><path d="M1258 1400.6c-15.2 4.1-22 13.2-22 29.4 0 12.8 3.5 19.7 12.4 24.7 4.7 2.6 5.9 2.8 15.6 2.8 11.4 0 17.4-1.3 26-5.6 8.3-4.1 14.5-10 18.2-17.6 3-6.1 3.2-7.5 3.6-18.8.5-14.3 1.9-12.7-13.3-15-12.7-1.9-33.2-1.9-40.5.1zM2201.2 1107.6l-17.2 8.4 4.9 9.8c5.5 10.9 10 15.7 15.8 16.8 7.3 1.4 18.5-3.6 22.3-9.9 3.4-5.4 2.7-10.8-2.9-22.5-2.7-5.7-5.1-10.5-5.3-10.6-.2-.2-8.1 3.5-17.6 8zM747.5 1135.5c8.3 7.1 17.7 15.3 21.1 18.2l6.1 5.3 6.2-12.7c3.4-6.9 5.8-12.9 5.4-13.3-.4-.4-11.6-2.6-24.8-4.9-13.2-2.4-25.1-4.5-26.5-4.9-1.6-.3 3.1 4.3 12.5 12.3zM660 1546.7c-.1 3.9 3.4 34.8 3.9 35.5.3.4 12.5-4.9 26.9-11.7 17.7-8.3 25.8-12.5 24.5-12.9-1-.3-12.8-3-26.3-6.1-13.5-3-25.5-5.7-26.7-6-1.7-.4-2.3-.1-2.3 1.2zM2230.5 1645.7c-3.5.9-8.5 5.3-10.3 9.1-2.2 4.3-8.6 29.1-7.8 29.9.5.6 37.5 10.3 39.1 10.3 1.4 0 7.5-25.4 7.5-31-.1-6.9-3.4-11.9-10.1-15.3-5.5-2.8-14.2-4.2-18.4-3zM2091.6 1938.2c1.2 2.1 30.6 45.2 31.4 46.1.4.4 5.8-6 12-14.3s11-15.3 10.7-15.6c-.6-.6-52.7-17.4-54-17.4-.4 0-.5.6-.1 1.2zM1033.5 2121c-5.7 8.8-10.9 16.8-11.4 17.8-.7 1.4 1 2.9 10.6 9.1 13.4 8.6 18.1 10.5 24 9.6 7.9-1.2 18.3-13.7 18.3-22.1 0-8-3.2-11.7-19.2-22.5l-11.8-7.9-10.5 16zM1752 2188.6c-6.3 2.5-11.6 4.7-11.8 4.9-.4.3 12.5 33.4 13.2 34.2.1.2 5.4-1.8 11.7-4.3 17.8-7.2 21.5-10.9 20.7-21.5-.3-4.1-1.2-6.9-3.1-9.8-6.4-9.6-13.3-10.4-30.7-3.5zM1789.5 2228.8c-1.6.2-9.4 2.9-17.2 5.9l-14.2 5.6 1.9 4.6c9 22.9 12.3 30.7 12.8 31.3 1 1 25.9-9.1 31.1-12.5 5.7-3.8 7.4-7.6 6.9-15.3-.8-13-9.7-21.1-21.3-19.6zM1272 2212.5c0 .1-2.3 9.1-5.1 20-3.5 13.8-4.7 20-3.9 20.5.6.3 7.3 2.1 14.9 3.9 17.2 4.1 20.6 3.8 26.7-2.3 10-10 9.6-26.9-.8-32.9-3.4-2.1-31.8-10.2-31.8-9.2zM1617 2227.4c-7.2 1.5-10.6 2.6-10.8 3.6-.2 1.4 7.4 41 8.1 41.6.1.1 6.4-1 14-2.6 21.6-4.5 26.2-8.4 26.1-22.2-.2-8.4-4.1-17.1-9.3-20.6-4.4-2.9-13.5-2.8-28.1.2zM1380.2 2238.1c-10.4 5.1-16.6 14.8-19.8 30.8-2 10.3-1.5 29.2 1 36.1 2.8 7.9 8.4 14.1 16 18 6.6 3.3 7.4 3.5 17.5 3.5 8.7 0 11.4-.4 15.2-2.1 14.1-6.5 21.9-23.6 22.2-47.9.1-13.8-1.4-20.2-6.4-27.9-6-9.1-16.3-13.6-30.9-13.6-7.7 0-9.4.4-14.8 3.1z"/></svg>