<svg width="615" height="394" viewBox="0 0 615 394" fill="none" xmlns="http://www.w3.org/2000/svg">
<path d="M477.313 241.65L307.295 71.6313L137.276 241.65C131.264 247.662 121.518 247.662 115.506 241.65C109.498 235.638 109.498 225.896 115.506 219.884L296.414 38.9803C299.299 36.0953 303.213 34.4735 307.295 34.4735C311.376 34.4735 315.291 36.0953 318.176 38.9803L499.079 219.884C505.091 225.896 505.091 235.638 499.079 241.65C493.072 247.662 483.325 247.662 477.313 241.65Z" fill="#FFD399"/>
<path d="M307.295 112.458C276.554 112.458 251.544 87.4479 251.544 56.7073C251.544 25.9628 276.554 0.953125 307.295 0.953125C338.035 0.953125 363.045 25.9628 363.045 56.7034C363.045 87.444 338.035 112.458 307.295 112.458Z" fill="#FF9900"/>
<path d="M332.261 56.7033C332.261 70.4733 321.065 81.6701 307.295 81.6701C293.525 81.6701 282.328 70.4733 282.328 56.7033C282.328 42.9334 293.525 31.7405 307.295 31.7405C321.065 31.7405 332.261 42.9334 332.261 56.7033Z" fill="#FFD399"/>
<path d="M615 220.445V379.567C615 387.526 606.139 394 595.245 394H19.7549C8.86116 394 0 387.526 0 379.567V220.445C0 212.486 8.86116 206 19.7549 206H595.245C606.139 206 615 212.486 615 220.445Z" fill="#FF9900"/>
<path d="M106.28 318.547C106.28 315.966 105.359 313.955 103.515 312.514C101.706 311.073 98.5054 309.582 93.9144 308.041C89.3233 306.499 85.57 305.008 82.6545 303.567C73.1707 298.909 68.4289 292.508 68.4289 284.365C68.4289 280.31 69.6018 276.741 71.9476 273.658C74.3269 270.541 77.678 268.128 82.001 266.419C86.324 264.677 91.1832 263.806 96.5785 263.806C101.84 263.806 106.548 264.744 110.704 266.62C114.893 268.497 118.143 271.178 120.455 274.663C122.768 278.115 123.924 282.069 123.924 286.526H106.33C106.33 283.544 105.409 281.231 103.566 279.589C101.756 277.947 99.293 277.126 96.1764 277.126C93.0263 277.126 90.5297 277.83 88.6866 279.238C86.877 280.612 85.9721 282.371 85.9721 284.516C85.9721 286.392 86.9775 288.101 88.9882 289.643C90.9989 291.151 94.5343 292.726 99.5946 294.368C104.655 295.977 108.81 297.719 112.061 299.596C119.97 304.153 123.924 310.437 123.924 318.446C123.924 324.847 121.511 329.873 116.685 333.526C111.86 337.179 105.241 339.005 96.8299 339.005C90.8983 339.005 85.5197 337.95 80.6941 335.839C75.9019 333.694 72.2827 330.778 69.8363 327.092C67.4235 323.372 66.2171 319.1 66.2171 314.274H83.9112C83.9112 318.195 84.9165 321.093 86.9272 322.97C88.9714 324.813 92.2723 325.735 96.8299 325.735C99.7454 325.735 102.041 325.115 103.716 323.875C105.426 322.601 106.28 320.825 106.28 318.547ZM194.952 302.913C194.952 310.051 193.628 316.368 190.98 321.864C188.333 327.36 184.563 331.599 179.67 334.582C174.811 337.531 169.265 339.005 163.032 339.005C156.799 339.005 151.269 337.581 146.444 334.733C141.618 331.851 137.848 327.745 135.134 322.417C132.453 317.089 131.045 310.973 130.911 304.07V299.948C130.911 292.776 132.218 286.459 134.832 280.997C137.479 275.501 141.249 271.262 146.142 268.279C151.068 265.297 156.665 263.806 162.931 263.806C169.131 263.806 174.66 265.28 179.52 268.229C184.379 271.178 188.149 275.384 190.83 280.846C193.544 286.275 194.918 292.508 194.952 299.546V302.913ZM177.006 299.847C177.006 292.575 175.783 287.062 173.337 283.309C170.924 279.522 167.455 277.629 162.931 277.629C154.084 277.629 149.409 284.264 148.907 297.535L148.856 302.913C148.856 310.085 150.046 315.598 152.425 319.451C154.805 323.305 158.34 325.232 163.032 325.232C167.489 325.232 170.924 323.339 173.337 319.552C175.749 315.765 176.973 310.319 177.006 303.215V299.847ZM221.694 324.428H252.407V338H204.05V264.811H221.694V324.428ZM259.847 338V264.811H283.422C289.89 264.811 295.704 266.285 300.865 269.234C306.025 272.15 310.047 276.289 312.929 281.65C315.844 286.979 317.319 292.961 317.352 299.596V302.964C317.352 309.666 315.928 315.681 313.08 321.01C310.265 326.304 306.277 330.46 301.116 333.476C295.989 336.458 290.258 337.966 283.925 338H259.847ZM277.49 278.433V324.428H283.623C288.683 324.428 292.571 322.635 295.285 319.049C297.999 315.43 299.357 310.068 299.357 302.964V299.797C299.357 292.726 297.999 287.398 295.285 283.812C292.571 280.226 288.616 278.433 283.422 278.433H277.49ZM414.016 302.913C414.016 310.051 412.693 316.368 410.045 321.864C407.398 327.36 403.628 331.599 398.735 334.582C393.876 337.531 388.33 339.005 382.097 339.005C375.864 339.005 370.334 337.581 365.508 334.733C360.683 331.851 356.913 327.745 354.198 322.417C351.517 317.089 350.11 310.973 349.976 304.07V299.948C349.976 292.776 351.283 286.459 353.897 280.997C356.544 275.501 360.314 271.262 365.207 268.279C370.133 265.297 375.729 263.806 381.996 263.806C388.196 263.806 393.725 265.28 398.584 268.229C403.443 271.178 407.214 275.384 409.894 280.846C412.609 286.275 413.983 292.508 414.016 299.546V302.913ZM396.071 299.847C396.071 292.575 394.848 287.062 392.401 283.309C389.989 279.522 386.52 277.629 381.996 277.629C373.149 277.629 368.474 284.264 367.972 297.535L367.921 302.913C367.921 310.085 369.111 315.598 371.49 319.451C373.87 323.305 377.405 325.232 382.097 325.232C386.554 325.232 389.989 323.339 392.401 319.552C394.814 315.765 396.037 310.319 396.071 303.215V299.847ZM480.52 264.811V312.716C480.52 318.144 479.364 322.853 477.052 326.841C474.739 330.795 471.422 333.811 467.099 335.889C462.776 337.966 457.665 339.005 451.767 339.005C442.853 339.005 435.832 336.693 430.705 332.068C425.578 327.444 422.964 321.11 422.863 313.067V264.811H440.608V313.419C440.809 321.429 444.529 325.433 451.767 325.433C455.42 325.433 458.185 324.428 460.061 322.417C461.938 320.406 462.876 317.139 462.876 312.615V264.811H480.52ZM549.034 278.433H527.067V338H509.424V278.433H487.859V264.811H549.034V278.433Z" fill="white"/>
</svg>
