<?xml version="1.0" encoding="UTF-8" standalone="no"?>
<!-- Created with Inkscape (http://www.inkscape.org/) -->

<svg
   xmlns:dc="http://purl.org/dc/elements/1.1/"
   xmlns:cc="http://creativecommons.org/ns#"
   xmlns:rdf="http://www.w3.org/1999/02/22-rdf-syntax-ns#"
   xmlns:svg="http://www.w3.org/2000/svg"
   xmlns="http://www.w3.org/2000/svg"
   xmlns:sodipodi="http://sodipodi.sourceforge.net/DTD/sodipodi-0.dtd"
   xmlns:inkscape="http://www.inkscape.org/namespaces/inkscape"
   width="93.232697mm"
   height="103.18063mm"
   viewBox="0 0 93.232697 103.18062"
   version="1.1"
   id="svg8"
   inkscape:version="0.92.3 (2405546, 2018-03-11)"
   sodipodi:docname="tick_work_2.svg">
  <defs
     id="defs2">
    <clipPath
       clipPathUnits="userSpaceOnUse"
       id="clipPath20">
      <path
         d="M 0,8382.86 V 0 h 14670 v 8382.86 z"
         id="path18"
         inkscape:connector-curvature="0" />
    </clipPath>
    <clipPath
       clipPathUnits="userSpaceOnUse"
       id="clipPath424">
      <path
         d="m 2214.63,3080.89 c -12.14,0 -24.27,0.59 -36.39,1.78 -27.16,2.66 -57.08,8.57 -84.58,20.5 0,0 -55.48,21.5 -60.56,36.15 l -53.39,-16.89 -15.17,54.86 644.46,-13.72 -170.41,-44.69 -143.99,-29.71 c -26.35,-5.43 -53.15,-8.28 -79.97,-8.28"
         id="path422"
         inkscape:connector-curvature="0" />
    </clipPath>
    <clipPath
       clipPathUnits="userSpaceOnUse"
       id="clipPath434">
      <path
         d="M 0,8382.86 V 0 h 14670 v 8382.86 z"
         id="path432"
         inkscape:connector-curvature="0" />
    </clipPath>
    <clipPath
       clipPathUnits="userSpaceOnUse"
       id="clipPath82">
      <path
         d="M 4300,7250 H 2200 v 80 h 4420 v -60 H 4300 v -20"
         id="path80-1"
         inkscape:connector-curvature="0" />
    </clipPath>
    <clipPath
       clipPathUnits="userSpaceOnUse"
       id="clipPath94">
      <path
         d="m 8710,1960 h -300 v 5310 h 300 V 1960"
         id="path92-4"
         inkscape:connector-curvature="0" />
    </clipPath>
    <clipPath
       clipPathUnits="userSpaceOnUse"
       id="clipPath106">
      <path
         d="M 8410,1960 H 4410 v 60 h 2210 v 280.17 h 955.98 V 7048.41 H 6620 V 7270 H 8410 V 1960"
         id="path104-8"
         inkscape:connector-curvature="0" />
    </clipPath>
    <clipPath
       clipPathUnits="userSpaceOnUse"
       id="clipPath118">
      <path
         d="M 7575.98,2300.17 H 6620 v 120.27 h 795.58 V 6928.13 H 6620 v 120.28 h 955.98 V 2300.17"
         id="path116-9"
         inkscape:connector-curvature="0" />
    </clipPath>
    <clipPath
       clipPathUnits="userSpaceOnUse"
       id="clipPath130">
      <path
         d="m 6620,6331.54 v 596.59 h 795.58 L 6620,6331.54"
         id="path128-5"
         inkscape:connector-curvature="0" />
    </clipPath>
    <clipPath
       clipPathUnits="userSpaceOnUse"
       id="clipPath142">
      <path
         d="M 7415.58,2420.44 H 6620 v 3911.1 l 795.58,596.59 V 2420.44"
         id="path140-3"
         inkscape:connector-curvature="0" />
    </clipPath>
    <clipPath
       clipPathUnits="userSpaceOnUse"
       id="clipPath154">
      <path
         d="M 6620,2020 H 4410 v 280.17 H 6620 V 2020"
         id="path152-0"
         inkscape:connector-curvature="0" />
    </clipPath>
    <clipPath
       clipPathUnits="userSpaceOnUse"
       id="clipPath166">
      <path
         d="M 6620,2300.17 H 4410 v 120.27 h 2210 v -120.27"
         id="path164-7"
         inkscape:connector-curvature="0" />
    </clipPath>
    <clipPath
       clipPathUnits="userSpaceOnUse"
       id="clipPath178">
      <path
         d="M 6620,7048.41 H 4410 V 7250 h -110 v 20 h 2320 v -221.59"
         id="path176-7"
         inkscape:connector-curvature="0" />
    </clipPath>
    <clipPath
       clipPathUnits="userSpaceOnUse"
       id="clipPath190">
      <path
         d="M 6620,6928.13 H 4410 v 120.28 h 2210 v -120.28"
         id="path188-8"
         inkscape:connector-curvature="0" />
    </clipPath>
    <clipPath
       clipPathUnits="userSpaceOnUse"
       id="clipPath202">
      <path
         d="M 4410,4674.29 V 6928.13 H 6620 V 6331.54 L 4410,4674.29"
         id="path200-1"
         inkscape:connector-curvature="0" />
    </clipPath>
    <clipPath
       clipPathUnits="userSpaceOnUse"
       id="clipPath208">
      <path
         d="M 4405.63,6933.92 V 5315.96 h 1586.83 v 1617.96 z"
         id="path206-1"
         inkscape:connector-curvature="0" />
    </clipPath>
    <clipPath
       clipPathUnits="userSpaceOnUse"
       id="clipPath220">
      <path
         d="M 4410,4674.29 V 6928.13 H 6620 V 6331.54 L 4410,4674.29"
         id="path218-1"
         inkscape:connector-curvature="0" />
    </clipPath>
    <clipPath
       clipPathUnits="userSpaceOnUse"
       id="clipPath226">
      <path
         d="M 5987.66,6933.92 V 5961.7 h 636.17 v 972.22 z"
         id="path224-7"
         inkscape:connector-curvature="0" />
    </clipPath>
    <clipPath
       clipPathUnits="userSpaceOnUse"
       id="clipPath238">
      <path
         d="M 4410,4674.29 V 6928.13 H 6620 V 6331.54 L 4410,4674.29"
         id="path236-8"
         inkscape:connector-curvature="0" />
    </clipPath>
    <clipPath
       clipPathUnits="userSpaceOnUse"
       id="clipPath244">
      <path
         d="m 5987.66,5966.51 v -328.88 h 319.29 v 328.88 z"
         id="path242-8"
         inkscape:connector-curvature="0" />
    </clipPath>
    <clipPath
       clipPathUnits="userSpaceOnUse"
       id="clipPath256">
      <path
         d="M 4410,4674.29 V 6928.13 H 6620 V 6331.54 L 4410,4674.29"
         id="path254-1"
         inkscape:connector-curvature="0" />
    </clipPath>
    <clipPath
       clipPathUnits="userSpaceOnUse"
       id="clipPath262">
      <path
         d="m 4405.63,5320.76 v -650.55 h 636.17 v 650.55 z"
         id="path260-3"
         inkscape:connector-curvature="0" />
    </clipPath>
    <clipPath
       clipPathUnits="userSpaceOnUse"
       id="clipPath274">
      <path
         d="M 4410,4674.29 V 6928.13 H 6620 V 6331.54 L 4410,4674.29"
         id="path272-0"
         inkscape:connector-curvature="0" />
    </clipPath>
    <clipPath
       clipPathUnits="userSpaceOnUse"
       id="clipPath280">
      <path
         d="m 5037,5320.76 v -328.87 h 321.69 v 328.87 z"
         id="path278-5"
         inkscape:connector-curvature="0" />
    </clipPath>
    <clipPath
       clipPathUnits="userSpaceOnUse"
       id="clipPath292">
      <path
         d="M 6620,2420.44 H 4410 v 2253.85 l 2210,1657.25 v -3911.1"
         id="path290-7"
         inkscape:connector-curvature="0" />
    </clipPath>
    <clipPath
       clipPathUnits="userSpaceOnUse"
       id="clipPath298">
      <path
         d="M 5987.66,6336.19 V 2416.1 h 636.17 v 3920.09 z"
         id="path296-7"
         inkscape:connector-curvature="0" />
    </clipPath>
    <clipPath
       clipPathUnits="userSpaceOnUse"
       id="clipPath310">
      <path
         d="M 6620,2420.44 H 4410 v 2253.85 l 2210,1657.25 v -3911.1"
         id="path308-7"
         inkscape:connector-curvature="0" />
    </clipPath>
    <clipPath
       clipPathUnits="userSpaceOnUse"
       id="clipPath316">
      <path
         d="M 5670.77,5980.91 V 2416.1 h 321.69 v 3564.81 z"
         id="path314-6"
         inkscape:connector-curvature="0" />
    </clipPath>
    <clipPath
       clipPathUnits="userSpaceOnUse"
       id="clipPath328">
      <path
         d="M 6620,2420.44 H 4410 v 2253.85 l 2210,1657.25 v -3911.1"
         id="path326-2"
         inkscape:connector-curvature="0" />
    </clipPath>
    <clipPath
       clipPathUnits="userSpaceOnUse"
       id="clipPath334">
      <path
         d="M 5037,5623.23 V 2416.1 h 638.57 v 3207.13 z"
         id="path332-6"
         inkscape:connector-curvature="0" />
    </clipPath>
    <clipPath
       clipPathUnits="userSpaceOnUse"
       id="clipPath346">
      <path
         d="M 6620,2420.44 H 4410 v 2253.85 l 2210,1657.25 v -3911.1"
         id="path344-2"
         inkscape:connector-curvature="0" />
    </clipPath>
    <clipPath
       clipPathUnits="userSpaceOnUse"
       id="clipPath352">
      <path
         d="M 4722.51,5267.95 V 2416.1 h 319.29 v 2851.85 z"
         id="path350-0"
         inkscape:connector-curvature="0" />
    </clipPath>
    <clipPath
       clipPathUnits="userSpaceOnUse"
       id="clipPath364">
      <path
         d="M 6620,2420.44 H 4410 v 2253.85 l 2210,1657.25 v -3911.1"
         id="path362-1"
         inkscape:connector-curvature="0" />
    </clipPath>
    <clipPath
       clipPathUnits="userSpaceOnUse"
       id="clipPath370">
      <path
         d="M 4405.63,4912.67 V 2416.1 h 321.69 v 2496.57 z"
         id="path368-8"
         inkscape:connector-curvature="0" />
    </clipPath>
    <clipPath
       clipPathUnits="userSpaceOnUse"
       id="clipPath382">
      <path
         d="M 410,1950 H 0 V 7250 H 410 V 1950"
         id="path380-7"
         inkscape:connector-curvature="0" />
    </clipPath>
    <clipPath
       clipPathUnits="userSpaceOnUse"
       id="clipPath394">
      <path
         d="M 4410,1950 H 410 V 7250 H 2200 V 7048.41 H 1244.03 V 2300.17 H 2200 V 2020 h 2100 v -60 h 110 v -10"
         id="path392-0"
         inkscape:connector-curvature="0" />
    </clipPath>
    <clipPath
       clipPathUnits="userSpaceOnUse"
       id="clipPath406">
      <path
         d="M 2200,2300.17 H 1244.03 V 7048.41 H 2200 V 6928.13 H 1404.42 V 2420.44 H 2200 v -120.27"
         id="path404-3"
         inkscape:connector-curvature="0" />
    </clipPath>
    <clipPath
       clipPathUnits="userSpaceOnUse"
       id="clipPath418">
      <path
         d="m 1404.42,2420.44 v 0 4507.69 H 2200 V 3017.04 l -795.58,-596.6"
         id="path416-7"
         inkscape:connector-curvature="0" />
    </clipPath>
    <clipPath
       clipPathUnits="userSpaceOnUse"
       id="clipPath430">
      <path
         d="m 2200,2420.44 h -795.58 l 795.58,596.6 v -596.6"
         id="path428"
         inkscape:connector-curvature="0" />
    </clipPath>
    <clipPath
       clipPathUnits="userSpaceOnUse"
       id="clipPath442">
      <path
         d="M 4300,2020 H 2200 v 280.17 H 4300 V 2020"
         id="path440-3"
         inkscape:connector-curvature="0" />
    </clipPath>
    <clipPath
       clipPathUnits="userSpaceOnUse"
       id="clipPath454">
      <path
         d="M 4300,2300.17 H 2200 v 120.27 h 2100 v -120.27"
         id="path452-1"
         inkscape:connector-curvature="0" />
    </clipPath>
    <clipPath
       clipPathUnits="userSpaceOnUse"
       id="clipPath466">
      <path
         d="M 4300,7048.41 H 2200 V 7250 h 2100 v -201.59"
         id="path464-5"
         inkscape:connector-curvature="0" />
    </clipPath>
    <clipPath
       clipPathUnits="userSpaceOnUse"
       id="clipPath478">
      <path
         d="M 4300,6928.13 H 2200 v 120.28 h 2100 v -120.28"
         id="path476-3"
         inkscape:connector-curvature="0" />
    </clipPath>
    <clipPath
       clipPathUnits="userSpaceOnUse"
       id="clipPath490">
      <path
         d="M 2200,4792 H 4300 V 6929 H 2200 Z"
         id="path488-4"
         inkscape:connector-curvature="0" />
    </clipPath>
    <clipPath
       clipPathUnits="userSpaceOnUse"
       id="clipPath502">
      <path
         d="M 2200,3017.04 V 6928.13 H 4300 V 4591.8 L 2200,3017.04"
         id="path500-0"
         inkscape:connector-curvature="0" />
    </clipPath>
    <clipPath
       clipPathUnits="userSpaceOnUse"
       id="clipPath508">
      <path
         d="M 2194.2,4796.83 V 3726.27 h 1759.68 v 1070.56 z"
         id="path506-4"
         inkscape:connector-curvature="0" />
    </clipPath>
    <clipPath
       clipPathUnits="userSpaceOnUse"
       id="clipPath520">
      <path
         d="M 2200,3017.04 V 6928.13 H 4300 V 4591.8 L 2200,3017.04"
         id="path518-9"
         inkscape:connector-curvature="0" />
    </clipPath>
    <clipPath
       clipPathUnits="userSpaceOnUse"
       id="clipPath526">
      <path
         d="m 3949.08,4796.83 v -715.31 h 355.29 v 715.31 z"
         id="path524-6"
         inkscape:connector-curvature="0" />
    </clipPath>
    <clipPath
       clipPathUnits="userSpaceOnUse"
       id="clipPath538">
      <path
         d="M 2200,3017.04 V 6928.13 H 4300 V 4591.8 L 2200,3017.04"
         id="path536-6"
         inkscape:connector-curvature="0" />
    </clipPath>
    <clipPath
       clipPathUnits="userSpaceOnUse"
       id="clipPath544">
      <path
         d="m 2194.2,3731.07 v -717.71 h 705.79 v 717.71 z"
         id="path542-9"
         inkscape:connector-curvature="0" />
    </clipPath>
    <clipPath
       clipPathUnits="userSpaceOnUse"
       id="clipPath556">
      <path
         d="M 2200,3017.04 V 6928.13 H 4300 V 4591.8 L 2200,3017.04"
         id="path554-7"
         inkscape:connector-curvature="0" />
    </clipPath>
    <clipPath
       clipPathUnits="userSpaceOnUse"
       id="clipPath562">
      <path
         d="m 2895.19,3731.07 v -362.46 h 355.29 v 362.46 z"
         id="path560-2"
         inkscape:connector-curvature="0" />
    </clipPath>
    <clipPath
       clipPathUnits="userSpaceOnUse"
       id="clipPath574">
      <path
         d="M 4300,2420.44 H 2200 v 596.6 L 4300,4591.8 V 2420.44"
         id="path572-8"
         inkscape:connector-curvature="0" />
    </clipPath>
    <clipPath
       clipPathUnits="userSpaceOnUse"
       id="clipPath586">
      <path
         d="m 4410,1960 h -110 v 60 h 110 v -60"
         id="path584-3"
         inkscape:connector-curvature="0" />
    </clipPath>
    <clipPath
       clipPathUnits="userSpaceOnUse"
       id="clipPath598">
      <path
         d="m 4410,2020 h -110 v 280.17 h 110 V 2020"
         id="path596-9"
         inkscape:connector-curvature="0" />
    </clipPath>
    <clipPath
       clipPathUnits="userSpaceOnUse"
       id="clipPath610">
      <path
         d="m 4410,2300.17 h -110 v 120.27 h 110 v -120.27"
         id="path608-7"
         inkscape:connector-curvature="0" />
    </clipPath>
    <clipPath
       clipPathUnits="userSpaceOnUse"
       id="clipPath622">
      <path
         d="M 4410,7048.41 H 4300 V 7250 h 110 v -201.59"
         id="path620-5"
         inkscape:connector-curvature="0" />
    </clipPath>
    <clipPath
       clipPathUnits="userSpaceOnUse"
       id="clipPath634">
      <path
         d="m 4410,6928.13 h -110 v 120.28 h 110 v -120.28"
         id="path632-3"
         inkscape:connector-curvature="0" />
    </clipPath>
    <clipPath
       clipPathUnits="userSpaceOnUse"
       id="clipPath646">
      <path
         d="m 4300,4591.8 v 2336.33 h 110 V 4674.29 l -110,-82.49"
         id="path644-6"
         inkscape:connector-curvature="0" />
    </clipPath>
    <clipPath
       clipPathUnits="userSpaceOnUse"
       id="clipPath658">
      <path
         d="M 4410,2420.44 H 4300 V 4591.8 l 110,82.49 V 2420.44"
         id="path656-9"
         inkscape:connector-curvature="0" />
    </clipPath>
    <clipPath
       clipPathUnits="userSpaceOnUse"
       id="clipPath610-6">
      <path
         inkscape:connector-curvature="0"
         d="m 4410,2300.17 h -110 v 120.27 h 110 v -120.27"
         id="path608-7-8" />
    </clipPath>
    <clipPath
       clipPathUnits="userSpaceOnUse"
       id="clipPath598-2">
      <path
         inkscape:connector-curvature="0"
         d="m 4410,2020 h -110 v 280.17 h 110 V 2020"
         id="path596-9-1" />
    </clipPath>
    <clipPath
       clipPathUnits="userSpaceOnUse"
       id="clipPath586-4">
      <path
         inkscape:connector-curvature="0"
         d="m 4410,1960 h -110 v 60 h 110 v -60"
         id="path584-3-8" />
    </clipPath>
    <clipPath
       clipPathUnits="userSpaceOnUse"
       id="clipPath20-9">
      <path
         d="M 0,8382.86 V 0 h 14670 v 8382.86 z"
         id="path18-4"
         inkscape:connector-curvature="0" />
    </clipPath>
    <clipPath
       clipPathUnits="userSpaceOnUse"
       id="clipPath424-1">
      <path
         d="m 2214.63,3080.89 c -12.14,0 -24.27,0.59 -36.39,1.78 -27.16,2.66 -57.08,8.57 -84.58,20.5 0,0 -55.48,21.5 -60.56,36.15 l -53.39,-16.89 -15.17,54.86 644.46,-13.72 -170.41,-44.69 -143.99,-29.71 c -26.35,-5.43 -53.15,-8.28 -79.97,-8.28"
         id="path422-6"
         inkscape:connector-curvature="0" />
    </clipPath>
    <clipPath
       clipPathUnits="userSpaceOnUse"
       id="clipPath434-6">
      <path
         d="M 0,8382.86 V 0 h 14670 v 8382.86 z"
         id="path432-2"
         inkscape:connector-curvature="0" />
    </clipPath>
    <clipPath
       clipPathUnits="userSpaceOnUse"
       id="clipPath20-1">
      <path
         d="M 0,5962.8 V 0 h 5962.8 v 5962.8 z"
         id="path18-1"
         inkscape:connector-curvature="0" />
    </clipPath>
    <clipPath
       clipPathUnits="userSpaceOnUse"
       id="clipPath296">
      <path
         d="M 2829.92,3705.5 H 1552.88 v 64.27 h 1277.04 v -64.27"
         id="path294" />
    </clipPath>
  </defs>
  <sodipodi:namedview
     id="base"
     pagecolor="#ffffff"
     bordercolor="#666666"
     borderopacity="1.0"
     inkscape:pageopacity="0.0"
     inkscape:pageshadow="2"
     inkscape:zoom="1.28"
     inkscape:cx="71.335746"
     inkscape:cy="369.82843"
     inkscape:document-units="mm"
     inkscape:current-layer="layer1"
     showgrid="false"
     fit-margin-top="0"
     fit-margin-left="0"
     fit-margin-right="0"
     fit-margin-bottom="0"
     inkscape:window-width="1920"
     inkscape:window-height="1001"
     inkscape:window-x="-9"
     inkscape:window-y="-9"
     inkscape:window-maximized="1" />
  <metadata
     id="metadata5">
    <rdf:RDF>
      <cc:Work
         rdf:about="">
        <dc:format>image/svg+xml</dc:format>
        <dc:type
           rdf:resource="http://purl.org/dc/dcmitype/StillImage" />
        <dc:title></dc:title>
      </cc:Work>
    </rdf:RDF>
  </metadata>
  <g
     inkscape:label="Layer 1"
     inkscape:groupmode="layer"
     id="layer1"
     transform="translate(1762.6251,3033.4972)">
    <path
       d="m -1718.378,-2946.9491 v -70.0372 c 0,-3.2871 -2.6647,-5.9514 -5.9514,-5.9514 -2.1902,0 -4.0984,1.1865 -5.1315,2.9473 -1.5465,-0.911 -3.3425,-1.443 -5.2669,-1.443 -5.4424,0 -9.9013,4.1823 -10.3537,9.5074 -0.4708,-0.088 -0.9545,-0.1416 -1.4507,-0.1416 -4.3447,0 -7.867,3.5223 -7.867,7.8669 0,0.891 0.1559,1.7421 0.4269,2.5396 -4.7572,2.9621 -7.9338,8.2242 -7.9338,14.241 0,5.9936 3.1524,11.2388 7.8805,14.2061 -1.4116,2.2681 -2.2408,4.936 -2.2408,7.8037 0,8.1743 6.627,14.8013 14.802,14.8013 0.3765,0 0.7457,-0.03 1.115,-0.058 v 0.058 c 0,4.2135 3.4156,7.6287 7.63,7.6287 1.9359,0 3.6984,-0.7264 5.0436,-1.9158 0.7769,1.6684 2.4564,2.8312 4.4172,2.8312 2.697,0 4.8833,-2.1865 4.8833,-4.8837 v 0"
       style="fill:#ff9900;fill-opacity:1;fill-rule:nonzero;stroke:none;stroke-width:0.09155791"
       id="path70-3"
       inkscape:connector-curvature="0" />
    <path
       d="m -1714.9057,-2946.9491 v -70.0372 c 0,-3.2871 2.6641,-5.9514 5.9513,-5.9514 2.1887,0 4.0975,1.1865 5.1306,2.9473 1.5463,-0.911 3.3427,-1.443 5.2679,-1.443 5.4418,0 9.9004,4.1823 10.353,9.5074 0.4715,-0.088 0.9543,-0.1416 1.4511,-0.1416 4.3434,0 7.8665,3.5223 7.8665,7.8669 0,0.891 -0.1543,1.7421 -0.4274,2.5396 4.7578,2.9621 7.9348,8.2242 7.9348,14.241 0,5.9936 -3.1534,11.2388 -7.881,14.2061 1.4115,2.2681 2.2403,4.936 2.2403,7.8037 0,8.1743 -6.6274,14.8013 -14.8011,14.8013 -0.3775,0 -0.7456,-0.03 -1.1156,-0.058 v 0.058 c 0,4.2135 -3.4169,7.6287 -7.6305,7.6287 -1.9367,0 -3.6985,-0.7264 -5.044,-1.9158 -0.7767,1.6684 -2.456,2.8312 -4.4178,2.8312 -2.6965,0 -4.8829,-2.1865 -4.8829,-4.8837 v 0"
       style="fill:#ff9900;fill-opacity:1;fill-rule:nonzero;stroke:none;stroke-width:0.09155791"
       id="path72-9"
       inkscape:connector-curvature="0" />
    <path
       d="m -1747.1808,-3001.2878 c -1.9878,0 -3.6051,-1.618 -3.6051,-3.6047 0,-1.9879 1.6173,-3.6054 3.6051,-3.6054 1.9877,0 3.6048,1.6175 3.6048,3.6054 0,1.9867 -1.6171,3.6047 -3.6048,3.6047"
       style="fill:#ffffff;fill-opacity:1;fill-rule:nonzero;stroke:none;stroke-width:0.09155791"
       id="path74-1"
       inkscape:connector-curvature="0" />
    <path
       d="m -1745.4068,-3004.8925 c 0,0.9787 -0.7947,1.7734 -1.774,1.7734 -0.9798,0 -1.7738,-0.7947 -1.7738,-1.7734 0,-0.9797 0.794,-1.7745 1.7738,-1.7745 0.9793,0 1.774,0.7948 1.774,1.7745"
       style="fill:#ffffff;fill-opacity:1;fill-rule:nonzero;stroke:none;stroke-width:0.09155791"
       id="path76-0"
       inkscape:connector-curvature="0" />
    <path
       d="m -1742.9464,-2961.0024 c -1.9874,0 -3.605,-1.6178 -3.605,-3.6047 0,-1.9874 1.6176,-3.6053 3.605,-3.6053 1.9879,0 3.605,1.6179 3.605,3.6053 0,1.9869 -1.6171,3.6047 -3.605,3.6047"
       style="fill:#ffffff;fill-opacity:1;fill-rule:nonzero;stroke:none;stroke-width:0.09155791"
       id="path78-6"
       inkscape:connector-curvature="0" />
    <path
       d="m -1741.1726,-2964.6071 c 0,0.979 -0.7942,1.7737 -1.7738,1.7737 -0.9796,0 -1.7737,-0.7947 -1.7737,-1.7737 0,-0.9794 0.7941,-1.7745 1.7737,-1.7745 0.9796,0 1.7738,0.7951 1.7738,1.7745"
       style="fill:#ffffff;fill-opacity:1;fill-rule:nonzero;stroke:none;stroke-width:0.09155791"
       id="path80-4"
       inkscape:connector-curvature="0" />
    <path
       d="m -1727.5532,-2987.4965 c 0,0.9787 -0.7945,1.7734 -1.7741,1.7734 -0.9795,0 -1.7741,-0.7947 -1.7741,-1.7734 0,-0.9796 0.7946,-1.7743 1.7741,-1.7743 0.9796,0 1.7741,0.7947 1.7741,1.7743"
       style="fill:#ffffff;fill-opacity:1;fill-rule:nonzero;stroke:none;stroke-width:0.09155791"
       id="path82-2"
       inkscape:connector-curvature="0" />
    <path
       d="m -1723.5477,-3006.7236 c 0,0.9788 -0.7943,1.7735 -1.7739,1.7735 -0.9796,0 -1.774,-0.7947 -1.774,-1.7735 0,-0.9799 0.7944,-1.7743 1.774,-1.7743 0.9796,0 1.7739,0.7944 1.7739,1.7743"
       style="fill:#ffffff;fill-opacity:1;fill-rule:nonzero;stroke:none;stroke-width:0.09155791"
       id="path84-4"
       inkscape:connector-curvature="0" />
    <path
       d="m -1723.5477,-2973.5341 c 0,0.9789 -0.7943,1.7738 -1.7739,1.7738 -0.9796,0 -1.774,-0.7949 -1.774,-1.7738 0,-0.9793 0.7944,-1.7741 1.774,-1.7741 0.9796,0 1.7739,0.7948 1.7739,1.7741"
       style="fill:#ffffff;fill-opacity:1;fill-rule:nonzero;stroke:none;stroke-width:0.09155791"
       id="path86-3"
       inkscape:connector-curvature="0" />
    <path
       d="m -1730.2999,-2951.1031 c 0,0.9794 -0.7944,1.7743 -1.774,1.7743 -0.9795,0 -1.7739,-0.7949 -1.7739,-1.7743 0,-0.9787 0.7944,-1.7736 1.7739,-1.7736 0.9796,0 1.774,0.7949 1.774,1.7736"
       style="fill:#ffffff;fill-opacity:1;fill-rule:nonzero;stroke:none;stroke-width:0.09155791"
       id="path88-2"
       inkscape:connector-curvature="0" />
    <path
       d="m -1742.4884,-2964.6071 v -13.8993 l 7.8307,-8.5324 h 5.788 v -7.8208 h -17.8536 v -10.0329 h -0.9155 v 10.9484 h 17.8537 v 5.9898 h -5.2747 l -8.3443,9.0917 v 14.2555 h 0.9157"
       style="fill:#ffffff;fill-opacity:1;fill-rule:nonzero;stroke:none;stroke-width:0.09155791"
       id="path90-7"
       inkscape:connector-curvature="0" />
    <path
       d="m -1732.0361,-2951.1031 v -13.6814 l 7.1724,-8.5837 v -33.3554 h -0.9156 v 33.0228 l -7.1723,8.5837 v 14.014 h 0.9155"
       style="fill:#ffffff;fill-opacity:1;fill-rule:nonzero;stroke:none;stroke-width:0.09155791"
       id="path92-6"
       inkscape:connector-curvature="0" />
    <path
       d="m -1699.2274,-2983.892 c 1.9875,0 3.6051,-1.6177 3.6051,-3.6045 0,-1.9878 -1.6176,-3.6056 -3.6051,-3.6056 -1.9878,0 -3.6053,1.6178 -3.6053,3.6056 0,1.9868 1.6175,3.6045 3.6053,3.6045"
       style="fill:#ffffff;fill-opacity:1;fill-rule:nonzero;stroke:none;stroke-width:0.09155791"
       id="path94-3"
       inkscape:connector-curvature="0" />
    <path
       d="m -1688.5266,-3004.8925 c 0,0.9787 0.7952,1.7734 1.7738,1.7734 0.979,0 1.774,-0.7947 1.774,-1.7734 0,-0.9797 -0.795,-1.7745 -1.774,-1.7745 -0.9786,0 -1.7738,0.7948 -1.7738,1.7745"
       style="fill:#ffffff;fill-opacity:1;fill-rule:nonzero;stroke:none;stroke-width:0.09155791"
       id="path96-6"
       inkscape:connector-curvature="0" />
    <path
       d="m -1690.9873,-2961.0024 c 1.9877,0 3.6051,-1.6178 3.6051,-3.6047 0,-1.9874 -1.6174,-3.6053 -3.6051,-3.6053 -1.9874,0 -3.6052,1.6179 -3.6052,3.6053 0,1.9869 1.6178,3.6047 3.6052,3.6047"
       style="fill:#ffffff;fill-opacity:1;fill-rule:nonzero;stroke:none;stroke-width:0.09155791"
       id="path98-5"
       inkscape:connector-curvature="0" />
    <path
       d="m -1692.7611,-2964.6071 c 0,0.979 0.7951,1.7737 1.7738,1.7737 0.979,0 1.774,-0.7947 1.774,-1.7737 0,-0.9794 -0.795,-1.7745 -1.774,-1.7745 -0.9787,0 -1.7738,0.7951 -1.7738,1.7745"
       style="fill:#ffffff;fill-opacity:1;fill-rule:nonzero;stroke:none;stroke-width:0.09155791"
       id="path100-5"
       inkscape:connector-curvature="0" />
    <path
       d="m -1701.0014,-2987.4965 c 0,0.9787 0.7952,1.7734 1.774,1.7734 0.9788,0 1.7739,-0.7947 1.7739,-1.7734 0,-0.9796 -0.7951,-1.7743 -1.7739,-1.7743 -0.9788,0 -1.774,0.7947 -1.774,1.7743"
       style="fill:#ffffff;fill-opacity:1;fill-rule:nonzero;stroke:none;stroke-width:0.09155791"
       id="path102-3"
       inkscape:connector-curvature="0" />
    <path
       d="m -1710.3861,-3006.7236 c 0,0.9788 0.7952,1.7735 1.7738,1.7735 0.979,0 1.774,-0.7947 1.774,-1.7735 0,-0.9799 -0.795,-1.7743 -1.774,-1.7743 -0.9786,0 -1.7738,0.7944 -1.7738,1.7743"
       style="fill:#ffffff;fill-opacity:1;fill-rule:nonzero;stroke:none;stroke-width:0.09155791"
       id="path104-1"
       inkscape:connector-curvature="0" />
    <path
       d="m -1710.3861,-2973.5341 c 0,0.9789 0.7952,1.7738 1.7738,1.7738 0.979,0 1.774,-0.7949 1.774,-1.7738 0,-0.9793 -0.795,-1.7741 -1.774,-1.7741 -0.9786,0 -1.7738,0.7948 -1.7738,1.7741"
       style="fill:#ffffff;fill-opacity:1;fill-rule:nonzero;stroke:none;stroke-width:0.09155791"
       id="path106-9"
       inkscape:connector-curvature="0" />
    <path
       d="m -1703.6335,-2951.1031 c 0,0.9794 0.7949,1.7743 1.7739,1.7743 0.9785,0 1.7736,-0.7949 1.7736,-1.7743 0,-0.9787 -0.7951,-1.7736 -1.7736,-1.7736 -0.979,0 -1.7739,0.7949 -1.7739,1.7736"
       style="fill:#ffffff;fill-opacity:1;fill-rule:nonzero;stroke:none;stroke-width:0.09155791"
       id="path108-6"
       inkscape:connector-curvature="0" />
    <path
       d="m -1690.5295,-2964.6071 v -14.2555 l -8.344,-9.0917 h -0.3539 v 0.4578 h 0.4577 v -16.9381 h 12.0169 v -0.9157 h -12.9324 v 18.3115 h 0.4095 l 7.8304,8.5324 v 13.8993 h 0.9158"
       style="fill:#ffffff;fill-opacity:1;fill-rule:nonzero;stroke:none;stroke-width:0.09155791"
       id="path110-2"
       inkscape:connector-curvature="0" />
    <path
       d="m -1700.9825,-2951.1031 v -14.014 l -7.1719,-8.5837 v -33.0228 h -0.9156 v 33.3554 l 7.1718,8.5837 v 13.6814 h 0.9157"
       style="fill:#ffffff;fill-opacity:1;fill-rule:nonzero;stroke:none;stroke-width:0.09155791"
       id="path112-0"
       inkscape:connector-curvature="0" />
  </g>
</svg>
