<?xml version="1.0" ?><svg height="16" width="32" xmlns="http://www.w3.org/2000/svg"><path d="M8 15.999h2v-12.594c-.75.212-1.426.597-2 1.103v11.491zm-4-8.52v8.506l.129.014h1.871v-8.533h-1.871l-.129.013zm-4 4.252c0 1.549.806 2.892 2 3.641v-7.278c-1.194.748-2 2.091-2 3.637zm12 4.268h2v-12.039c-.598-.373-1.275-.619-2-.714v12.753zm15.871-8.533h-1.125c.057-.348.093-.701.093-1.066 0-3.535-2.773-6.4-6.194-6.4-1.856 0-3.51.854-4.645 2.192v13.807h11.871c2.279 0 4.129-1.91 4.129-4.268 0-2.356-1.85-4.265-4.129-4.265z" fill="#f70"/></svg>