<?xml version="1.0" standalone="no"?>
<!DOCTYPE svg PUBLIC "-//W3C//DTD SVG 1.1//EN" "http://www.w3.org/Graphics/SVG/1.1/DTD/svg11.dtd" >
<svg xmlns="http://www.w3.org/2000/svg" xmlns:xlink="http://www.w3.org/1999/xlink" version="1.1">
<metadata></metadata>
<defs>
<font id="amazon_emberbold" horiz-adv-x="1200" >
<font-face units-per-em="2048" ascent="1638" descent="-410" />
<missing-glyph horiz-adv-x="536" />
<glyph unicode="&#xfb01;" horiz-adv-x="1345" d="M29 825v185l166 30v95q0 410 378 409q100 0 185 -37v-202q-57 8 -105 8q-90 0 -124.5 -32t-34.5 -107v-127h700v-1047h-299v825h-401v-825h-299v825h-166zM872 1368q0 74 47.5 117t124.5 43q78 0 125.5 -43t47.5 -117t-47.5 -117t-125.5 -43t-125 43t-47 117z" />
<glyph unicode="&#xfb02;" horiz-adv-x="1409" d="M29 825v185l166 30v95q0 410 378 409q100 0 185 -37v-202q-57 8 -105 8q-90 0 -124.5 -32t-34.5 -107v-127h264v-222h-264v-825h-299v825h-166zM887 295v1221h299v-1197q0 -57 19.5 -80.5t64.5 -23.5q29 0 78 6v-201q-86 -35 -185 -34q-276 0 -276 309z" />
<glyph unicode="&#xfb03;" horiz-adv-x="2045" d="M29 825v185l166 30v95q0 410 378 409q100 0 185 -37v-202q-57 8 -105 8q-90 0 -124.5 -32t-34.5 -107v-127h401v88q0 410 379 409q100 0 184 -37v-202q-57 8 -104 8q-90 0 -125 -32t-35 -107v-127h700v-1047h-299v825h-401v-825h-299v825h-401v-825h-299v825h-166z M1573 1368q0 74 47 117t125 43t125 -43t47 -117t-47 -117t-125 -43t-125 43t-47 117z" />
<glyph unicode="&#xfb04;" horiz-adv-x="2109" d="M29 825v185l166 30v95q0 410 378 409q100 0 185 -37v-202q-57 8 -105 8q-90 0 -124.5 -32t-34.5 -107v-127h401v88q0 410 379 409q100 0 184 -37v-202q-57 8 -104 8q-90 0 -125 -32t-35 -107v-127h264v-222h-264v-825h-299v825h-401v-825h-299v825h-166zM1587 295v1221 h299v-1197q0 -57 19.5 -80.5t64.5 -23.5q29 0 78 6v-201q-86 -35 -184 -34q-276 0 -277 309z" />
<glyph unicode="&#xd;" horiz-adv-x="536" />
<glyph horiz-adv-x="0" />
<glyph horiz-adv-x="0" />
<glyph unicode=" "  horiz-adv-x="536" />
<glyph unicode="&#x09;" horiz-adv-x="536" />
<glyph unicode="&#xa0;" horiz-adv-x="536" />
<glyph unicode="!" horiz-adv-x="606" d="M119 158q0 82 51 133t133 51t133 -51t51 -133t-51 -133.5t-133 -51.5t-133 51.5t-51 133.5zM139 1415q82 39 164 39t164 -39l-45 -942h-238z" />
<glyph unicode="&#x22;" horiz-adv-x="925" d="M115 1413q63 35 139 35t139 -35l-37 -528h-204zM533 1413q63 35 139 35t139 -35l-37 -528h-204z" />
<glyph unicode="#" d="M33 350v197h200l52 332h-191v196h221l56 344h213l-56 -344h256l56 344h213l-56 -344h170v-196h-200l-52 -332h191v-197h-221l-56 -350h-213l56 350h-256l-56 -350h-213l56 350h-170zM446 547h256l52 332h-256z" />
<glyph unicode="$" d="M113 1006q0 174 112.5 288.5t296.5 130.5v248h152v-250q160 -16 309 -100v-229q-170 88 -309 106v-393l71 -27q186 -68 266.5 -155.5t80.5 -218.5q0 -170 -114 -284t-304 -136v-252h-152v250q-223 16 -391 125v229q147 -68 233.5 -96.5t157.5 -34.5v395l-82 31 q-172 63 -249.5 152t-77.5 221zM369 1024q0 -59 35.5 -100t117.5 -74v352q-72 -10 -112.5 -58t-40.5 -120zM674 209q68 8 112.5 59t44.5 119q0 61 -36.5 101t-120.5 71v-350z" />
<glyph unicode="%" horiz-adv-x="1925" d="M66 1011q0 203 93 313.5t261 110.5t261 -110.5t93 -308.5q0 -203 -93 -313.5t-261 -110.5t-261 110.5t-93 308.5zM287 1016q0 -129 32.5 -190.5t100.5 -61.5q133 0 133 247q0 129 -33 190.5t-100 61.5q-133 0 -133 -247zM512 0l680 1419h222l-680 -1419h-222zM1151 403 q0 203 93 313.5t261 110.5t261 -110.5t93 -308.5q0 -203 -93 -313.5t-261 -110.5t-261 110.5t-93 308.5zM1372 408q0 -129 32.5 -190.5t100.5 -61.5q133 0 133 247q0 129 -33 190.5t-100 61.5q-133 0 -133 -247z" />
<glyph unicode="&#x26;" horiz-adv-x="1523" d="M68 369q0 279 294 403q-98 117 -133.5 188.5t-35.5 157.5q0 154 115.5 245t309.5 91q195 0 310.5 -83t115.5 -224q0 -113 -78.5 -216.5t-217.5 -172.5l-35 -19l291 -319q74 131 73 315v60h246v-80q0 -133 -39 -253t-113 -216q53 -37 158 -37q63 0 129 8v-194 q-35 -16 -96.5 -27.5t-114.5 -11.5q-74 0 -133 23.5t-119 74.5q-180 -117 -415 -117q-244 0 -378 105.5t-134 298.5zM342 389q0 -199 248 -199q133 0 235 54l-342 393q-68 -45 -104.5 -108.5t-36.5 -139.5zM451 1110q0 -53 24.5 -95t118.5 -145l37 19q78 41 121 102.5 t43 128.5q0 63 -47.5 101.5t-124.5 38.5q-80 0 -126 -40t-46 -110z" />
<glyph unicode="'" horiz-adv-x="507" d="M115 1413q63 35 139 35t139 -35l-37 -528h-204z" />
<glyph unicode="(" horiz-adv-x="718" d="M119 625q0 250 73.5 487.5t213.5 431.5h284q-123 -190 -189.5 -427.5t-66.5 -491.5t66.5 -491.5t189.5 -428.5h-284q-139 195 -213 431.5t-74 488.5z" />
<glyph unicode=")" horiz-adv-x="718" d="M29 -295q123 190 189.5 428t66.5 492t-66.5 491.5t-189.5 427.5h284q139 -195 213 -432.5t74 -486.5q0 -252 -73.5 -488.5t-213.5 -431.5h-284z" />
<glyph unicode="*" horiz-adv-x="827" d="M66 1106q0 94 71 162l207 -113l-39 248q53 27 109 27q55 0 108 -27l-39 -248l207 113q72 -68 72 -162q0 -20 -4 -41l-230 -41l189 -184q-29 -53 -75 -87t-101 -42l-127 241l-127 -241q-55 8 -101.5 41.5t-74.5 87.5l188 184l-229 41q-4 20 -4 41z" />
<glyph unicode="+" d="M123 596v229h350v373h254v-373h350v-229h-350v-373h-254v373h-350z" />
<glyph unicode="," horiz-adv-x="581" d="M49 -326l121 641h86q100 0 143 -25.5t43 -84.5q0 -45 -36 -135l-160 -396h-197z" />
<glyph unicode="-" horiz-adv-x="823" d="M86 406v245h651v-245h-651z" />
<glyph unicode="." horiz-adv-x="581" d="M106 158q0 82 51.5 133t133.5 51t133 -51t51 -133t-51 -133.5t-133 -51.5t-133.5 51.5t-51.5 133.5z" />
<glyph unicode="/" horiz-adv-x="1056" d="M29 -295l698 1839h301l-698 -1839h-301z" />
<glyph unicode="0" d="M61 713q0 356 140.5 548.5t398.5 192.5t398.5 -192.5t140.5 -548.5q0 -358 -139.5 -551t-399.5 -193t-399.5 192.5t-139.5 551.5zM369 713q0 -268 53 -383t178 -115t178 114.5t53 383.5q0 266 -53 380.5t-178 114.5t-178 -114.5t-53 -380.5z" />
<glyph unicode="1" d="M190 1006v233l400 180h268v-1419h-303v1120z" />
<glyph unicode="2" d="M113 0v221q262 264 392 412.5t180 239t50 165.5q0 78 -47 122t-127 44q-90 0 -196.5 -41t-214.5 -116v243q115 88 224 126t242 38q195 0 313 -108.5t118 -286.5q0 -106 -59.5 -221t-188.5 -259.5t-346 -340.5h651v-238h-991z" />
<glyph unicode="3" d="M125 53v232q229 -78 377 -78q131 0 199.5 56t68.5 165q0 96 -63.5 142t-196.5 46q-27 0 -91.5 -5t-99.5 -9v189l367 395h-543v233h865v-225l-361 -367q197 -10 309.5 -116.5t112.5 -280.5q0 -135 -66.5 -239.5t-193.5 -163t-297 -58.5q-193 0 -387 84z" />
<glyph unicode="4" d="M45 281v219l643 919h279v-909h180v-229h-180v-281h-260v281h-662zM326 510h381v545z" />
<glyph unicode="5" d="M117 55v230q242 -78 405 -78q127 0 192.5 57.5t65.5 167.5q0 111 -65.5 163t-202.5 52q-152 0 -336 -20v184l37 608h805v-233h-553l-23 -336q84 20 176 20q211 0 338 -117.5t127 -314.5q0 -135 -65.5 -241.5t-190.5 -167t-290 -60.5q-223 0 -420 86z" />
<glyph unicode="6" d="M84 657q0 246 70.5 425.5t207 275.5t328.5 96q90 0 184.5 -20.5t159.5 -55.5v-213q-61 25 -148 40.5t-159 15.5q-168 0 -251 -104.5t-95 -334.5q162 86 321 86q190 0 307 -113.5t117 -299.5q0 -141 -63.5 -251t-181 -172.5t-275.5 -62.5q-260 0 -391 173t-131 515z M383 592q4 -205 59.5 -297t175.5 -92q209 0 209 223q0 104 -57 160.5t-166 56.5q-100 0 -221 -51z" />
<glyph unicode="7" d="M80 1182v237h1014v-223l-510 -1196h-326l533 1182h-711z" />
<glyph unicode="8" d="M78 352q0 121 68.5 222.5t189.5 156.5q-104 59 -153.5 136t-49.5 184q0 182 128 292.5t339 110.5q209 0 340 -105.5t131 -273.5q0 -106 -59.5 -194t-161.5 -140q145 -70 208.5 -150.5t63.5 -201.5q0 -199 -137 -309.5t-387 -110.5q-242 0 -381 102.5t-139 280.5zM365 410 q0 -106 60 -160.5t177 -54.5q113 0 173.5 51t60.5 145q0 72 -52.5 119t-197.5 108l-88 37q-63 -47 -98 -109.5t-35 -135.5zM412 1067q0 -72 48 -126t152 -97l76 -33q104 98 105 227q0 98 -50.5 150.5t-146.5 52.5q-90 0 -137 -45t-47 -129z" />
<glyph unicode="9" d="M80 961q0 139 61.5 250.5t178 177t270.5 65.5q254 0 387 -174t133 -508q0 -391 -153.5 -597t-446.5 -206q-102 0 -204.5 27t-170.5 70v213q76 -33 174.5 -54.5t171.5 -21.5q162 0 237 94t89 311q-150 -84 -303 -84q-195 0 -309.5 118t-114.5 319zM379 989 q0 -239 217 -239q104 0 215 49v2q0 217 -55.5 318.5t-171.5 101.5q-96 0 -150.5 -61.5t-54.5 -170.5z" />
<glyph unicode=":" horiz-adv-x="581" d="M106 158q0 82 51.5 133t133.5 51t133 -51t51 -133t-51 -133.5t-133 -51.5t-133.5 51.5t-51.5 133.5zM106 885q0 82 51.5 133t133.5 51t133 -51t51 -133t-51 -133.5t-133 -51.5t-133.5 51.5t-51.5 133.5z" />
<glyph unicode=";" horiz-adv-x="581" d="M49 -326l121 641h86q100 0 143 -25.5t43 -84.5q0 -45 -36 -135l-160 -396h-197zM106 885q0 82 51.5 133t133.5 51t133 -51t51 -133t-51 -133.5t-133 -51.5t-133.5 51.5t-51.5 133.5z" />
<glyph unicode="&#x3c;" d="M139 594v233l922 385v-262l-643 -237l643 -236v-268z" />
<glyph unicode="=" d="M123 375v229h954v-229h-954zM123 825v229h954v-229h-954z" />
<glyph unicode="&#x3e;" d="M139 209v262l643 238l-643 235v268l922 -385v-233z" />
<glyph unicode="?" horiz-adv-x="909" d="M63 1130v228q176 96 377 96q195 0 304.5 -96t109.5 -264q0 -141 -82 -246t-266 -201v-174h-234l-24 277l106 57q113 59 161 117.5t48 138.5q0 74 -46 114t-132 40q-143 0 -322 -87zM209 158q0 82 51 133t133 51t133.5 -51t51.5 -133t-51.5 -133.5t-133.5 -51.5t-133 51.5 t-51 133.5z" />
<glyph unicode="@" horiz-adv-x="1996" d="M90 340q0 287 127 524.5t362.5 379.5t536.5 142q371 0 581 -197.5t210 -547.5q0 -188 -59.5 -337.5t-170 -236.5t-254.5 -87q-94 0 -163.5 34.5t-104.5 98.5q-53 -61 -133 -99.5t-160 -38.5q-154 0 -235.5 96.5t-81.5 276.5q0 154 60.5 294t167 230.5t228.5 90.5 q145 0 232 -109l31 78h209l-109 -635q-6 -39 -6 -55q0 -35 21.5 -54.5t60.5 -19.5q63 0 117.5 58.5t87 167t32.5 245.5q0 262 -146.5 400.5t-422.5 138.5q-213 0 -387 -103.5t-277.5 -294t-103.5 -436.5q0 -281 143.5 -431.5t411.5 -150.5q162 0 352 60v-193 q-170 -76 -377 -75q-242 0 -416.5 92t-269 269t-94.5 425zM815 373q0 -201 143 -201q92 0 166 90q0 23 6 68l68 399q-70 37 -137 37q-63 0 -119.5 -50t-91.5 -141.5t-35 -201.5z" />
<glyph unicode="A" horiz-adv-x="1361" d="M12 0l500 1419h338l500 -1419h-334l-101 324h-485l-96 -324h-322zM496 545h356l-180 594z" />
<glyph unicode="B" horiz-adv-x="1294" d="M164 0v1419h510q205 0 330.5 -104.5t125.5 -272.5q0 -104 -48 -179t-142 -115q131 -39 199.5 -128.5t68.5 -218.5q0 -184 -137 -292.5t-369 -108.5h-538zM455 219h241q209 0 209 197q0 202 -221 202h-2h-227v-399zM455 827h178q198 0 198 183q0 190 -182 190h-194v-373z " />
<glyph unicode="C" horiz-adv-x="1259" d="M123 702q0 354 186.5 549t524.5 195q180 0 342 -57v-242q-186 41 -306 41q-213 0 -318.5 -112.5t-105.5 -344.5v-47q0 -229 102.5 -341t313.5 -112q119 0 334 48v-242q-166 -63 -371 -64q-346 0 -524 185.5t-178 543.5z" />
<glyph unicode="D" horiz-adv-x="1456" d="M164 0v1419h510q317 0 488 -183t171 -525q0 -340 -171 -525.5t-482 -185.5h-516zM471 238h176q371 0 371 452v41q0 451 -373 451h-174v-944z" />
<glyph unicode="E" horiz-adv-x="1183" d="M164 0v1419h934v-237h-627v-336h510v-238h-510v-370h627v-238h-934z" />
<glyph unicode="F" horiz-adv-x="1105" d="M164 0v1419h893v-237h-586v-357h467v-237h-467v-588h-307z" />
<glyph unicode="G" horiz-adv-x="1452" d="M123 694q0 365 185.5 556.5t537.5 191.5q242 0 416 -84v-234q-213 68 -383 68q-227 0 -334 -113.5t-107 -357.5v-37q0 -242 106 -353.5t335 -111.5q63 0 151 10v346h-266v222h549v-711q-96 -51 -229.5 -80t-270.5 -29q-332 0 -511 186.5t-179 530.5z" />
<glyph unicode="H" horiz-adv-x="1507" d="M164 0v1419h307v-577h565v577h307v-1419h-307v604h-565v-604h-307z" />
<glyph unicode="I" horiz-adv-x="651" d="M172 0v1419h307v-1419h-307z" />
<glyph unicode="J" horiz-adv-x="931" d="M45 12v236q115 -29 219 -29q111 0 158 54.5t47 183.5v962h307v-956q0 -498 -469 -498q-70 0 -129 11.5t-133 35.5z" />
<glyph unicode="K" horiz-adv-x="1376" d="M164 0v1419h307v-608l514 608h346l-577 -659l626 -760h-366l-543 674v-674h-307z" />
<glyph unicode="L" horiz-adv-x="1112" d="M164 0v1419h307v-1173h623v-246h-930z" />
<glyph unicode="M" horiz-adv-x="1769" d="M164 0v1419h336l387 -807l389 807h330v-1419h-271v983l-313 -637h-274l-314 637v-983h-270z" />
<glyph unicode="N" horiz-adv-x="1503" d="M164 0v1419h328l577 -993v993h270v-1419h-327l-578 985v-985h-270z" />
<glyph unicode="O" horiz-adv-x="1630" d="M123 711q0 225 81 393t237.5 259t373.5 91q211 0 366.5 -88t240.5 -255t85 -400q0 -225 -80.5 -393t-237.5 -260.5t-374 -92.5q-211 0 -366.5 88t-240.5 256.5t-85 401.5zM438 711q0 -242 96.5 -369t280.5 -127t280.5 127t96.5 369t-96.5 367.5t-280.5 125.5 t-280.5 -125.5t-96.5 -367.5z" />
<glyph unicode="P" horiz-adv-x="1267" d="M164 0v1419h543q221 0 350 -120.5t129 -329.5t-129 -330t-350 -121h-244v-518h-299zM463 748h209q102 0 156.5 56t54.5 165t-54.5 165t-156.5 56h-209v-442z" />
<glyph unicode="Q" horiz-adv-x="1630" d="M123 711q0 225 81 393t237.5 259t373.5 91q211 0 366.5 -88t240.5 -255t85 -400q0 -272 -115.5 -456.5t-328.5 -252.5q86 -47 184.5 -72.5t231.5 -35.5v-250q-184 20 -365.5 105t-325.5 218q-311 8 -488 206t-177 538zM438 711q0 -242 96.5 -369t280.5 -127t280.5 127 t96.5 369t-96.5 367.5t-280.5 125.5t-280.5 -125.5t-96.5 -367.5z" />
<glyph unicode="R" horiz-adv-x="1304" d="M164 0v1419h547q221 0 350 -116.5t129 -317.5q0 -123 -67.5 -221t-190.5 -154l352 -610h-317l-308 551h-200v-551h-295zM459 764h213q215 0 215 217q0 213 -211 213h-217v-430z" />
<glyph unicode="S" horiz-adv-x="1198" d="M98 1032q0 193 142.5 307.5t382.5 114.5q201 0 393 -74v-233q-199 61 -369 61q-241 0 -241 -154q0 -58 41.5 -95t156.5 -78l152 -56q190 -70 271 -163t81 -242q0 -211 -151.5 -333t-415.5 -122q-115 0 -229.5 21.5t-196.5 58.5v234q102 -31 219 -49.5t211 -18.5 q121 0 186.5 44t65.5 126q0 63 -40 100t-161 82l-156 58q-182 68 -262 165t-80 246z" />
<glyph unicode="T" horiz-adv-x="1220" d="M25 1174v245h1171v-245h-432v-1174h-307v1174h-432z" />
<glyph unicode="U" horiz-adv-x="1482" d="M156 522v897h307v-911q0 -143 71.5 -218t206.5 -75t207 75t72 218v911h307v-899q0 -264 -152.5 -409.5t-433.5 -145.5t-433 144.5t-152 412.5z" />
<glyph unicode="V" horiz-adv-x="1357" d="M12 1419h340l332 -1118l330 1118h332l-504 -1419h-326z" />
<glyph unicode="W" horiz-adv-x="1953" d="M29 1419h340l225 -1085l225 1050h324l229 -1046l221 1081h332l-391 -1419h-336l-225 1001l-217 -1001h-334z" />
<glyph unicode="X" horiz-adv-x="1290" d="M8 0l461 737l-426 682h346l260 -461l260 461h338l-432 -678l467 -741h-346l-297 524l-293 -524h-338z" />
<glyph unicode="Y" horiz-adv-x="1290" d="M20 1419h338l291 -663l299 663h322l-477 -899v-520h-304v524z" />
<glyph unicode="Z" horiz-adv-x="1224" d="M78 0v221l731 961h-694v237h1026v-221l-727 -960h733v-238h-1069z" />
<glyph unicode="[" horiz-adv-x="757" d="M164 -295v1839h561v-225h-254v-1389h254v-225h-561z" />
<glyph unicode="\" horiz-adv-x="1056" d="M29 1544h301l698 -1839h-301z" />
<glyph unicode="]" horiz-adv-x="757" d="M33 -70h254v1389h-254v225h561v-1839h-561v225z" />
<glyph unicode="^" d="M70 582l409 837h242l409 -837h-288l-242 579l-248 -579h-282z" />
<glyph unicode="_" horiz-adv-x="1024" d="M0 -111h1024v-233h-1024v233z" />
<glyph unicode="`" horiz-adv-x="1253" d="M369 1575h319l197 -346h-242z" />
<glyph unicode="a" horiz-adv-x="1118" d="M78 283q0 98 49 172.5t141 117.5t217 43q98 0 217 -26v102q0 94 -38.5 129t-143.5 35q-168 0 -370 -63v198q76 39 190.5 62.5t232.5 23.5q211 0 308.5 -85t97.5 -267v-725h-236l-24 92q-63 -57 -146.5 -91t-160.5 -34q-152 0 -243 86t-91 230zM362 301q0 -63 35.5 -98 t98.5 -35q51 0 105 22.5t101 61.5v178q-90 14 -161 14q-178 0 -179 -143z" />
<glyph unicode="b" horiz-adv-x="1259" d="M143 0v1516h299v-549q59 51 139.5 80.5t157.5 29.5q199 0 314.5 -145.5t115.5 -392.5q0 -162 -53 -289t-153.5 -200t-231.5 -73q-94 0 -176 33t-137 92l-27 -102h-248zM442 258q90 -55 201 -55q115 0 169 77.5t54 245.5q0 170 -53 248t-170 78q-106 0 -201 -55v-539z" />
<glyph unicode="c" horiz-adv-x="968" d="M90 518q0 260 139.5 405.5t386.5 145.5q150 0 277 -65v-199q-121 35 -221 35q-143 0 -211 -73t-68 -230v-29q0 -156 66.5 -228.5t206.5 -72.5q100 0 233 37v-199q-55 -33 -133 -50.5t-162 -17.5q-250 0 -382 139.5t-132 401.5z" />
<glyph unicode="d" horiz-adv-x="1253" d="M90 518q0 254 121 406.5t319 152.5q162 0 281 -92v531h299v-1516h-260l-25 92q-127 -115 -301 -115q-129 0 -227 64.5t-152.5 187.5t-54.5 289zM393 526q0 -164 56.5 -243.5t173.5 -79.5q98 0 188 57v541q-88 51 -203 51q-109 0 -162 -81t-53 -245z" />
<glyph unicode="e" horiz-adv-x="1107" d="M90 524q0 262 135 407.5t375 145.5q203 0 312.5 -111.5t109.5 -318.5q0 -45 -6 -102.5t-15 -93.5h-634q8 -135 81.5 -195.5t231.5 -60.5q137 0 319 51v-199q-72 -37 -171 -57.5t-205 -20.5q-260 0 -396.5 141.5t-136.5 413.5zM365 635h401v35q0 200 -176 200 q-100 0 -158.5 -60t-66.5 -175z" />
<glyph unicode="f" horiz-adv-x="794" d="M29 825v185l166 30v95q0 207 95 308t290 101q55 0 114.5 -11t104.5 -30v-203q-82 12 -140 13q-94 0 -129.5 -31t-35.5 -108v-127h292v-222h-292v-825h-299v825h-166z" />
<glyph unicode="g" horiz-adv-x="1220" d="M90 545q0 242 114.5 387t307.5 145q86 0 162 -30.5t135 -90.5l22 91h246v-965q0 -250 -139 -389t-385 -139q-199 0 -377 88v200q203 -63 350 -63q135 0 195.5 62.5t60.5 203.5v82q-117 -104 -274 -104q-190 0 -304 142t-114 380zM389 553q0 -158 51 -233.5t160 -75.5 q47 0 95 15t87 42v504q-84 51 -196 51q-197 0 -197 -303z" />
<glyph unicode="h" horiz-adv-x="1253" d="M143 0v1516h299v-564q176 125 369 125q145 0 224 -78.5t79 -224.5v-774h-299v686q0 84 -37 123t-112 39q-113 0 -224 -70v-778h-299z" />
<glyph unicode="i" horiz-adv-x="602" d="M129 1368q0 74 47 117t125 43t125 -43t47 -117t-47 -117t-125 -43t-125 43t-47 117zM152 0v1047h299v-1047h-299z" />
<glyph unicode="j" horiz-adv-x="602" d="M-72 -211q61 -6 117 -6q57 0 82 22.5t25 75.5v1166h299v-1158q0 -170 -78 -252.5t-238 -82.5q-109 0 -207 32v203zM129 1368q0 74 47 117t125 43t125 -43t47 -117t-47 -117t-125 -43t-125 43t-47 117z" />
<glyph unicode="k" horiz-adv-x="1191" d="M143 0v1516h297v-916l363 447h356l-432 -500l465 -547h-365l-387 477v-477h-297z" />
<glyph unicode="l" horiz-adv-x="665" d="M143 295v1221h299v-1197q0 -57 19.5 -80.5t64.5 -23.5q29 0 78 6v-201q-84 -34 -179 -34h-5q-276 0 -277 309z" />
<glyph unicode="m" horiz-adv-x="1878" d="M143 0v1047h246l27 -101q109 72 195.5 101.5t179.5 29.5q184 0 260 -131q104 70 196 100.5t191 30.5q143 0 222 -79.5t79 -223.5v-774h-299v709q0 139 -125 139q-111 0 -223 -53v-21v-774h-299v709q0 139 -125 139q-115 0 -226 -55v-793h-299z" />
<glyph unicode="n" horiz-adv-x="1253" d="M143 0v1047h246l29 -113q184 143 393 143q145 0 224 -78.5t79 -224.5v-774h-299v686q0 84 -37 123t-112 39q-113 0 -224 -70v-778h-299z" />
<glyph unicode="o" horiz-adv-x="1216" d="M90 524q0 260 137.5 406.5t380.5 146.5q244 0 381 -146.5t137 -406.5q0 -262 -137 -408.5t-381 -146.5t-381 146.5t-137 408.5zM393 524q0 -325 215 -325t215 325q0 324 -215 324t-215 -324z" />
<glyph unicode="p" horiz-adv-x="1259" d="M143 -422v1469h246l25 -99q61 59 148 94t177 35q199 0 314.5 -145.5t115.5 -392.5q0 -162 -53 -289t-153.5 -200t-231.5 -73q-84 0 -159.5 27t-129.5 74v-500h-299zM442 258q90 -55 201 -55q115 0 169 77.5t54 245.5q0 170 -53 248t-170 78q-106 0 -201 -55v-539z" />
<glyph unicode="q" horiz-adv-x="1253" d="M90 518q0 166 52.5 292t151.5 196.5t234 70.5q186 0 314 -121l22 91h246v-1469h-299v502q-125 -102 -287 -103q-129 0 -227 64.5t-152.5 187.5t-54.5 289zM393 526q0 -164 56.5 -243.5t173.5 -79.5q98 0 188 57v541q-88 51 -203 51q-109 0 -162 -81t-53 -245z" />
<glyph unicode="r" horiz-adv-x="829" d="M143 0v1047h246l37 -156q82 90 154.5 128t154.5 38q39 0 82 -6v-277q-57 12 -127 12q-133 0 -248 -47v-739h-299z" />
<glyph unicode="s" horiz-adv-x="911" d="M70 51v199q203 -63 370 -64q148 1 148 103q0 41 -23.5 63.5t-95.5 48.5l-160 64q-125 49 -180 120.5t-55 182.5q0 139 111.5 224t297.5 85q172 0 318 -67v-199q-156 47 -291 47q-84 0 -123 -20.5t-39 -65.5q0 -35 23.5 -56.5t99.5 -51.5l156 -64q127 -51 181 -118.5 t54 -176.5q0 -152 -115.5 -245t-304.5 -93q-211 0 -372 84z" />
<glyph unicode="t" horiz-adv-x="806" d="M20 825v185l166 32l45 287h246v-282h283v-222h-283v-491q0 -66 33 -92.5t111 -26.5q63 0 145 12v-200q-111 -43 -248 -43q-174 0 -257 81.5t-83 253.5v506h-158z" />
<glyph unicode="u" horiz-adv-x="1228" d="M135 281v766h299v-682q0 -166 144 -166q106 0 208 65v783h299v-1047h-245l-29 111q-182 -141 -381 -142q-139 0 -217 83t-78 229z" />
<glyph unicode="v" horiz-adv-x="1093" d="M8 1047h318l223 -779l227 779h309l-395 -1047h-284z" />
<glyph unicode="w" horiz-adv-x="1634" d="M12 1047h316l174 -756l188 756h268l193 -758l164 758h307l-336 -1047h-289l-180 735l-182 -735h-289z" />
<glyph unicode="x" horiz-adv-x="1036" d="M8 0l350 528l-346 519h322l190 -318l178 318h310l-342 -502l358 -545h-321l-199 332l-191 -332h-309z" />
<glyph unicode="y" horiz-adv-x="1097" d="M8 1047h318l233 -783l221 783h310l-443 -1188q-59 -162 -145 -233.5t-217 -71.5q-102 0 -199 32v203q66 -6 117 -6q86 0 133 40t80 138l6 23z" />
<glyph unicode="z" horiz-adv-x="1009" d="M66 0v213l538 612h-518v222h848v-213l-545 -613h555v-221h-878z" />
<glyph unicode="{" horiz-adv-x="811" d="M53 512v225h43q70 0 100.5 30t30.5 97v305q0 182 98.5 287t268.5 105q109 0 184 -35v-201q-61 10 -123 10q-121 0 -120 -137v-328q0 -100 -48.5 -158.5t-156.5 -86.5q109 -29 157 -87.5t48 -158.5v-328q0 -137 120 -137q61 0 123 10v-200q-76 -35 -184 -35 q-170 0 -268.5 104.5t-98.5 286.5v305q0 68 -30.5 97.5t-100.5 29.5h-43z" />
<glyph unicode="|" horiz-adv-x="655" d="M176 -422v1966h303v-1966h-303z" />
<glyph unicode="}" horiz-adv-x="811" d="M33 -76q61 -10 123 -10q121 0 120 137v328q0 102 48.5 159.5t156.5 86.5q-109 29 -157 86t-48 159v328q0 137 -120 137q-61 0 -123 -10v201q76 35 184 35q170 0 268.5 -104.5t98.5 -287.5v-305q0 -68 30.5 -97.5t100.5 -29.5h43v-225h-43q-70 0 -100.5 -29.5t-30.5 -97.5 v-305q0 -182 -98.5 -286.5t-268.5 -104.5q-109 0 -184 35v200z" />
<glyph unicode="~" d="M88 641q0 127 74 200.5t200 73.5q127 0 277 -108q66 -47 98.5 -62.5t65.5 -15.5q78 0 84 84l6 90h205q14 -78 14 -123q0 -127 -73.5 -200.5t-200.5 -73.5t-277 108q-66 47 -98.5 62.5t-65.5 15.5q-78 0 -84 -84l-6 -90h-205q-14 78 -14 123z" />
<glyph unicode="&#xa1;" horiz-adv-x="606" d="M119 885q0 82 51 133t133 51t133 -51t51 -133t-51 -133.5t-133 -51.5t-133 51.5t-51 133.5zM139 -373l45 942h238l45 -942q-82 -39 -164 -39t-164 39z" />
<glyph unicode="&#xa2;" d="M180 573q0 156 55.5 273t162 185.5t257.5 80.5v307h152v-311q131 -16 221 -59v-199q-123 31 -221 33v-615q92 6 227 37v-199q-94 -49 -227 -63v-309h-152v305q-233 12 -354 148.5t-121 385.5zM463 563q0 -125 47 -194.5t145 -89.5v593q-98 -20 -145 -89.5t-47 -190.5v-29 z" />
<glyph unicode="&#xa3;" d="M109 586v221h174q-14 66 -25.5 124t-11.5 107q0 121 58 213t167 144.5t256 52.5q106 0 202.5 -26.5t168.5 -78.5v-225q-80 37 -173.5 60.5t-166.5 23.5q-217 0 -217 -205q0 -70 22 -190h395v-221h-360q2 -8 2 -17.5v-19.5q0 -98 -34 -174t-105 -137h653v-238h-956v213 q80 57 118.5 139t38.5 195v18t-2 21h-204z" />
<glyph unicode="&#xa4;" d="M43 262l158 162q-82 119 -82 272q0 154 82 273l-158 161l176 156l162 -172q102 45 219 45t217 -45l164 172l176 -156l-160 -161q84 -117 84 -273t-84 -272l160 -162l-176 -156l-164 173q-100 -46 -217 -46t-219 46l-162 -173zM377 696q0 -127 57 -194.5t166 -67.5 t166 67.5t57 194.5t-57 194.5t-166 67.5t-166 -67.5t-57 -194.5z" />
<glyph unicode="&#xa5;" d="M16 1419h334l248 -667l264 667h322l-305 -622h194v-176h-280l-52 -107v-47h332v-176h-332v-291h-290v291h-332v176h332v53l-50 101h-282v176h198z" />
<glyph unicode="&#xa6;" horiz-adv-x="655" d="M176 309h303v-731h-303v731zM176 813v731h303v-731h-303z" />
<glyph unicode="&#xa7;" horiz-adv-x="987" d="M66 604q0 92 54 164t148 100q-88 45 -128 110.5t-40 166.5q0 137 112 223t288 86q184 0 342 -74v-198q-184 53 -316 53q-80 0 -117.5 -22.5t-37.5 -71.5q0 -37 24.5 -61.5t85.5 -49.5l174 -72q141 -59 204 -127.5t63 -166.5q0 -211 -187 -285q150 -96 150 -248 q0 -158 -108.5 -243t-307.5 -85q-213 0 -381 84v199q197 -63 371 -63q76 0 115.5 26.5t39.5 77.5q0 39 -27.5 64.5t-131.5 66.5l-154 59q-127 49 -181 116t-54 171zM336 647q0 -55 29.5 -87t107.5 -64l82 -35q47 20 71.5 61t24.5 96q0 100 -145 156l-39 14q-61 -14 -96 -51 t-35 -90z" />
<glyph unicode="&#xa8;" horiz-adv-x="1253" d="M228 1352q0 70 44 109.5t117 39.5q74 0 118 -40t44 -109q0 -70 -44 -110t-118 -40t-117.5 40t-43.5 110zM703 1352q0 70 44 109.5t118 39.5t117.5 -40t43.5 -109q0 -70 -43.5 -110t-117.5 -40t-118 40t-44 110z" />
<glyph unicode="&#xa9;" horiz-adv-x="1601" d="M45 707q0 209 93 376.5t266.5 266t396.5 98.5q213 0 384 -91t271 -260t100 -390q0 -209 -92 -377t-265 -266.5t-398 -98.5q-213 0 -384 91t-271.5 260t-100.5 391zM242 707q0 -170 67.5 -300.5t194.5 -204t297 -73.5q164 0 291 69.5t197.5 200.5t70.5 308 q0 170 -67.5 300t-194.5 203.5t-297 73.5q-164 0 -290 -69.5t-197.5 -200.5t-71.5 -307zM449 711q0 199 106.5 310.5t294.5 111.5q51 0 103.5 -10.5t88.5 -28.5v-162q-94 20 -165 20q-96 0 -147.5 -56t-51.5 -161v-45q0 -217 209 -217q70 0 166 29v-168q-96 -45 -205 -45 q-193 0 -296 108.5t-103 313.5z" />
<glyph unicode="&#xaa;" horiz-adv-x="839" d="M61 897q0 106 78 171t207 65q74 0 158 -21v80q0 98 -107 98q-129 0 -286 -43v146q147 61 317 61q289 0 289 -237v-508h-182l-23 69q-109 -90 -229 -90q-100 0 -161 56.5t-61 152.5zM76 397v168h641v-168h-641zM274 918q1 -80 93 -80q57 0 137 47v106q-68 12 -123 13 q-51 0 -79 -23t-28 -63z" />
<glyph unicode="&#xab;" horiz-adv-x="1251" d="M86 530l279 426h286l-250 -426l250 -426h-286zM588 530l279 426h286l-250 -426l250 -426h-286z" />
<glyph unicode="&#xac;" d="M123 774v230h954v-588h-254v358h-700z" />
<glyph unicode="&#xad;" horiz-adv-x="823" d="M86 406v245h651v-245h-651z" />
<glyph unicode="&#xae;" horiz-adv-x="1093" d="M45 1049q0 139 61.5 251.5t176 178t264.5 65.5q141 0 254.5 -60.5t180.5 -174t67 -258.5q0 -139 -61.5 -252t-176 -178.5t-264.5 -65.5q-141 0 -255 60.5t-180.5 174t-66.5 259.5zM164 1049q0 -180 104.5 -288t278.5 -108q172 0 277.5 108.5t105.5 289.5 q0 180 -104.5 287.5t-278.5 107.5q-172 0 -277.5 -108.5t-105.5 -288.5zM350 786v537h213q90 0 140.5 -46t50.5 -130q0 -98 -99 -143l136 -218h-140l-112 195h-66v-195h-123zM473 1083h68q80 0 80 62q0 33 -19.5 51t-54.5 18h-74v-131z" />
<glyph unicode="&#xaf;" horiz-adv-x="1253" d="M281 1276v184h692v-184h-692z" />
<glyph unicode="&#xb0;" horiz-adv-x="782" d="M94 1141q0 135 80 215t217 80t217 -80t80 -215t-80 -215t-217 -80t-217 80t-80 215zM274 1141q0 -63 31 -99t86 -36t86 35.5t31 99.5q0 63 -31 99t-86 36t-86 -36t-31 -99z" />
<glyph unicode="&#xb1;" d="M123 2v229h954v-229h-954zM123 737v229h350v373h254v-373h350v-229h-350v-373h-254v373h-350z" />
<glyph unicode="&#xb2;" horiz-adv-x="839" d="M121 799v147q203 182 277.5 271.5t74.5 152.5q0 37 -26.5 58.5t-71.5 21.5q-43 0 -108.5 -24.5t-129.5 -65.5v174q63 43 138 67.5t149 24.5q125 0 199.5 -65.5t74.5 -173.5q0 -76 -76.5 -175.5t-248.5 -240.5h354v-172h-606z" />
<glyph unicode="&#xb3;" horiz-adv-x="839" d="M141 834v160q123 -39 226 -39q76 0 118.5 25.5t42.5 70.5q0 47 -36.5 68.5t-116.5 21.5q-29 0 -119 -8v102l211 207h-317v168h538v-147l-205 -201h15q109 0 172 -55.5t63 -151.5q0 -131 -90 -201.5t-256 -70.5q-145 0 -246 51z" />
<glyph unicode="&#xb4;" horiz-adv-x="1253" d="M368 1229l197 346h319l-274 -346h-242z" />
<glyph unicode="&#xb5;" d="M109 -422v1469h299v-682q0 -84 38.5 -125t120.5 -41q104 0 193 75v773h299v-744q0 -88 90 -88q31 0 72 8v-203q-86 -35 -185 -34q-88 0 -144 31.5t-89 99.5q-135 -147 -285 -148q-74 0 -131 29v-420h-278z" />
<glyph unicode="&#xb6;" horiz-adv-x="1277" d="M66 918q0 238 153.5 369.5t429.5 131.5h457v-1632h-227v1419h-172v-1628h-228v889q-199 33 -306 149.5t-107 301.5z" />
<glyph unicode="&#xb7;" horiz-adv-x="581" d="M106 529q0 82 51.5 133t133.5 51t133 -51t51 -133t-51 -133.5t-133 -51.5t-133.5 51.5t-51.5 133.5z" />
<glyph unicode="&#xb8;" horiz-adv-x="1253" d="M442 -494q76 43 117 86t41 80q0 45 -68 45q-23 0 -65 -6v146q67 22 143 22q90 0 144.5 -43t54.5 -115q0 -92 -60.5 -166.5t-197.5 -146.5z" />
<glyph unicode="&#xb9;" horiz-adv-x="839" d="M139 1325v166l264 119h197v-811h-217v602z" />
<glyph unicode="&#xba;" horiz-adv-x="876" d="M74 1061q0 182 97 287.5t267 105.5t267.5 -105.5t97.5 -287.5q0 -184 -96.5 -286.5t-268.5 -102.5t-268 102.5t-96 286.5zM104 397v168h668v-168h-668zM295 1061q0 -113 33.5 -165t109.5 -52t110 52t34 165t-35 167t-109 54t-108.5 -54t-34.5 -167z" />
<glyph unicode="&#xbb;" horiz-adv-x="1251" d="M98 104l250 426l-250 426h287l279 -426l-279 -426h-287zM600 104l250 426l-250 426h287l279 -426l-279 -426h-287z" />
<glyph unicode="&#xbc;" horiz-adv-x="1925" d="M139 1134v166l264 119h197v-811h-217v602zM524 0l680 1419h222l-680 -1419h-222zM1159 158v151l377 514h208v-512h111v-153h-111v-158h-188v158h-397zM1349 311h207v283z" />
<glyph unicode="&#xbd;" horiz-adv-x="1925" d="M139 1134v166l264 119h197v-811h-217v602zM485 0l680 1419h222l-680 -1419h-222zM1206 0v147q203 182 277.5 271.5t74.5 152.5q0 37 -26.5 58.5t-71.5 21.5q-43 0 -108.5 -24.5t-129.5 -65.5v174q63 43 138 67.5t149 24.5q125 0 199.5 -65.5t74.5 -173.5 q0 -76 -76.5 -175.5t-248.5 -240.5h354v-172h-606z" />
<glyph unicode="&#xbe;" horiz-adv-x="1925" d="M141 643v160q123 -39 226 -39q76 0 118.5 25.5t42.5 70.5q0 47 -36.5 68.5t-116.5 21.5q-29 0 -119 -8v102l211 207h-317v168h538v-147l-205 -201h15q109 0 172 -55.5t63 -151.5q0 -131 -90 -201.5t-256 -70.5q-145 0 -246 51zM559 0l680 1419h222l-680 -1419h-222z M1159 158v151l377 514h208v-512h111v-153h-111v-158h-188v158h-397zM1349 311h207v283z" />
<glyph unicode="&#xbf;" horiz-adv-x="909" d="M55 -51q0 141 82 245.5t266 200.5v174h234l25 -276l-107 -57q-113 -59 -161 -117.5t-48 -138.5q0 -74 46 -114t132 -40q143 0 322 86v-227q-176 -96 -377 -97q-195 0 -304.5 96.5t-109.5 264.5zM332 885q0 82 51 133t133 51t133 -51t51 -133t-51 -133.5t-133 -51.5 t-133 51.5t-51 133.5z" />
<glyph unicode="&#xc0;" horiz-adv-x="1361" d="M12 0l500 1419h338l500 -1419h-334l-101 324h-485l-96 -324h-322zM277 1839h315l207 -264h-250zM496 545h356l-180 594z" />
<glyph unicode="&#xc1;" horiz-adv-x="1361" d="M12 0l500 1419h338l500 -1419h-334l-101 324h-485l-96 -324h-322zM496 545h356l-180 594zM549 1575l207 264h315l-272 -264h-250z" />
<glyph unicode="&#xc2;" horiz-adv-x="1361" d="M12 0l500 1419h338l500 -1419h-334l-101 324h-485l-96 -324h-322zM254 1575l266 289h304l266 -289h-262l-156 154l-156 -154h-262zM496 545h356l-180 594z" />
<glyph unicode="&#xc3;" horiz-adv-x="1361" d="M12 0l500 1419h338l500 -1419h-334l-101 324h-485l-96 -324h-322zM307 1651q0 96 60.5 153.5t161.5 57.5q115 0 192 -76q39 -37 57.5 -48.5t38.5 -11.5q45 0 47 60l5 69h165q6 -41 7 -79q0 -96 -60.5 -153.5t-161.5 -57.5q-115 0 -192 75q-39 37 -57.5 48.5t-38.5 11.5 q-45 0 -47 -60l-5 -69h-165q-6 41 -7 80zM496 545h356l-180 594z" />
<glyph unicode="&#xc4;" horiz-adv-x="1361" d="M12 0l500 1419h338l500 -1419h-334l-101 324h-485l-96 -324h-322zM275 1729q0 70 45 111.5t121 41.5t120.5 -42t44.5 -111q0 -70 -44.5 -111t-120.5 -41t-121 41t-45 111zM496 545h356l-180 594zM742 1729q0 70 45 111.5t120 41.5q76 0 121 -42t45 -111q0 -70 -45 -111 t-121 -41t-120.5 41t-44.5 111z" />
<glyph unicode="&#xc5;" horiz-adv-x="1361" d="M12 0l500 1419h338l500 -1419h-334l-101 324h-485l-96 -324h-322zM426 1716q0 98 68.5 156.5t179.5 58.5t179.5 -58t68.5 -157q0 -98 -68.5 -156.5t-179.5 -58.5t-179.5 58.5t-68.5 156.5zM496 545h356l-180 594zM588 1716q0 -43 22.5 -67.5t63.5 -24.5t63.5 24.5 t22.5 67.5t-22.5 67.5t-63.5 24.5t-63.5 -24.5t-22.5 -67.5z" />
<glyph unicode="&#xc6;" horiz-adv-x="1988" d="M12 0l770 1419h1121v-237h-627v-336h510v-238h-510v-370h627v-238h-934v324h-451l-162 -324h-344zM629 545h340v637h-21z" />
<glyph unicode="&#xc7;" horiz-adv-x="1259" d="M123 702q0 354 186.5 549t524.5 195q180 0 342 -57v-242q-186 41 -306 41q-213 0 -318.5 -112.5t-105.5 -344.5v-47q0 -229 102.5 -341t313.5 -112q119 0 334 48v-242q-166 -63 -371 -64q-346 0 -524 185.5t-178 543.5zM610 -492q74 41 115 85.5t41 78.5q0 41 -63 41 q-23 0 -66 -6v150q67 22 143 22q90 0 144.5 -43t54.5 -115q0 -92 -60.5 -166.5t-197.5 -146.5z" />
<glyph unicode="&#xc8;" horiz-adv-x="1183" d="M164 0v1419h934v-237h-627v-336h510v-238h-510v-370h627v-238h-934zM234 1839h315l207 -264h-250z" />
<glyph unicode="&#xc9;" horiz-adv-x="1183" d="M164 0v1419h934v-237h-627v-336h510v-238h-510v-370h627v-238h-934zM506 1575l207 264h315l-272 -264h-250z" />
<glyph unicode="&#xca;" horiz-adv-x="1183" d="M164 0v1419h934v-237h-627v-336h510v-238h-510v-370h627v-238h-934zM211 1575l266 289h304l266 -289h-262l-156 154l-156 -154h-262z" />
<glyph unicode="&#xcb;" horiz-adv-x="1183" d="M164 0v1419h934v-237h-627v-336h510v-238h-510v-370h627v-238h-934zM232 1729q0 70 45 111.5t121 41.5t120.5 -42t44.5 -111q0 -70 -44.5 -111t-120.5 -41t-121 41t-45 111zM699 1729q0 70 45 111.5t120 41.5q76 0 121 -42t45 -111q0 -70 -45 -111t-121 -41t-120.5 41 t-44.5 111z" />
<glyph unicode="&#xcc;" horiz-adv-x="651" d="M-71 1839h315l207 -264h-250zM172 0v1419h307v-1419h-307z" />
<glyph unicode="&#xcd;" horiz-adv-x="651" d="M172 0v1419h307v-1419h-307zM201 1575l207 264h315l-272 -264h-250z" />
<glyph unicode="&#xce;" horiz-adv-x="651" d="M-94 1575l266 289h304l266 -289h-262l-156 154l-156 -154h-262zM172 0v1419h307v-1419h-307z" />
<glyph unicode="&#xcf;" horiz-adv-x="651" d="M-73 1729q0 70 45 111.5t121 41.5t120.5 -42t44.5 -111q0 -70 -44.5 -111t-120.5 -41t-121 41t-45 111zM172 0v1419h307v-1419h-307zM394 1729q0 70 45 111.5t120 41.5q76 0 121 -42t45 -111q0 -70 -45 -111t-121 -41t-120.5 41t-44.5 111z" />
<glyph unicode="&#xd0;" horiz-adv-x="1476" d="M20 627v209h164v583h510q317 0 488.5 -183t171.5 -525q0 -340 -171 -525.5t-483 -185.5h-516v627h-164zM492 238h176q371 0 370 452v41q0 451 -372 451h-174v-346h280v-209h-280v-389z" />
<glyph unicode="&#xd1;" horiz-adv-x="1503" d="M164 0v1419h328l577 -993v993h270v-1419h-327l-578 985v-985h-270zM413 1651q0 96 60.5 153.5t161.5 57.5q115 0 192 -76q39 -37 57.5 -48.5t38.5 -11.5q45 0 47 60l5 69h165q6 -41 7 -79q0 -96 -60.5 -153.5t-161.5 -57.5q-115 0 -192 75q-39 37 -57.5 48.5t-38.5 11.5 q-45 0 -47 -60l-5 -69h-165q-6 41 -7 80z" />
<glyph unicode="&#xd2;" horiz-adv-x="1630" d="M123 711q0 225 81 393t237.5 259t373.5 91q211 0 366.5 -88t240.5 -255t85 -400q0 -225 -80.5 -393t-237.5 -260.5t-374 -92.5q-211 0 -366.5 88t-240.5 256.5t-85 401.5zM418 1839h315l207 -264h-250zM438 711q0 -242 96.5 -369t280.5 -127t280.5 127t96.5 369 t-96.5 367.5t-280.5 125.5t-280.5 -125.5t-96.5 -367.5z" />
<glyph unicode="&#xd3;" horiz-adv-x="1630" d="M123 711q0 225 81 393t237.5 259t373.5 91q211 0 366.5 -88t240.5 -255t85 -400q0 -225 -80.5 -393t-237.5 -260.5t-374 -92.5q-211 0 -366.5 88t-240.5 256.5t-85 401.5zM438 711q0 -242 96.5 -369t280.5 -127t280.5 127t96.5 369t-96.5 367.5t-280.5 125.5 t-280.5 -125.5t-96.5 -367.5zM690 1575l207 264h315l-272 -264h-250z" />
<glyph unicode="&#xd4;" horiz-adv-x="1630" d="M123 711q0 225 81 393t237.5 259t373.5 91q211 0 366.5 -88t240.5 -255t85 -400q0 -225 -80.5 -393t-237.5 -260.5t-374 -92.5q-211 0 -366.5 88t-240.5 256.5t-85 401.5zM395 1575l266 289h304l266 -289h-262l-156 154l-156 -154h-262zM438 711q0 -242 96.5 -369 t280.5 -127t280.5 127t96.5 369t-96.5 367.5t-280.5 125.5t-280.5 -125.5t-96.5 -367.5z" />
<glyph unicode="&#xd5;" horiz-adv-x="1630" d="M123 711q0 225 81 393t237.5 259t373.5 91q211 0 366.5 -88t240.5 -255t85 -400q0 -225 -80.5 -393t-237.5 -260.5t-374 -92.5q-211 0 -366.5 88t-240.5 256.5t-85 401.5zM438 711q0 -242 96.5 -369t280.5 -127t280.5 127t96.5 369t-96.5 367.5t-280.5 125.5 t-280.5 -125.5t-96.5 -367.5zM448 1651q0 96 60.5 153.5t161.5 57.5q115 0 192 -76q39 -37 57.5 -48.5t38.5 -11.5q45 0 47 60l5 69h165q6 -41 7 -79q0 -96 -60.5 -153.5t-161.5 -57.5q-115 0 -192 75q-39 37 -57.5 48.5t-38.5 11.5q-45 0 -47 -60l-5 -69h-165q-6 41 -7 80z " />
<glyph unicode="&#xd6;" horiz-adv-x="1630" d="M123 711q0 225 81 393t237.5 259t373.5 91q211 0 366.5 -88t240.5 -255t85 -400q0 -225 -80.5 -393t-237.5 -260.5t-374 -92.5q-211 0 -366.5 88t-240.5 256.5t-85 401.5zM416 1729q0 70 45 111.5t121 41.5t120.5 -42t44.5 -111q0 -70 -44.5 -111t-120.5 -41t-121 41 t-45 111zM438 711q0 -242 96.5 -369t280.5 -127t280.5 127t96.5 369t-96.5 367.5t-280.5 125.5t-280.5 -125.5t-96.5 -367.5zM883 1729q0 70 45 111.5t120 41.5q76 0 121 -42t45 -111q0 -70 -45 -111t-121 -41t-120.5 41t-44.5 111z" />
<glyph unicode="&#xd7;" d="M160 399l284 297l-280 295l158 158l278 -291l279 291l157 -158l-280 -295l284 -297l-153 -153l-287 303l-287 -303z" />
<glyph unicode="&#xd8;" horiz-adv-x="1630" d="M123 711q0 225 81 393t237.5 259t373.5 91q231 0 397 -108l127 157l148 -117l-135 -167q156 -195 155 -508q0 -225 -80.5 -393t-237.5 -260.5t-374 -92.5q-227 0 -387 101l-133 -166l-148 116l138 172q-162 197 -162 523zM438 711q0 -166 43 -277l561 699q-90 72 -227 71 q-184 0 -280.5 -125.5t-96.5 -367.5zM598 279q84 -63 217 -64q184 0 280.5 127t96.5 369q0 147 -39 260z" />
<glyph unicode="&#xd9;" horiz-adv-x="1482" d="M156 522v897h307v-911q0 -143 71.5 -218t206.5 -75t207 75t72 218v911h307v-899q0 -264 -152.5 -409.5t-433.5 -145.5t-433 144.5t-152 412.5zM344 1839h315l207 -264h-250z" />
<glyph unicode="&#xda;" horiz-adv-x="1482" d="M156 522v897h307v-911q0 -143 71.5 -218t206.5 -75t207 75t72 218v911h307v-899q0 -264 -152.5 -409.5t-433.5 -145.5t-433 144.5t-152 412.5zM616 1575l207 264h315l-272 -264h-250z" />
<glyph unicode="&#xdb;" horiz-adv-x="1482" d="M156 522v897h307v-911q0 -143 71.5 -218t206.5 -75t207 75t72 218v911h307v-899q0 -264 -152.5 -409.5t-433.5 -145.5t-433 144.5t-152 412.5zM321 1575l266 289h304l266 -289h-262l-156 154l-156 -154h-262z" />
<glyph unicode="&#xdc;" horiz-adv-x="1482" d="M156 522v897h307v-911q0 -143 71.5 -218t206.5 -75t207 75t72 218v911h307v-899q0 -264 -152.5 -409.5t-433.5 -145.5t-433 144.5t-152 412.5zM342 1729q0 70 45 111.5t121 41.5t120.5 -42t44.5 -111q0 -70 -44.5 -111t-120.5 -41t-121 41t-45 111zM809 1729 q0 70 45 111.5t120 41.5q76 0 121 -42t45 -111q0 -70 -45 -111t-121 -41t-120.5 41t-44.5 111z" />
<glyph unicode="&#xdd;" horiz-adv-x="1290" d="M20 1419h338l291 -663l299 663h322l-477 -899v-520h-304v524zM528 1575l207 264h315l-272 -264h-250z" />
<glyph unicode="&#xde;" horiz-adv-x="1259" d="M164 0v1419h299v-250h235q221 0 350.5 -119.5t129.5 -326.5t-129 -327t-351 -120h-235v-276h-299zM463 506h201q102 0 156 55t54 162q0 106 -54 161.5t-156 55.5h-201v-434z" />
<glyph unicode="&#xdf;" horiz-adv-x="1318" d="M143 0v1006q0 258 140.5 398t398.5 140q209 0 327.5 -91t118.5 -249q0 -92 -39.5 -163.5t-140.5 -157.5q-43 -37 -57 -61.5t-14 -53.5q0 -53 135 -127l75 -41q102 -55 150.5 -128t48.5 -169q0 -152 -116.5 -243t-313.5 -91q-141 0 -291 60v215q168 -57 279 -58 q76 0 120 31t44 84q0 37 -27 64.5t-94 64.5l-80 43q-106 57 -154.5 121.5t-48.5 148.5q0 76 33 135.5t117 135.5q53 49 72.5 82.5t19.5 79.5q0 72 -46 111.5t-132 39.5q-119 0 -176.5 -79t-57.5 -240v-1008h-291z" />
<glyph unicode="&#xe0;" horiz-adv-x="1118" d="M78 283q0 98 49 172.5t141 117.5t217 43q98 0 217 -26v102q0 94 -38.5 129t-143.5 35q-168 0 -370 -63v198q76 39 190.5 62.5t232.5 23.5q211 0 308.5 -85t97.5 -267v-725h-236l-24 92q-63 -57 -146.5 -91t-160.5 -34q-152 0 -243 86t-91 230zM148 1575h319l197 -346 h-242zM362 301q0 -63 35.5 -98t98.5 -35q51 0 105 22.5t101 61.5v178q-90 14 -161 14q-178 0 -179 -143z" />
<glyph unicode="&#xe1;" horiz-adv-x="1118" d="M78 283q0 98 49 172.5t141 117.5t217 43q98 0 217 -26v102q0 94 -38.5 129t-143.5 35q-168 0 -370 -63v198q76 39 190.5 62.5t232.5 23.5q211 0 308.5 -85t97.5 -267v-725h-236l-24 92q-63 -57 -146.5 -91t-160.5 -34q-152 0 -243 86t-91 230zM362 301q0 -63 35.5 -98 t98.5 -35q51 0 105 22.5t101 61.5v178q-90 14 -161 14q-178 0 -179 -143zM422 1229l197 346h319l-274 -346h-242z" />
<glyph unicode="&#xe2;" horiz-adv-x="1118" d="M78 283q0 98 49 172.5t141 117.5t217 43q98 0 217 -26v102q0 94 -38.5 129t-143.5 35q-168 0 -370 -63v198q76 39 190.5 62.5t232.5 23.5q211 0 308.5 -85t97.5 -267v-725h-236l-24 92q-63 -57 -146.5 -91t-160.5 -34q-152 0 -243 86t-91 230zM135 1229l261 348h294 l261 -348h-234l-174 201l-174 -201h-234zM362 301q0 -63 35.5 -98t98.5 -35q51 0 105 22.5t101 61.5v178q-90 14 -161 14q-178 0 -179 -143z" />
<glyph unicode="&#xe3;" horiz-adv-x="1118" d="M78 283q0 98 49 172.5t141 117.5t217 43q98 0 217 -26v102q0 94 -38.5 129t-143.5 35q-168 0 -370 -63v198q76 39 190.5 62.5t232.5 23.5q211 0 308.5 -85t97.5 -267v-725h-236l-24 92q-63 -57 -146.5 -91t-160.5 -34q-152 0 -243 86t-91 230zM176 1305q0 96 60.5 153.5 t161.5 57.5q113 0 192 -78q43 -41 59.5 -51.5t36.5 -10.5q45 0 50 64l4 69h163q6 -35 7 -79q0 -96 -60.5 -153.5t-161.5 -57.5q-113 0 -192 77q-43 41 -59.5 51.5t-36.5 10.5q-45 0 -50 -64l-4 -69h-163q-6 49 -7 80zM362 301q0 -63 35.5 -98t98.5 -35q51 0 105 22.5 t101 61.5v178q-90 14 -161 14q-178 0 -179 -143z" />
<glyph unicode="&#xe4;" horiz-adv-x="1118" d="M78 283q0 98 49 172.5t141 117.5t217 43q98 0 217 -26v102q0 94 -38.5 129t-143.5 35q-168 0 -370 -63v198q76 39 190.5 62.5t232.5 23.5q211 0 308.5 -85t97.5 -267v-725h-236l-24 92q-63 -57 -146.5 -91t-160.5 -34q-152 0 -243 86t-91 230zM144 1352q0 70 44 109.5 t117 39.5q74 0 118 -40t44 -109q0 -70 -44 -110t-118 -40t-117.5 40t-43.5 110zM362 301q0 -63 35.5 -98t98.5 -35q51 0 105 22.5t101 61.5v178q-90 14 -161 14q-178 0 -179 -143zM619 1352q0 70 44 109.5t118 39.5t117.5 -40t43.5 -109q0 -70 -43.5 -110t-117.5 -40 t-118 40t-44 110z" />
<glyph unicode="&#xe5;" horiz-adv-x="1118" d="M78 283q0 98 49 172.5t141 117.5t217 43q98 0 217 -26v102q0 94 -38.5 129t-143.5 35q-168 0 -370 -63v198q76 39 190.5 62.5t232.5 23.5q211 0 308.5 -85t97.5 -267v-725h-236l-24 92q-63 -57 -146.5 -91t-160.5 -34q-152 0 -243 86t-91 230zM275 1432q0 106 73.5 169.5 t194.5 63.5t194.5 -63.5t73.5 -169.5t-73.5 -170t-194.5 -64t-194.5 63.5t-73.5 170.5zM362 301q0 -63 35.5 -98t98.5 -35q51 0 105 22.5t101 61.5v178q-90 14 -161 14q-178 0 -179 -143zM451 1432q0 -47 24.5 -74t67.5 -27t67.5 26.5t24.5 74.5q0 47 -24.5 73.5t-67.5 26.5 t-67.5 -26.5t-24.5 -73.5z" />
<glyph unicode="&#xe6;" horiz-adv-x="1742" d="M78 281q0 156 112.5 252t294.5 96q129 0 252 -21v54q0 100 -53 147t-164 47q-164 0 -370 -63v198q66 35 182.5 60.5t214.5 25.5q113 0 202 -38t140 -107q139 145 340 145q207 0 317.5 -110.5t110.5 -319.5q0 -121 -21 -213h-645q12 -127 89 -183t235 -56q133 0 319 51 v-199q-72 -37 -171 -57.5t-206 -20.5q-293 0 -419 170q-70 -74 -186.5 -123t-223.5 -49q-162 0 -256 84t-94 230zM362 303q0 -66 35 -100.5t101 -34.5t139.5 35t124.5 88q-20 66 -27 160q-88 6 -194 6q-178 0 -179 -154zM989 618h412v35q0 113 -44 165t-138 52 q-104 0 -164 -65.5t-66 -186.5z" />
<glyph unicode="&#xe7;" horiz-adv-x="968" d="M90 518q0 260 139.5 405.5t386.5 145.5q150 0 277 -65v-199q-121 35 -221 35q-143 0 -211 -73t-68 -230v-29q0 -156 66.5 -228.5t206.5 -72.5q100 0 233 37v-199q-55 -33 -133 -50.5t-162 -17.5q-250 0 -382 139.5t-132 401.5zM411 -494q76 43 117 86t41 80q0 45 -68 45 q-23 0 -65 -6v146q67 22 143 22q90 0 144.5 -43t54.5 -115q0 -92 -60.5 -166.5t-197.5 -146.5z" />
<glyph unicode="&#xe8;" horiz-adv-x="1107" d="M90 524q0 262 135 407.5t375 145.5q203 0 312.5 -111.5t109.5 -318.5q0 -45 -6 -102.5t-15 -93.5h-634q8 -135 81.5 -195.5t231.5 -60.5q137 0 319 51v-199q-72 -37 -171 -57.5t-205 -20.5q-260 0 -396.5 141.5t-136.5 413.5zM187 1575h319l197 -346h-242zM365 635h401 v35q0 200 -176 200q-100 0 -158.5 -60t-66.5 -175z" />
<glyph unicode="&#xe9;" horiz-adv-x="1107" d="M90 524q0 262 135 407.5t375 145.5q203 0 312.5 -111.5t109.5 -318.5q0 -45 -6 -102.5t-15 -93.5h-634q8 -135 81.5 -195.5t231.5 -60.5q137 0 319 51v-199q-72 -37 -171 -57.5t-205 -20.5q-260 0 -396.5 141.5t-136.5 413.5zM365 635h401v35q0 200 -176 200 q-100 0 -158.5 -60t-66.5 -175zM461 1229l197 346h319l-274 -346h-242z" />
<glyph unicode="&#xea;" horiz-adv-x="1107" d="M90 524q0 262 135 407.5t375 145.5q203 0 312.5 -111.5t109.5 -318.5q0 -45 -6 -102.5t-15 -93.5h-634q8 -135 81.5 -195.5t231.5 -60.5q137 0 319 51v-199q-72 -37 -171 -57.5t-205 -20.5q-260 0 -396.5 141.5t-136.5 413.5zM174 1229l261 348h294l261 -348h-234 l-174 201l-174 -201h-234zM365 635h401v35q0 200 -176 200q-100 0 -158.5 -60t-66.5 -175z" />
<glyph unicode="&#xeb;" horiz-adv-x="1107" d="M90 524q0 262 135 407.5t375 145.5q203 0 312.5 -111.5t109.5 -318.5q0 -45 -6 -102.5t-15 -93.5h-634q8 -135 81.5 -195.5t231.5 -60.5q137 0 319 51v-199q-72 -37 -171 -57.5t-205 -20.5q-260 0 -396.5 141.5t-136.5 413.5zM183 1352q0 70 44 109.5t117 39.5 q74 0 118 -40t44 -109q0 -70 -44 -110t-118 -40t-117.5 40t-43.5 110zM365 635h401v35q0 200 -176 200q-100 0 -158.5 -60t-66.5 -175zM658 1352q0 70 44 109.5t118 39.5t117.5 -40t43.5 -109q0 -70 -43.5 -110t-117.5 -40t-118 40t-44 110z" />
<glyph unicode="&#xec;" horiz-adv-x="602" d="M-94 1575h319l197 -346h-242zM152 0v1047h299v-1047h-299z" />
<glyph unicode="&#xed;" horiz-adv-x="602" d="M152 0v1047h299v-1047h-299zM180 1229l197 346h319l-274 -346h-242z" />
<glyph unicode="&#xee;" horiz-adv-x="602" d="M-107 1229l261 348h294l261 -348h-234l-174 201l-174 -201h-234zM152 0v1047h299v-1047h-299z" />
<glyph unicode="&#xef;" horiz-adv-x="602" d="M-98 1352q0 70 44 109.5t117 39.5q74 0 118 -40t44 -109q0 -70 -44 -110t-118 -40t-117.5 40t-43.5 110zM152 0v1047h299v-1047h-299zM377 1352q0 70 44 109.5t118 39.5t117.5 -40t43.5 -109q0 -70 -43.5 -110t-117.5 -40t-118 40t-44 110z" />
<glyph unicode="&#xf0;" horiz-adv-x="1179" d="M90 485q0 150 55.5 264.5t159 180t242.5 65.5q88 0 164.5 -31.5t136.5 -91.5q-90 270 -246 367l-178 -164l-107 111l134 121q-106 35 -205 49v221q209 -25 377 -107l161 150l107 -113l-133 -123q164 -127 248 -323.5t84 -450.5q0 -328 -123 -484.5t-379 -156.5 q-231 0 -364.5 138.5t-133.5 377.5zM385 483q0 -145 52.5 -221t152.5 -76q215 0 215 297q0 147 -54.5 223t-160.5 76q-205 0 -205 -299z" />
<glyph unicode="&#xf1;" horiz-adv-x="1253" d="M143 0v1047h246l29 -113q184 143 393 143q145 0 224 -78.5t79 -224.5v-774h-299v686q0 84 -37 123t-112 39q-113 0 -224 -70v-778h-299zM276 1305q0 96 60.5 153.5t161.5 57.5q113 0 192 -78q43 -41 59.5 -51.5t36.5 -10.5q45 0 50 64l4 69h163q6 -35 7 -79 q0 -96 -60.5 -153.5t-161.5 -57.5q-113 0 -192 77q-43 41 -59.5 51.5t-36.5 10.5q-45 0 -50 -64l-4 -69h-163q-6 49 -7 80z" />
<glyph unicode="&#xf2;" horiz-adv-x="1216" d="M90 524q0 260 137.5 406.5t380.5 146.5q244 0 381 -146.5t137 -406.5q0 -262 -137 -408.5t-381 -146.5t-381 146.5t-137 408.5zM213 1575h319l197 -346h-242zM393 524q0 -325 215 -325t215 325q0 324 -215 324t-215 -324z" />
<glyph unicode="&#xf3;" horiz-adv-x="1216" d="M90 524q0 260 137.5 406.5t380.5 146.5q244 0 381 -146.5t137 -406.5q0 -262 -137 -408.5t-381 -146.5t-381 146.5t-137 408.5zM393 524q0 -325 215 -325t215 325q0 324 -215 324t-215 -324zM487 1229l197 346h319l-274 -346h-242z" />
<glyph unicode="&#xf4;" horiz-adv-x="1216" d="M90 524q0 260 137.5 406.5t380.5 146.5q244 0 381 -146.5t137 -406.5q0 -262 -137 -408.5t-381 -146.5t-381 146.5t-137 408.5zM200 1229l261 348h294l261 -348h-234l-174 201l-174 -201h-234zM393 524q0 -325 215 -325t215 325q0 324 -215 324t-215 -324z" />
<glyph unicode="&#xf5;" horiz-adv-x="1216" d="M90 524q0 260 137.5 406.5t380.5 146.5q244 0 381 -146.5t137 -406.5q0 -262 -137 -408.5t-381 -146.5t-381 146.5t-137 408.5zM241 1305q0 96 60.5 153.5t161.5 57.5q113 0 192 -78q43 -41 59.5 -51.5t36.5 -10.5q45 0 50 64l4 69h163q6 -35 7 -79q0 -96 -60.5 -153.5 t-161.5 -57.5q-113 0 -192 77q-43 41 -59.5 51.5t-36.5 10.5q-45 0 -50 -64l-4 -69h-163q-6 49 -7 80zM393 524q0 -325 215 -325t215 325q0 324 -215 324t-215 -324z" />
<glyph unicode="&#xf6;" horiz-adv-x="1216" d="M90 524q0 260 137.5 406.5t380.5 146.5q244 0 381 -146.5t137 -406.5q0 -262 -137 -408.5t-381 -146.5t-381 146.5t-137 408.5zM209 1352q0 70 44 109.5t117 39.5q74 0 118 -40t44 -109q0 -70 -44 -110t-118 -40t-117.5 40t-43.5 110zM393 524q0 -325 215 -325t215 325 q0 324 -215 324t-215 -324zM684 1352q0 70 44 109.5t118 39.5t117.5 -40t43.5 -109q0 -70 -43.5 -110t-117.5 -40t-118 40t-44 110z" />
<glyph unicode="&#xf7;" d="M123 596v229h954v-229h-954zM444 330q0 70 43 112.5t113 42.5t113 -43t43 -112q0 -68 -43 -111t-113 -43t-113 43t-43 111zM444 1090q0 70 43 112.5t113 42.5t113 -43t43 -112q0 -68 -43 -111t-113 -43t-113 43t-43 111z" />
<glyph unicode="&#xf8;" horiz-adv-x="1216" d="M90 524q0 260 137.5 406.5t380.5 146.5q172 0 289 -73l96 120l121 -98l-100 -125q113 -141 112 -377q0 -262 -137 -408.5t-381 -146.5q-160 0 -282 68l-93 -115l-120 98l94 119q-117 141 -117 385zM393 524q0 -78 13 -137l331 416q-51 45 -129 45q-215 0 -215 -324z M485 238q47 -39 123 -39q215 0 215 325q0 63 -10 125z" />
<glyph unicode="&#xf9;" horiz-adv-x="1228" d="M135 281v766h299v-682q0 -166 144 -166q106 0 208 65v783h299v-1047h-245l-29 111q-182 -141 -381 -142q-139 0 -217 83t-78 229zM215 1575h319l197 -346h-242z" />
<glyph unicode="&#xfa;" horiz-adv-x="1228" d="M135 281v766h299v-682q0 -166 144 -166q106 0 208 65v783h299v-1047h-245l-29 111q-182 -141 -381 -142q-139 0 -217 83t-78 229zM489 1229l197 346h319l-274 -346h-242z" />
<glyph unicode="&#xfb;" horiz-adv-x="1228" d="M135 281v766h299v-682q0 -166 144 -166q106 0 208 65v783h299v-1047h-245l-29 111q-182 -141 -381 -142q-139 0 -217 83t-78 229zM202 1229l261 348h294l261 -348h-234l-174 201l-174 -201h-234z" />
<glyph unicode="&#xfc;" horiz-adv-x="1228" d="M135 281v766h299v-682q0 -166 144 -166q106 0 208 65v783h299v-1047h-245l-29 111q-182 -141 -381 -142q-139 0 -217 83t-78 229zM211 1352q0 70 44 109.5t117 39.5q74 0 118 -40t44 -109q0 -70 -44 -110t-118 -40t-117.5 40t-43.5 110zM686 1352q0 70 44 109.5t118 39.5 t117.5 -40t43.5 -109q0 -70 -43.5 -110t-117.5 -40t-118 40t-44 110z" />
<glyph unicode="&#xfd;" horiz-adv-x="1097" d="M8 1047h318l233 -783l221 783h310l-443 -1188q-59 -162 -145 -233.5t-217 -71.5q-102 0 -199 32v203q66 -6 117 -6q86 0 133 40t80 138l6 23zM438 1229l197 346h319l-274 -346h-242z" />
<glyph unicode="&#xfe;" horiz-adv-x="1259" d="M143 -422v1938h299v-549q59 51 139.5 80.5t157.5 29.5q199 0 314.5 -145.5t115.5 -392.5q0 -162 -53 -289t-153.5 -200t-231.5 -73q-82 0 -157.5 27t-131.5 74v-500h-299zM442 258q90 -55 201 -55q115 0 169 77.5t54 245.5q0 170 -53 248t-170 78q-106 0 -201 -55v-539z " />
<glyph unicode="&#xff;" horiz-adv-x="1097" d="M8 1047h318l233 -783l221 783h310l-443 -1188q-59 -162 -145 -233.5t-217 -71.5q-102 0 -199 32v203q66 -6 117 -6q86 0 133 40t80 138l6 23zM160 1352q0 70 44 109.5t117 39.5q74 0 118 -40t44 -109q0 -70 -44 -110t-118 -40t-117.5 40t-43.5 110zM635 1352 q0 70 44 109.5t118 39.5t117.5 -40t43.5 -109q0 -70 -43.5 -110t-117.5 -40t-118 40t-44 110z" />
<glyph unicode="&#x152;" horiz-adv-x="2195" d="M123 711q0 227 74.5 394t219 258t345.5 91q283 0 430 -188v153h917v-237h-630v-336h514v-238h-514v-370h630v-238h-917v154q-147 -188 -430 -189q-195 0 -339 88t-222 256t-78 402zM438 711q0 -242 95.5 -369t275.5 -127q182 0 282.5 130t100.5 362v8q0 229 -101.5 359 t-281.5 130t-275.5 -125.5t-95.5 -367.5z" />
<glyph unicode="&#x153;" horiz-adv-x="1886" d="M90 524q0 258 134 405.5t368 147.5q274 0 391 -213q117 213 397 213q201 0 310.5 -111.5t109.5 -318.5q0 -41 -6 -99.5t-14 -96.5h-647q8 -133 86.5 -194.5t238.5 -61.5q133 0 320 51v-199q-70 -37 -170.5 -57.5t-200.5 -20.5q-307 0 -424 213q-111 -213 -391 -213 q-233 0 -367.5 148.5t-134.5 406.5zM393 524q0 -325 225 -325q217 0 218 325q0 324 -218 324q-225 0 -225 -324zM1133 635h411v35q0 200 -176 200q-102 0 -163.5 -62.5t-71.5 -172.5z" />
<glyph unicode="&#x178;" horiz-adv-x="1290" d="M20 1419h338l291 -663l299 663h322l-477 -899v-520h-304v524zM254 1729q0 70 45 111.5t121 41.5t120.5 -42t44.5 -111q0 -70 -44.5 -111t-120.5 -41t-121 41t-45 111zM721 1729q0 70 45 111.5t120 41.5q76 0 121 -42t45 -111q0 -70 -45 -111t-121 -41t-120.5 41 t-44.5 111z" />
<glyph unicode="&#x2c6;" horiz-adv-x="1253" d="M219 1229l261 348h294l261 -348h-234l-174 201l-174 -201h-234z" />
<glyph unicode="&#x2dc;" horiz-adv-x="1253" d="M260 1305q0 96 60.5 153.5t161.5 57.5q113 0 192 -78q43 -41 59.5 -51.5t36.5 -10.5q45 0 50 64l4 69h163q6 -35 7 -79q0 -96 -60.5 -153.5t-161.5 -57.5q-113 0 -192 77q-43 41 -59.5 51.5t-36.5 10.5q-45 0 -50 -64l-4 -69h-163q-6 49 -7 80z" />
<glyph unicode="&#x2000;" horiz-adv-x="965" />
<glyph unicode="&#x2001;" horiz-adv-x="1931" />
<glyph unicode="&#x2002;" horiz-adv-x="965" />
<glyph unicode="&#x2003;" horiz-adv-x="1931" />
<glyph unicode="&#x2004;" horiz-adv-x="643" />
<glyph unicode="&#x2005;" horiz-adv-x="482" />
<glyph unicode="&#x2006;" horiz-adv-x="321" />
<glyph unicode="&#x2007;" horiz-adv-x="321" />
<glyph unicode="&#x2008;" horiz-adv-x="241" />
<glyph unicode="&#x2009;" horiz-adv-x="386" />
<glyph unicode="&#x200a;" horiz-adv-x="107" />
<glyph unicode="&#x2010;" horiz-adv-x="823" d="M86 406v245h651v-245h-651z" />
<glyph unicode="&#x2011;" horiz-adv-x="823" d="M86 406v245h651v-245h-651z" />
<glyph unicode="&#x2012;" horiz-adv-x="823" d="M86 406v245h651v-245h-651z" />
<glyph unicode="&#x2013;" horiz-adv-x="1024" d="M0 412v233h1024v-233h-1024z" />
<glyph unicode="&#x2014;" horiz-adv-x="2048" d="M0 412v233h2048v-233h-2048z" />
<glyph unicode="&#x2018;" horiz-adv-x="581" d="M104 930q0 43 37 139l140 350h196l-92 -598h-115q-166 0 -166 109z" />
<glyph unicode="&#x2019;" horiz-adv-x="581" d="M104 821l93 598h114q166 0 166 -108q0 -43 -37 -140l-139 -350h-197z" />
<glyph unicode="&#x201a;" horiz-adv-x="581" d="M104 -324l93 598h114q166 0 166 -108q0 -43 -37 -140l-139 -350h-197z" />
<glyph unicode="&#x201c;" horiz-adv-x="1034" d="M104 930q0 43 37 139l140 350h196l-92 -598h-115q-166 0 -166 109zM557 930q0 43 37 139l140 350h196l-92 -598h-115q-166 0 -166 109z" />
<glyph unicode="&#x201d;" horiz-adv-x="1034" d="M104 821l93 598h114q166 0 166 -108q0 -43 -37 -140l-139 -350h-197zM557 821l93 598h114q166 0 166 -108q0 -43 -37 -140l-139 -350h-197z" />
<glyph unicode="&#x201e;" horiz-adv-x="1034" d="M104 -324l93 598h114q166 0 166 -108q0 -43 -37 -140l-139 -350h-197zM557 -324l93 598h114q166 0 166 -108q0 -43 -37 -140l-139 -350h-197z" />
<glyph unicode="&#x2022;" horiz-adv-x="798" d="M82 528q0 86 40 158t113.5 116t163.5 44q86 0 158 -40t116 -112.5t44 -165.5q0 -86 -40 -157.5t-114 -115.5t-164 -44q-86 0 -157.5 40t-115.5 112.5t-44 164.5z" />
<glyph unicode="&#x2026;" horiz-adv-x="2048" d="M157 158q0 82 51.5 133t133.5 51t133 -51t51 -133t-51 -133.5t-133 -51.5t-133.5 51.5t-51.5 133.5zM839 158q0 82 51.5 133t133.5 51t133 -51t51 -133t-51 -133.5t-133 -51.5t-133.5 51.5t-51.5 133.5zM1521 158q0 82 51.5 133t133.5 51t133 -51t51 -133t-51 -133.5 t-133 -51.5t-133.5 51.5t-51.5 133.5z" />
<glyph unicode="&#x202f;" horiz-adv-x="386" />
<glyph unicode="&#x2039;" horiz-adv-x="749" d="M86 530l279 426h286l-250 -426l250 -426h-286z" />
<glyph unicode="&#x203a;" horiz-adv-x="749" d="M98 104l250 426l-250 426h287l279 -426l-279 -426h-287z" />
<glyph unicode="&#x205f;" horiz-adv-x="482" />
<glyph unicode="&#x20ac;" d="M49 451v176h146q-2 16 -2 34.5v36.5v41t2 41h-146v176h170q55 236 214 360t405 124q176 0 325 -58v-225q-133 37 -289 37q-145 0 -234 -58.5t-128 -179.5h541l-49 -176h-517v-153h480l-49 -176h-406q68 -231 344 -232q166 0 315 43v-225q-154 -63 -350 -64 q-248 0 -400.5 121t-203.5 357h-168z" />
<glyph unicode="&#x2122;" horiz-adv-x="1763" d="M25 1251v168h688v-168h-238v-618h-213v618h-237zM827 633v786h224l196 -428l199 428h219v-786h-188v495l-136 -309h-190l-135 309v-495h-189z" />
<glyph unicode="&#x25fc;" horiz-adv-x="1044" d="M0 0v1044h1044v-1044h-1044z" />
</font>
</defs>
</svg>
