<?xml version="1.0" standalone="no"?>
<!DOCTYPE svg PUBLIC "-//W3C//DTD SVG 1.1//EN" "http://www.w3.org/Graphics/SVG/1.1/DTD/svg11.dtd" >
<svg xmlns="http://www.w3.org/2000/svg" xmlns:xlink="http://www.w3.org/1999/xlink" version="1.1">
<metadata></metadata>
<defs>
<font id="amazon_emberlight" horiz-adv-x="1200" >
<font-face units-per-em="2048" ascent="1638" descent="-410" />
<missing-glyph horiz-adv-x="536" />
<glyph unicode="&#xfb01;" horiz-adv-x="1198" d="M45 928v82l201 18v236q0 137 71.5 208.5t204.5 71.5q49 0 101.5 -9t89.5 -24v-96q-102 23 -176 23q-92 0 -133.5 -38t-41.5 -124v-246h668v-1030h-117v928h-551v-928h-116v928h-201zM885 1341q0 41 23.5 66t64.5 25t64.5 -25t23.5 -66t-23.5 -65.5t-64.5 -24.5 t-64.5 24.5t-23.5 65.5z" />
<glyph unicode="&#xfb02;" horiz-adv-x="1257" d="M45 928v82l201 18v236q0 137 71.5 208.5t204.5 71.5q49 0 101.5 -9t89.5 -24v-96q-102 23 -176 23q-92 0 -133.5 -38t-41.5 -124v-246h351v-102h-351v-928h-116v928h-201zM905 176v1340h117v-1338q0 -45 17.5 -63.5t62.5 -18.5q33 0 82 6v-94q-53 -14 -105 -14 q-82 0 -128 48t-46 134z" />
<glyph unicode="&#xfb03;" horiz-adv-x="1865" d="M45 928v82l201 18v236q0 137 71.5 208.5t204.5 71.5q49 0 101.5 -9t89.5 -24v-96q-102 23 -176 23q-92 0 -133.5 -38t-41.5 -124v-246h551v234q0 137 72 208.5t205 71.5q49 0 101 -9t89 -24v-96q-102 23 -176 23q-92 0 -133 -38t-41 -124v-246h668v-1030h-117v928h-551 v-928h-117v928h-551v-928h-116v928h-201zM1552 1341q0 41 23.5 66t64.5 25t65 -25t24 -66t-24 -65.5t-65 -24.5t-64.5 24.5t-23.5 65.5z" />
<glyph unicode="&#xfb04;" horiz-adv-x="1925" d="M45 928v82l201 18v236q0 137 71.5 208.5t204.5 71.5q49 0 101.5 -9t89.5 -24v-96q-102 23 -176 23q-92 0 -133.5 -38t-41.5 -124v-246h551v234q0 137 72 208.5t205 71.5q49 0 101 -9t89 -24v-96q-102 23 -176 23q-92 0 -133 -38t-41 -124v-246h350v-102h-350v-928h-117 v928h-551v-928h-116v928h-201zM1573 176v1340h117v-1338q0 -45 17 -63.5t62 -18.5q33 0 82 6v-94q-53 -14 -104 -14q-82 0 -128 48t-46 134z" />
<glyph unicode="&#xd;" horiz-adv-x="536" />
<glyph horiz-adv-x="0" />
<glyph horiz-adv-x="0" />
<glyph unicode=" "  horiz-adv-x="536" />
<glyph unicode="&#x09;" horiz-adv-x="536" />
<glyph unicode="&#xa0;" horiz-adv-x="536" />
<glyph unicode="!" horiz-adv-x="454" d="M135 82q0 43 25.5 69.5t66.5 26.5t66.5 -26.5t25.5 -69.5q0 -41 -25.5 -67.5t-66.5 -26.5t-66.5 26.5t-25.5 67.5zM162 1419q29 16 65 17q37 0 66 -17l-14 -1028h-103z" />
<glyph unicode="&#x22;" horiz-adv-x="618" d="M119 1419q29 16 63 17q35 0 64 -17l-21 -469h-86zM373 1419q29 16 63 17q35 0 64 -17l-21 -469h-86z" />
<glyph unicode="#" d="M57 397v99h222l67 436h-227v98h243l62 389h104l-61 -389h367l61 389h104l-61 -389h205v-98h-221l-68 -436h227v-99h-243l-62 -397h-104l61 397h-366l-62 -397h-104l61 397h-205zM383 496h367l67 436h-366z" />
<glyph unicode="$" d="M160 1049q0 166 105.5 268t281.5 108v248h98v-250q176 -16 324 -112v-107q-176 102 -324 115v-567l109 -41q145 -53 215.5 -135t70.5 -197q0 -166 -106.5 -272.5t-288.5 -122.5v-250h-98v250q-201 8 -383 118v107q199 -109 383 -121v582l-92 35q-152 57 -223.5 142 t-71.5 202zM274 1044q0 -92 61.5 -151t211.5 -113v541q-135 -8 -204 -78t-69 -199zM645 88q135 18 207 94t72 199q0 90 -61.5 149.5t-217.5 112.5v-555z" />
<glyph unicode="%" horiz-adv-x="1925" d="M98 1026q0 199 83 304.5t239 105.5t238.5 -105.5t82.5 -304.5t-82.5 -304t-238.5 -105t-239 105.5t-83 303.5zM209 1028q0 -162 52.5 -239.5t158.5 -77.5q211 0 211 313q0 162 -52.5 240t-158.5 78q-211 0 -211 -314zM562 0l686 1419h116l-686 -1419h-116zM1183 393 q0 199 83 304.5t239 105.5t238.5 -105.5t82.5 -304.5t-82.5 -304t-238.5 -105t-239 105.5t-83 303.5zM1294 395q0 -162 52.5 -239.5t158.5 -77.5q211 0 211 313q0 162 -52.5 240t-158.5 78q-211 0 -211 -314z" />
<glyph unicode="&#x26;" horiz-adv-x="1484" d="M84 348q0 137 81 247t224 169l14 6q-80 92 -118.5 150.5t-53 105.5t-14.5 104q0 141 103.5 229.5t269.5 88.5q162 0 262 -80t100 -209q0 -225 -315 -379l-66 -32l412 -478q131 170 131 441v67h119v-78q0 -309 -178 -514q51 -53 101 -74.5t122 -21.5q55 0 111 10v-94 q-78 -20 -150 -20q-137 0 -264 125q-180 -141 -432 -142q-211 0 -335 102.5t-124 276.5zM203 362q0 -137 91 -211.5t257 -74.5q211 0 352 112l-440 512q-133 -59 -196.5 -142t-63.5 -196zM332 1128q0 -63 31.5 -120.5t148.5 -192.5l102 53q109 57 166.5 130t57.5 155 q0 88 -66.5 140.5t-177.5 52.5q-123 0 -192.5 -58t-69.5 -160z" />
<glyph unicode="'" horiz-adv-x="364" d="M119 1419q29 16 63 17q35 0 64 -17l-21 -469h-86z" />
<glyph unicode="(" horiz-adv-x="567" d="M131 625q0 244 69.5 481t200.5 438h117q-125 -193 -192.5 -431.5t-67.5 -487.5q0 -250 67.5 -488.5t192.5 -431.5h-117q-131 199 -200.5 436.5t-69.5 483.5z" />
<glyph unicode=")" horiz-adv-x="567" d="M49 -295q125 193 192.5 431.5t67.5 488.5t-67.5 488.5t-192.5 430.5h117q131 -199 200.5 -436.5t69.5 -482.5q0 -244 -69.5 -481.5t-200.5 -438.5h-117z" />
<glyph unicode="*" horiz-adv-x="798" d="M80 1149q0 47 39 86l235 -96l-18 270q37 14 63 14q29 0 64 -14l-19 -270l236 96q39 -39 39 -86q0 -14 -4 -27l-242 -65l182 -230q-33 -61 -96 -71l-160 260l-159 -260q-63 10 -97 71l183 230l-242 65q-4 12 -4 27z" />
<glyph unicode="+" d="M152 666v102h393v410h110v-410h394v-102h-394v-410h-110v410h-393z" />
<glyph unicode="," horiz-adv-x="438" d="M68 -301l90 471h49q41 0 59.5 -11.5t18.5 -35.5q0 -20 -23 -96l-104 -328h-90z" />
<glyph unicode="-" horiz-adv-x="776" d="M102 477v109h572v-109h-572z" />
<glyph unicode="." horiz-adv-x="438" d="M127 82q0 43 25.5 69.5t66.5 26.5t66.5 -26.5t25.5 -69.5q0 -41 -25.5 -67.5t-66.5 -26.5t-66.5 26.5t-25.5 67.5z" />
<glyph unicode="/" horiz-adv-x="886" d="M37 -295l694 1839h119l-694 -1839h-119z" />
<glyph unicode="0" d="M98 707q0 362 128 551.5t374 189.5t374 -189.5t128 -551.5t-128 -550t-374 -188t-374 187.5t-128 550.5zM221 707q0 -319 93 -473t286 -154t286 153.5t93 473.5q0 319 -93 474.5t-286 155.5t-286 -155.5t-93 -474.5z" />
<glyph unicode="1" d="M252 1114v103l420 202h119v-1419h-119v1292z" />
<glyph unicode="2" d="M160 0v104q317 328 461.5 497t196.5 272.5t52 197.5q0 123 -75.5 193.5t-204.5 70.5q-180 0 -391 -151v114q182 150 399 150q180 0 288.5 -101.5t108.5 -267.5q0 -123 -62.5 -241.5t-207.5 -285.5t-422 -443h754v-109h-897z" />
<glyph unicode="3" d="M133 51v103q129 -41 213 -57.5t170 -16.5q180 0 279.5 82t99.5 231q0 301 -367 301q-106 0 -196 -8v90l487 535h-665v108h807v-106l-480 -522q49 6 107 6q195 0 312.5 -111t117.5 -293q0 -193 -138.5 -308.5t-369.5 -115.5q-190 0 -377 82z" />
<glyph unicode="4" d="M78 326v104l698 989h123v-991h215v-102h-215v-326h-119v326h-702zM201 428h579v823z" />
<glyph unicode="5" d="M160 49v103q217 -72 375 -72q182 0 281 84t99 235q0 180 -91 257t-302 77q-102 0 -301 -20v92l41 614h699v-108h-592l-31 -488q119 20 223 21q229 0 353 -116t124 -329q0 -125 -62.5 -222t-178 -152.5t-271.5 -55.5q-201 0 -366 80z" />
<glyph unicode="6" d="M127 670q0 371 145.5 574.5t411.5 203.5q164 0 299 -62v-104q-160 55 -285 55q-221 0 -334.5 -157.5t-117.5 -466.5q82 61 187.5 97t207.5 36q197 0 317.5 -118t120.5 -306q0 -207 -120.5 -330t-325.5 -123q-506 0 -506 701zM246 612q2 -258 102.5 -395t284.5 -137 q154 0 241 90t87 254q0 147 -87 229t-245 82q-96 0 -198.5 -32.5t-184.5 -90.5z" />
<glyph unicode="7" d="M131 1311v108h918v-106l-598 -1313h-123l598 1311h-795z" />
<glyph unicode="8" d="M119 350q0 256 295 393q-240 109 -240 326q0 170 118 274.5t308 104.5q123 0 218 -46t150.5 -131t55.5 -198q0 -119 -65.5 -214t-186.5 -157q162 -70 235.5 -152.5t73.5 -197.5q0 -172 -135 -277.5t-354 -105.5q-217 0 -345 103.5t-128 277.5zM238 365q0 -137 95 -213 t267 -76q170 0 266.5 73.5t96.5 204.5q0 92 -63.5 153.5t-233.5 131.5l-156 63q-272 -135 -272 -337zM291 1075q0 -94 61.5 -160.5t194.5 -119.5l133 -54q227 127 227 324q0 131 -81 206t-226 75t-227 -72t-82 -199z" />
<glyph unicode="9" d="M127 983q0 133 54.5 238.5t155.5 166t234 60.5q242 0 369 -175t127 -507q0 -395 -138 -596t-411 -201q-94 0 -185 21.5t-151 58.5v105q76 -35 159 -54.5t155 -19.5q221 0 331.5 140t118.5 435q-76 -57 -180 -92t-205 -35q-203 0 -318.5 121t-115.5 334zM246 983 q0 -168 83.5 -256t243.5 -88q94 0 195.5 30.5t179.5 82.5v47q-4 266 -100 402t-279 136q-147 0 -235 -95t-88 -259z" />
<glyph unicode=":" horiz-adv-x="438" d="M127 82q0 43 25.5 69.5t66.5 26.5t66.5 -26.5t25.5 -69.5q0 -41 -25.5 -67.5t-66.5 -26.5t-66.5 26.5t-25.5 67.5zM127 946q0 43 25.5 69.5t66.5 26.5t66.5 -26.5t25.5 -69.5q0 -41 -25.5 -67.5t-66.5 -26.5t-66.5 26.5t-25.5 67.5z" />
<glyph unicode=";" horiz-adv-x="438" d="M68 -301l90 471h49q41 0 59.5 -11.5t18.5 -35.5q0 -20 -23 -96l-104 -328h-90zM127 946q0 43 25.5 69.5t66.5 26.5t66.5 -26.5t25.5 -69.5q0 -41 -25.5 -67.5t-66.5 -26.5t-66.5 26.5t-25.5 67.5z" />
<glyph unicode="&#x3c;" d="M168 664v102l864 399v-112l-747 -336l747 -336v-117z" />
<glyph unicode="=" d="M152 441v102h897v-102h-897zM152 891v102h897v-102h-897z" />
<glyph unicode="&#x3e;" d="M168 264v113l747 336l-747 336v116l864 -399v-102z" />
<glyph unicode="?" horiz-adv-x="851" d="M76 1243v105q76 47 165 73.5t177 26.5q170 0 268 -87t98 -237q0 -279 -372 -440v-293h-103l-20 334l86 43q152 76 220.5 159t68.5 189q0 109 -67 165t-194 56q-76 0 -151.5 -21.5t-175.5 -72.5zM270 82q0 43 26 69.5t66 26.5q41 0 67 -26.5t26 -69.5q0 -41 -26 -67.5 t-67 -26.5t-66.5 26.5t-25.5 67.5z" />
<glyph unicode="@" horiz-adv-x="1927" d="M106 342q0 289 121 525.5t343.5 377.5t502.5 141q217 0 386 -87t265.5 -253.5t96.5 -390.5q0 -178 -58.5 -330.5t-164 -246.5t-234.5 -94q-162 0 -193 139q-143 -143 -323 -143q-139 0 -222 98t-83 262q0 160 61.5 299t172 227t241.5 88q78 0 142.5 -32.5t107.5 -92.5 l35 95h81l-104 -637q-8 -61 -8 -84q0 -66 23.5 -93.5t76.5 -27.5q90 0 167 72.5t124 206t47 296.5q0 184 -75.5 325.5t-220 219.5t-341.5 78q-238 0 -431 -115.5t-307 -329.5t-114 -491q0 -326 165 -505t468 -179q172 0 340 55v-96q-174 -66 -344 -65q-227 0 -394 93 t-258.5 271t-91.5 424zM657 352q0 -127 53.5 -196.5t151.5 -69.5q80 0 151.5 32t151.5 103q0 23 6 66l72 444q-82 117 -223 117q-96 0 -179 -63.5t-133.5 -177t-50.5 -255.5z" />
<glyph unicode="A" horiz-adv-x="1275" d="M29 0l544 1419h129l545 -1419h-125l-159 426h-656l-160 -426h-118zM346 526h580l-291 766z" />
<glyph unicode="B" horiz-adv-x="1220" d="M180 0v1419h432q193 0 309.5 -101t116.5 -271q0 -219 -188 -306q129 -37 198.5 -127t69.5 -223q0 -180 -117.5 -285.5t-312.5 -105.5h-508zM297 109h387q152 0 229.5 71.5t77.5 210.5t-76.5 210t-226.5 71h-391v-563zM297 780h311q303 0 303 267q0 264 -303 264h-311 v-531z" />
<glyph unicode="C" horiz-adv-x="1222" d="M139 705q0 356 174 543.5t500 187.5q176 0 315 -56v-106q-174 45 -301 45q-281 0 -419 -146.5t-138 -441.5v-51q0 -586 543 -586q139 0 336 51v-106q-158 -61 -346 -62q-328 0 -496 184.5t-168 543.5z" />
<glyph unicode="D" horiz-adv-x="1376" d="M180 0v1419h428q309 0 469 -181t160 -529q0 -346 -166 -527.5t-479 -181.5h-412zM301 100h277q264 0 398 146.5t134 437.5v51q0 584 -530 584h-279v-1219z" />
<glyph unicode="E" horiz-adv-x="1120" d="M180 0v1419h838v-108h-717v-523h614v-108h-614v-571h717v-109h-838z" />
<glyph unicode="F" horiz-adv-x="1042" d="M180 0v1419h797v-108h-676v-543h571v-109h-571v-659h-121z" />
<glyph unicode="G" horiz-adv-x="1384" d="M139 705q0 356 172 543.5t498 187.5q195 0 377 -80v-105q-115 39 -198 55.5t-169 16.5q-283 0 -418 -143.5t-135 -448.5v-51q0 -301 140.5 -445.5t431.5 -144.5q156 0 274 37v475h-364v109h485v-645q-180 -88 -416 -89q-678 0 -678 728z" />
<glyph unicode="H" horiz-adv-x="1437" d="M180 0v1419h121v-639h836v639h120v-1419h-120v672h-836v-672h-121z" />
<glyph unicode="I" horiz-adv-x="497" d="M188 0v1419h121v-1419h-121z" />
<glyph unicode="J" horiz-adv-x="862" d="M61 25v100q125 -47 240 -47q141 0 204.5 72.5t63.5 234.5v1034h121v-1032q0 -209 -98 -315.5t-291 -106.5q-127 0 -240 60z" />
<glyph unicode="K" horiz-adv-x="1165" d="M180 0v1419h121v-657l651 657h156l-688 -692l745 -727h-166l-698 680v-680h-121z" />
<glyph unicode="L" horiz-adv-x="1040" d="M180 0v1419h121v-1310h713v-109h-834z" />
<glyph unicode="M" horiz-adv-x="1679" d="M180 0v1419h144l520 -913l516 913h139v-1419h-115v1237l-487 -858h-115l-487 852v-1231h-115z" />
<glyph unicode="N" horiz-adv-x="1425" d="M180 0v1419h139l809 -1245v1245h117v-1419h-139l-809 1241v-1241h-117z" />
<glyph unicode="O" horiz-adv-x="1581" d="M139 707q0 350 172 545.5t480 195.5q307 0 479 -195.5t172 -545.5t-172 -546t-479 -196t-479.5 196t-172.5 546zM266 707q0 -309 133 -469t392 -160q258 0 391 159.5t133 469.5q0 309 -133 468.5t-391 159.5t-391.5 -159.5t-133.5 -468.5z" />
<glyph unicode="P" horiz-adv-x="1193" d="M180 0v1419h490q195 0 310.5 -114.5t115.5 -307.5q0 -190 -116 -304.5t-310 -114.5h-373v-578h-117zM297 686h369q303 0 303 311q0 313 -303 314h-369v-625z" />
<glyph unicode="Q" horiz-adv-x="1581" d="M139 707q0 350 172 545.5t480 195.5q307 0 479 -195.5t172 -545.5q0 -311 -137.5 -502t-389.5 -230q129 -76 253 -114.5t266 -48.5v-121q-178 16 -343 82.5t-341 193.5q-289 12 -450 206t-161 534zM266 707q0 -309 133 -469t392 -160q258 0 391 159.5t133 469.5 q0 309 -133 468.5t-391 159.5t-391.5 -159.5t-133.5 -468.5z" />
<glyph unicode="R" horiz-adv-x="1210" d="M180 0v1419h494q193 0 309.5 -110.5t116.5 -296.5q0 -156 -86 -259.5t-244 -138.5l408 -614h-142l-389 600h-350v-600h-117zM297 705h358q158 0 238 78.5t80 228.5q0 147 -77 223t-226 76h-373v-606z" />
<glyph unicode="S" horiz-adv-x="1138" d="M127 1073q0 170 122 275.5t320 105.5q90 0 189.5 -21.5t187.5 -60.5v-104q-206 73 -367 73h-4q-158 0 -241.5 -68.5t-83.5 -195.5q0 -72 25.5 -115.5t84 -79.5t166.5 -77l219 -84q147 -57 215 -140t68 -208q0 -182 -134 -295t-353 -113q-227 0 -406 86v105 q215 -78 395 -78q170 0 271.5 80t101.5 217q0 84 -55 143.5t-178 106.5l-238 92q-158 61 -231.5 146t-73.5 210z" />
<glyph unicode="T" horiz-adv-x="1136" d="M37 1311v108h1063v-108h-471v-1311h-121v1311h-471z" />
<glyph unicode="U" horiz-adv-x="1413" d="M172 516v903h121v-925q0 -201 106.5 -308.5t307.5 -107.5t307 107.5t106 308.5v925h121v-903q0 -268 -137 -409.5t-397 -141.5t-397.5 141.5t-137.5 409.5z" />
<glyph unicode="V" horiz-adv-x="1269" d="M29 1419h133l473 -1294l477 1294h129l-536 -1419h-140z" />
<glyph unicode="W" horiz-adv-x="1857" d="M41 1419h131l373 -1282l309 1235h147l308 -1239l381 1286h127l-439 -1419h-143l-311 1214l-310 -1214h-143z" />
<glyph unicode="X" horiz-adv-x="1191" d="M25 0l501 733l-469 686h144l399 -594l399 594h136l-469 -682l501 -737h-145l-432 641l-428 -641h-137z" />
<glyph unicode="Y" horiz-adv-x="1189" d="M37 1419h137l420 -790l428 790h131l-502 -909v-510h-121v514z" />
<glyph unicode="Z" horiz-adv-x="1157" d="M94 0v109l832 1202h-781v108h918v-106l-838 -1204h832v-109h-963z" />
<glyph unicode="[" horiz-adv-x="684" d="M180 -295v1839h455v-108h-334v-1622h334v-109h-455z" />
<glyph unicode="\" horiz-adv-x="886" d="M37 1544h119l694 -1839h-119z" />
<glyph unicode="]" horiz-adv-x="684" d="M49 -186h334v1622h-334v108h455v-1839h-455v109z" />
<glyph unicode="^" d="M131 653l416 766h106l416 -766h-123l-348 660l-348 -660h-119z" />
<glyph unicode="_" horiz-adv-x="1024" d="M0 -170h1024v-102h-1024v102z" />
<glyph unicode="`" horiz-adv-x="1163" d="M410 1544h166l178 -311h-98z" />
<glyph unicode="a" horiz-adv-x="1040" d="M94 274q0 150 102.5 236t278.5 86q137 0 293 -47v172q0 125 -59.5 179t-196.5 54q-164 0 -350 -65v96q78 35 176 55.5t192 20.5q180 0 267.5 -76t87.5 -229v-756h-105l-10 119q-176 -141 -369 -142q-141 0 -224 81t-83 216zM215 276q0 -94 51.5 -143t151.5 -49 q78 0 168 31.5t182 89.5v256q-137 37 -266 37q-287 0 -287 -222z" />
<glyph unicode="b" horiz-adv-x="1173" d="M160 0v1516h116v-596q90 72 179.5 106.5t183.5 34.5q199 0 313.5 -142.5t114.5 -390.5q0 -254 -121 -402.5t-325 -148.5q-188 0 -347 142l-12 -119h-102zM276 223q84 -74 164 -106.5t168 -32.5q168 0 253 109.5t85 326.5q0 434 -330 434q-88 0 -169.5 -31.5t-170.5 -99.5 v-600z" />
<glyph unicode="c" horiz-adv-x="923" d="M106 514q0 262 125 400.5t363 138.5q127 0 240 -49v-97q-113 37 -234 37q-195 0 -282 -99.5t-87 -318.5v-24q0 -213 88.5 -314.5t276.5 -101.5q113 0 250 45v-96q-127 -57 -256 -58q-238 0 -361 136.5t-123 400.5z" />
<glyph unicode="d" horiz-adv-x="1169" d="M106 510q0 254 119 402.5t324 148.5q190 0 344 -135v590h117v-1516h-105l-12 115q-76 -63 -169 -100.5t-179 -37.5q-203 0 -321 142.5t-118 390.5zM227 516q0 -432 344 -432q154 0 322 131v606q-86 70 -165 101.5t-167 31.5q-164 0 -249 -110.5t-85 -327.5z" />
<glyph unicode="e" horiz-adv-x="1060" d="M106 518q0 258 124 400.5t348 142.5q186 0 285.5 -106.5t99.5 -305.5q0 -92 -13 -153h-725q2 -215 94.5 -317.5t284.5 -102.5q176 0 338 71v-96q-145 -82 -346 -82q-244 0 -367 138.5t-123 410.5zM225 590h623q2 29 2 67q0 147 -72 223t-211 76q-324 0 -342 -366z" />
<glyph unicode="f" horiz-adv-x="720" d="M45 928v82l201 18v236q0 137 71.5 208.5t204.5 71.5q49 0 101.5 -9t89.5 -24v-96q-102 23 -176 23q-92 0 -133.5 -38t-41.5 -124v-246h340v-102h-340v-928h-116v928h-201z" />
<glyph unicode="g" horiz-adv-x="1161" d="M106 526q0 248 118 391.5t321 143.5q193 0 342 -137l12 106h102v-983q0 -242 -122.5 -367.5t-356.5 -125.5q-195 0 -334 77v97q172 -68 328 -68q190 0 279.5 94t89.5 297v101q-76 -63 -168 -100.5t-176 -37.5q-197 0 -316 140.5t-119 371.5zM227 532q0 -201 87 -306 t253 -105q154 0 318 131v569q-84 70 -162 101.5t-166 31.5q-164 0 -247 -106.5t-83 -315.5z" />
<glyph unicode="h" horiz-adv-x="1163" d="M160 0v1516h116v-603q100 70 210 109t214 39q150 0 229 -79t79 -232v-750h-117v700q0 133 -51.5 193.5t-163.5 60.5q-205 0 -400 -131v-823h-116z" />
<glyph unicode="i" horiz-adv-x="452" d="M139 1341q0 41 23.5 66t64.5 25t64.5 -25t23.5 -66t-23.5 -65.5t-64.5 -24.5t-64.5 24.5t-23.5 65.5zM168 0v1030h117v-1030h-117z" />
<glyph unicode="j" horiz-adv-x="452" d="M-68 -330q63 -12 125 -12q59 0 85 23.5t26 74.5v1274h117v-1259q0 -106 -54.5 -161.5t-154.5 -55.5q-74 0 -144 22v94zM139 1341q0 41 23.5 66t64.5 25t64.5 -25t23.5 -66t-23.5 -65.5t-64.5 -24.5t-64.5 24.5t-23.5 65.5z" />
<glyph unicode="k" horiz-adv-x="985" d="M160 0v1516h116v-945l510 459h160l-547 -487l582 -543h-168l-537 504v-504h-116z" />
<glyph unicode="l" horiz-adv-x="512" d="M160 176v1340h116v-1338q0 -45 17.5 -63.5t62.5 -18.5q33 0 82 6v-94q-53 -14 -104 -14q-82 0 -128 48t-46 134z" />
<glyph unicode="m" horiz-adv-x="1787" d="M160 0v1030h102l12 -112q92 70 193.5 106.5t198.5 36.5q193 0 258 -158q96 76 204.5 117t214.5 41q141 0 215 -80t74 -231v-750h-116v700q0 133 -47.5 193.5t-149.5 60.5q-195 0 -371 -129q6 -49 6 -96v-729h-116v700q0 133 -47.5 193.5t-149.5 60.5q-190 0 -365 -125 v-829h-116z" />
<glyph unicode="n" horiz-adv-x="1163" d="M160 0v1030h102l12 -119q100 72 211 111t215 39q150 0 229 -79t79 -232v-750h-117v700q0 133 -51.5 193.5t-163.5 60.5q-205 0 -400 -131v-823h-116z" />
<glyph unicode="o" horiz-adv-x="1163" d="M106 516q0 258 125 401.5t351 143.5q225 0 350 -143.5t125 -401.5t-125 -402.5t-350 -144.5t-350.5 144.5t-125.5 402.5zM227 516q1 -440 355 -440t354 440q0 438 -354 438t-355 -438z" />
<glyph unicode="p" horiz-adv-x="1173" d="M160 -422v1452h102l10 -115q94 76 183.5 111t183.5 35q199 0 313.5 -142.5t114.5 -390.5q0 -252 -121 -401.5t-325 -149.5q-188 0 -345 140v-539h-116zM276 223q84 -72 164 -105.5t168 -33.5q168 0 253 109.5t85 326.5q0 434 -330 434q-170 0 -340 -131v-600z" />
<glyph unicode="q" horiz-adv-x="1169" d="M106 510q0 254 119 402.5t324 148.5q195 0 346 -139l12 108h103v-1452h-117v537q-76 -63 -169 -100.5t-179 -37.5q-203 0 -321 142.5t-118 390.5zM227 516q0 -432 344 -432q154 0 322 131v606q-86 70 -165 101.5t-167 31.5q-164 0 -249 -110.5t-85 -327.5z" />
<glyph unicode="r" horiz-adv-x="704" d="M160 0v1030h102l12 -149q78 86 153 121.5t169 35.5q35 0 84 -6v-104q-53 4 -96 4q-94 0 -167 -35t-141 -113v-784h-116z" />
<glyph unicode="s" horiz-adv-x="862" d="M86 43v96q179 -65 337 -65h5q125 0 190.5 50t65.5 146q0 55 -40 94t-134 74l-186 70q-219 82 -220 268q0 127 95.5 206t249.5 79q72 0 149.5 -16.5t142.5 -45.5v-96q-166 53 -299 53q-111 0 -168 -44t-57 -130q0 -70 40 -107.5t157 -82.5l164 -62q115 -43 167 -105.5 t52 -154.5q0 -139 -101.5 -220t-275.5 -81q-186 0 -334 74z" />
<glyph unicode="t" horiz-adv-x="741" d="M37 928v82l196 18l17 301h96v-299h328v-102h-328v-682q0 -84 36 -119t120 -35t182 25v-94q-86 -35 -207 -35t-184.5 64.5t-63.5 187.5v688h-192z" />
<glyph unicode="u" horiz-adv-x="1134" d="M152 283v747h116v-698q0 -135 51.5 -195.5t161.5 -60.5q100 0 188.5 30.5t188.5 100.5v823h117v-1030h-103l-12 113q-195 -143 -403 -144q-147 0 -226 80t-79 234z" />
<glyph unicode="v" horiz-adv-x="995" d="M20 1030h127l353 -909l352 909h123l-416 -1030h-123z" />
<glyph unicode="w" horiz-adv-x="1521" d="M25 1030h125l286 -895l256 895h137l254 -901l293 901h121l-358 -1030h-127l-256 899l-254 -899h-127z" />
<glyph unicode="x" horiz-adv-x="940" d="M20 0l383 537l-350 493h137l283 -403l283 403h129l-348 -485l383 -545h-140l-317 455l-311 -455h-132z" />
<glyph unicode="y" horiz-adv-x="995" d="M20 1030h127l351 -907l354 907h123l-502 -1247q-49 -125 -112.5 -177t-163.5 -52q-70 0 -125 24v92q53 -12 116 -12q68 0 108 35t77 125l69 172z" />
<glyph unicode="z" horiz-adv-x="946" d="M82 0v104l647 824h-627v102h758v-104l-651 -824h655v-102h-782z" />
<glyph unicode="{" horiz-adv-x="755" d="M66 575v99h40q90 0 127 35.5t37 124.5v421q0 145 74 225.5t209 80.5q90 0 154 -27v-96q-82 16 -142 16q-90 0 -132 -45t-42 -145v-412q0 -96 -36 -148.5t-119 -78.5q84 -27 119.5 -79t35.5 -149v-411q0 -100 42 -145.5t132 -45.5q59 0 142 17v-97q-63 -27 -154 -26 q-135 0 -209 79.5t-74 225.5v422q0 88 -36.5 123.5t-127.5 35.5h-40z" />
<glyph unicode="|" horiz-adv-x="503" d="M193 -422v1966h118v-1966h-118z" />
<glyph unicode="}" horiz-adv-x="755" d="M49 -188q82 -16 141 -17q90 0 132.5 45t42.5 146v411q0 98 35.5 150.5t117.5 77.5q-82 25 -117.5 77t-35.5 150v412q0 100 -42 145t-133 45q-59 0 -141 -16v96q63 27 154 27q135 0 208.5 -80t73.5 -226v-421q0 -88 37 -124t127 -36h41v-99h-41q-90 0 -127 -35.5 t-37 -123.5v-422q0 -145 -73.5 -225t-208.5 -80q-90 0 -154 26v97z" />
<glyph unicode="~" d="M125 635q0 115 61.5 178.5t171.5 63.5q113 0 254 -107q94 -72 136.5 -92.5t93.5 -20.5q63 0 93 35t38 117l4 57h94q4 -41 4 -71q0 -115 -61.5 -178.5t-171.5 -63.5q-113 0 -254 106q-94 72 -136 92.5t-94 20.5q-63 0 -92.5 -35t-38.5 -116l-4 -58h-94q-4 41 -4 72z" />
<glyph unicode="&#xa1;" horiz-adv-x="454" d="M135 948q0 41 25.5 67.5t66.5 26.5t66.5 -26.5t25.5 -67.5q0 -43 -25.5 -69.5t-66.5 -26.5t-66.5 26.5t-25.5 69.5zM162 -389l14 1028h103l14 -1028q-29 -16 -66 -17q-37 0 -65 17z" />
<glyph unicode="&#xa2;" d="M209 575q0 236 103.5 370t301.5 161v313h103v-305h8q145 0 262 -51v-96q-123 41 -256 41h-14v-863h8q125 0 274 50v-97q-131 -59 -278 -59h-4v-305h-103v311q-406 53 -405 530zM334 563q0 -182 68.5 -282.5t211.5 -126.5v845q-147 -27 -213.5 -126t-66.5 -285v-25z" />
<glyph unicode="&#xa3;" d="M164 666v104h182q-18 76 -33.5 146.5t-15.5 136.5q0 115 52 204t149.5 140t228.5 51q90 0 178 -23.5t160 -68.5v-107q-96 47 -174 67.5t-158 20.5q-156 0 -235.5 -74.5t-79.5 -220.5q0 -61 13 -129.5t32 -142.5h448v-104h-428q18 -102 19 -174q0 -221 -148 -383h733v-109 h-874v104q168 152 168 394q0 90 -14 168h-203z" />
<glyph unicode="&#xa4;" d="M94 221l166 168q-96 123 -96 307t94 308l-164 167l78 72l162 -170q109 78 266 78q154 0 266 -78l162 170l78 -72l-166 -167q96 -123 96 -308q0 -184 -94 -307l164 -168l-78 -71l-162 169q-108 -77 -266 -77q-154 0 -266 77l-162 -169zM279 696q-1 -352 321 -352t322 352 t-322 353q-322 0 -321 -353z" />
<glyph unicode="&#xa5;" d="M57 1419h133l416 -792l410 792h127l-365 -678h262v-98h-313l-68 -127v-76h379v-98h-379v-342h-116v342h-377v98h377v78l-68 125h-309v98h256z" />
<glyph unicode="&#xa6;" horiz-adv-x="503" d="M193 309h118v-731h-118v731zM193 813v731h118v-731h-118z" />
<glyph unicode="&#xa7;" horiz-adv-x="958" d="M82 664q0 63 24.5 114t70.5 86t114 49q-178 82 -178 246q0 133 97 211t265 78q150 0 303 -64v-96q-182 55 -309 55q-244 0 -244 -182q0 -66 39 -103.5t148 -78.5l184 -70q150 -57 215.5 -132t65.5 -187q0 -92 -46.5 -160t-134.5 -102q141 -80 142 -224 q0 -137 -108.5 -219t-287.5 -82q-193 0 -348 78v96q100 -35 184 -51t173 -16q133 0 202.5 49t69.5 143q0 66 -40 106t-148 81l-185 69q-145 55 -206.5 125t-61.5 181zM195 664q0 -74 52 -126.5t171 -97.5l168 -63q178 37 178 213q0 76 -56.5 131t-179.5 102l-102 37 q-231 -12 -231 -196z" />
<glyph unicode="&#xa8;" horiz-adv-x="1163" d="M289 1331q0 43 23.5 66.5t62.5 23.5t62.5 -23.5t23.5 -64.5q0 -43 -23.5 -66.5t-62.5 -23.5t-62.5 23.5t-23.5 64.5zM703 1331q0 43 23.5 66.5t62.5 23.5t62.5 -23.5t23.5 -64.5q0 -43 -23.5 -66.5t-62.5 -23.5t-62.5 23.5t-23.5 64.5z" />
<glyph unicode="&#xa9;" horiz-adv-x="1576" d="M61 707q0 209 90.5 376.5t256 266t380.5 98.5q205 0 370 -91t261.5 -260t96.5 -390q0 -209 -90.5 -377t-256.5 -266.5t-381 -98.5q-205 0 -369.5 91t-261 260t-96.5 391zM170 707q0 -186 74.5 -332t216 -229t327.5 -83q178 0 318.5 79t220.5 225.5t80 339.5 q0 186 -75 331.5t-216 228.5t-328 83q-178 0 -318 -79t-220 -225.5t-80 -338.5zM467 711q0 195 95 302t265 107q98 0 179 -35v-88q-76 23 -175 23q-125 0 -184 -70.5t-59 -222.5v-29q0 -152 61.5 -224.5t190.5 -72.5q84 0 174 27v-90q-88 -37 -189 -37q-172 0 -265 107.5 t-93 302.5z" />
<glyph unicode="&#xaa;" horiz-adv-x="796" d="M78 893q0 102 75.5 163.5t202.5 61.5q94 0 193 -28v90q0 90 -39 129t-125 39q-117 0 -256 -54v82q119 59 272 60q131 0 193.5 -56.5t62.5 -173.5v-497h-94l-10 77q-123 -94 -256 -94q-102 0 -160.5 53.5t-58.5 147.5zM90 473v92h567v-92h-567zM184 899q0 -55 35 -87 t98 -32q117 0 232 76v158q-82 20 -176 20q-188 0 -189 -135z" />
<glyph unicode="&#xab;" horiz-adv-x="929" d="M102 530l279 426h119l-267 -426l267 -426h-119zM417 530l279 426h119l-267 -426l267 -426h-119z" />
<glyph unicode="&#xac;" d="M152 848v102h897v-461h-111v359h-786z" />
<glyph unicode="&#xad;" horiz-adv-x="776" d="M102 477v109h572v-109h-572z" />
<glyph unicode="&#xae;" horiz-adv-x="1093" d="M61 1057q0 137 59.5 247.5t171 175t255.5 64.5q137 0 246.5 -59.5t174 -171t64.5 -254.5q0 -137 -59.5 -248t-171 -175.5t-254.5 -64.5q-137 0 -247 59.5t-174.5 171t-64.5 255.5zM147 1057q0 -188 109 -300t291 -112q180 0 289.5 112.5t109.5 301.5q0 188 -108.5 299.5 t-290.5 111.5q-180 0 -290 -112.5t-110 -300.5zM379 795v536h190q82 0 130.5 -45t48.5 -121q0 -55 -29 -93t-82 -54l145 -223h-96l-127 213h-94v-213h-86zM465 1071h88q104 0 104 92q0 47 -23.5 74t-64.5 27h-104v-193z" />
<glyph unicode="&#xaf;" horiz-adv-x="1163" d="M269 1323v96h626v-96h-626z" />
<glyph unicode="&#xb0;" horiz-adv-x="753" d="M109 1159q0 125 74.5 201t193.5 76t193.5 -76t74.5 -201t-74.5 -200.5t-193.5 -75.5t-193.5 75.5t-74.5 200.5zM211 1159q0 -90 44 -140t122 -50t122 50t44 140t-44 140.5t-122 50.5t-122 -50.5t-44 -140.5z" />
<glyph unicode="&#xb1;" d="M152 101v102h897v-102h-897zM152 805v102h393v410h110v-410h394v-102h-394v-410h-110v410h-393z" />
<glyph unicode="&#xb2;" horiz-adv-x="839" d="M147 799v88q172 160 253 246t112 140t31 106q0 59 -36 92t-101 33q-104 0 -236 -86v96q113 88 246 88q109 0 175 -60.5t66 -158.5q0 -66 -35.5 -128.5t-116.5 -146.5t-231 -215h418v-94h-545z" />
<glyph unicode="&#xb3;" horiz-adv-x="839" d="M154 834v86q121 -45 239 -45q96 0 147.5 39t51.5 110q0 141 -189 142q-80 0 -139 -7v70l266 264h-372v92h495v-86l-243 -245h34q121 0 189.5 -61.5t68.5 -168.5q0 -111 -85 -176t-228 -65q-135 0 -235 51z" />
<glyph unicode="&#xb4;" horiz-adv-x="1163" d="M410 1233l178 311h166l-246 -311h-98z" />
<glyph unicode="&#xb5;" d="M182 -422v1452h117v-698q0 -256 236 -256q94 0 176 31.5t178 107.5v815h117v-856q0 -43 18 -60.5t63 -17.5q33 0 70 6v-94q-57 -14 -100 -14q-63 0 -105.5 32.5t-56.5 96.5q-82 -74 -178 -114t-191 -40q-160 0 -227 84v-475h-117z" />
<glyph unicode="&#xb6;" horiz-adv-x="1202" d="M78 954q0 219 141 342t393 123h402v-1632h-121v1530h-279v-1739h-120v952q-199 23 -307.5 133.5t-108.5 290.5z" />
<glyph unicode="&#xb7;" horiz-adv-x="438" d="M127 531q0 43 25.5 69.5t66.5 26.5t66.5 -26.5t25.5 -69.5q0 -41 -25.5 -67.5t-66.5 -26.5t-66.5 26.5t-25.5 67.5z" />
<glyph unicode="&#xb8;" horiz-adv-x="1163" d="M434 -508q88 57 135 115.5t47 103.5q0 61 -90 62q-41 0 -84 -6v81q56 17 109 17q80 0 128 -38t48 -101q0 -76 -59.5 -152t-169.5 -135z" />
<glyph unicode="&#xb9;" horiz-adv-x="839" d="M190 1374v95l252 116h101v-786h-109v674z" />
<glyph unicode="&#xba;" horiz-adv-x="839" d="M90 1065q0 174 87 272.5t243 98.5t243 -98.5t87 -274.5q0 -174 -87 -272.5t-243 -98.5t-243 98.5t-87 274.5zM106 473v92h627v-92h-627zM201 1065q0 -137 55 -208t164 -71q106 0 162.5 72t56.5 205q0 137 -55.5 207.5t-163.5 70.5q-106 0 -162.5 -71.5t-56.5 -204.5z" />
<glyph unicode="&#xbb;" horiz-adv-x="929" d="M115 104l266 426l-266 426h118l279 -426l-279 -426h-118zM430 104l266 426l-266 426h118l279 -426l-279 -426h-118z" />
<glyph unicode="&#xbc;" horiz-adv-x="1925" d="M190 1208v95l252 116h101v-786h-109v674zM594 0l686 1419h116l-686 -1419h-116zM1191 168v86l404 545h106v-541h125v-90h-125v-168h-104v168h-406zM1302 258h295v399z" />
<glyph unicode="&#xbd;" horiz-adv-x="1925" d="M190 1208v95l252 116h101v-786h-109v674zM523 0l686 1419h116l-686 -1419h-116zM1232 0v88q172 160 253 246t112 140t31 106q0 59 -36 92t-101 33q-104 0 -236 -86v96q113 88 246 88q109 0 175 -60.5t66 -158.5q0 -66 -35.5 -128.5t-116.5 -146.5t-231 -215h418v-94h-545 z" />
<glyph unicode="&#xbe;" horiz-adv-x="1925" d="M154 668v86q121 -45 239 -45q96 0 147.5 39t51.5 110q0 141 -189 142q-80 0 -139 -7v70l266 264h-372v92h495v-86l-243 -245h34q121 0 189.5 -61.5t68.5 -168.5q0 -111 -85 -176t-228 -65q-135 0 -235 51zM596 0l686 1419h116l-686 -1419h-116zM1191 168v86l404 545h106 v-541h125v-90h-125v-168h-104v168h-406zM1302 258h295v399z" />
<glyph unicode="&#xbf;" horiz-adv-x="851" d="M68 -94q0 279 372 440v293h103l20 -334l-86 -43q-152 -76 -220.5 -159t-68.5 -189q0 -109 67 -165t194 -56q76 0 151.5 21.5t175.5 72.5v-104q-76 -47 -165 -74t-177 -27q-170 0 -268 87t-98 237zM397 948q0 41 25.5 67.5t66.5 26.5t67 -26.5t26 -67.5q0 -43 -26 -69.5 t-67 -26.5t-66.5 26.5t-25.5 69.5z" />
<glyph unicode="&#xc0;" horiz-adv-x="1275" d="M29 0l544 1419h129l545 -1419h-125l-159 426h-656l-160 -426h-118zM326 1815h180l188 -240h-118zM346 526h580l-291 766z" />
<glyph unicode="&#xc1;" horiz-adv-x="1275" d="M29 0l544 1419h129l545 -1419h-125l-159 426h-656l-160 -426h-118zM346 526h580l-291 766zM576 1575l188 240h180l-250 -240h-118z" />
<glyph unicode="&#xc2;" horiz-adv-x="1275" d="M29 0l544 1419h129l545 -1419h-125l-159 426h-656l-160 -426h-118zM293 1575l279 264h126l279 -264h-145l-197 178l-197 -178h-145zM346 526h580l-291 766z" />
<glyph unicode="&#xc3;" horiz-adv-x="1275" d="M29 0l544 1419h129l545 -1419h-125l-159 426h-656l-160 -426h-118zM318 1638q0 86 47 133.5t129 47.5q88 0 161 -72q39 -37 67.5 -52.5t59.5 -15.5q35 0 53.5 21.5t22.5 73.5l2 38h88q6 -20 6 -49q0 -86 -47 -133t-129 -47q-88 0 -161 72q-39 37 -68 52t-59 15 q-35 0 -53.5 -21.5t-22.5 -72.5l-2 -39h-88q-6 23 -6 49zM346 526h580l-291 766z" />
<glyph unicode="&#xc4;" horiz-adv-x="1275" d="M29 0l544 1419h129l545 -1419h-125l-159 426h-656l-160 -426h-118zM342 1700q0 41 24.5 66.5t65.5 25.5t65.5 -25.5t24.5 -66.5t-24.5 -66.5t-65.5 -25.5t-65.5 25.5t-24.5 66.5zM346 526h580l-291 766zM748 1700q0 41 24.5 66.5t65.5 25.5t65.5 -25.5t24.5 -66.5 t-24.5 -66.5t-65.5 -25.5t-65.5 25.5t-24.5 66.5z" />
<glyph unicode="&#xc5;" horiz-adv-x="1275" d="M29 0l544 1419h129l545 -1419h-125l-159 426h-656l-160 -426h-118zM346 526h580l-291 766zM428 1702q0 84 57.5 135t149.5 51t149.5 -51t57.5 -135t-57.5 -135t-149.5 -51t-149.5 51t-57.5 135zM526 1702q0 -49 29 -77t80 -28t80 28t29 77t-29 76.5t-80 27.5t-80 -27.5 t-29 -76.5z" />
<glyph unicode="&#xc6;" horiz-adv-x="1908" d="M29 0l852 1419h925v-108h-716v-523h614v-108h-614v-571h716v-109h-837v485h-520l-289 -485h-131zM506 584h463v727h-29z" />
<glyph unicode="&#xc7;" horiz-adv-x="1222" d="M139 705q0 356 174 543.5t500 187.5q176 0 315 -56v-106q-174 45 -301 45q-281 0 -419 -146.5t-138 -441.5v-51q0 -586 543 -586q139 0 336 51v-106q-158 -61 -346 -62q-328 0 -496 184.5t-168 543.5zM627 -506q86 59 132 114.5t46 98.5q0 61 -86 62q-39 0 -82 -7v86 q55 17 108 17q80 0 128 -38t48 -101q0 -76 -59 -152t-170 -135z" />
<glyph unicode="&#xc8;" horiz-adv-x="1120" d="M180 0v1419h838v-108h-717v-523h614v-108h-614v-571h717v-109h-838zM289 1815h180l188 -240h-118z" />
<glyph unicode="&#xc9;" horiz-adv-x="1120" d="M180 0v1419h838v-108h-717v-523h614v-108h-614v-571h717v-109h-838zM539 1575l188 240h180l-250 -240h-118z" />
<glyph unicode="&#xca;" horiz-adv-x="1120" d="M180 0v1419h838v-108h-717v-523h614v-108h-614v-571h717v-109h-838zM256 1575l279 264h126l279 -264h-145l-197 178l-197 -178h-145z" />
<glyph unicode="&#xcb;" horiz-adv-x="1120" d="M180 0v1419h838v-108h-717v-523h614v-108h-614v-571h717v-109h-838zM305 1700q0 41 24.5 66.5t65.5 25.5t65.5 -25.5t24.5 -66.5t-24.5 -66.5t-65.5 -25.5t-65.5 25.5t-24.5 66.5zM711 1700q0 41 24.5 66.5t65.5 25.5t65.5 -25.5t24.5 -66.5t-24.5 -66.5t-65.5 -25.5 t-65.5 25.5t-24.5 66.5z" />
<glyph unicode="&#xcc;" horiz-adv-x="497" d="M-61 1815h180l188 -240h-118zM188 0v1419h121v-1419h-121z" />
<glyph unicode="&#xcd;" horiz-adv-x="497" d="M188 0v1419h121v-1419h-121zM189 1575l188 240h180l-250 -240h-118z" />
<glyph unicode="&#xce;" horiz-adv-x="497" d="M-94 1575l279 264h126l279 -264h-145l-197 178l-197 -178h-145zM188 0v1419h121v-1419h-121z" />
<glyph unicode="&#xcf;" horiz-adv-x="497" d="M-45 1700q0 41 24.5 66.5t65.5 25.5t65.5 -25.5t24.5 -66.5t-24.5 -66.5t-65.5 -25.5t-65.5 25.5t-24.5 66.5zM188 0v1419h121v-1419h-121zM361 1700q0 41 24.5 66.5t65.5 25.5t65.5 -25.5t24.5 -66.5t-24.5 -66.5t-65.5 -25.5t-65.5 25.5t-24.5 66.5z" />
<glyph unicode="&#xd0;" horiz-adv-x="1396" d="M37 678v104h164v637h428q309 0 468.5 -181t159.5 -529q0 -346 -165.5 -527.5t-479.5 -181.5h-411v678h-164zM322 100h276q264 0 398 146.5t134 437.5v51q0 584 -530 584h-278v-537h354v-104h-354v-578z" />
<glyph unicode="&#xd1;" horiz-adv-x="1425" d="M180 0v1419h139l809 -1245v1245h117v-1419h-139l-809 1241v-1241h-117zM406 1638q0 86 47 133.5t129 47.5q88 0 161 -72q39 -37 67.5 -52.5t59.5 -15.5q35 0 53.5 21.5t22.5 73.5l2 38h88q6 -20 6 -49q0 -86 -47 -133t-129 -47q-88 0 -161 72q-39 37 -68 52t-59 15 q-35 0 -53.5 -21.5t-22.5 -72.5l-2 -39h-88q-6 23 -6 49z" />
<glyph unicode="&#xd2;" horiz-adv-x="1581" d="M139 707q0 350 172 545.5t480 195.5q307 0 479 -195.5t172 -545.5t-172 -546t-479 -196t-479.5 196t-172.5 546zM266 707q0 -309 133 -469t392 -160q258 0 391 159.5t133 469.5q0 309 -133 468.5t-391 159.5t-391.5 -159.5t-133.5 -468.5zM482 1815h180l188 -240h-118z " />
<glyph unicode="&#xd3;" horiz-adv-x="1581" d="M139 707q0 350 172 545.5t480 195.5q307 0 479 -195.5t172 -545.5t-172 -546t-479 -196t-479.5 196t-172.5 546zM266 707q0 -309 133 -469t392 -160q258 0 391 159.5t133 469.5q0 309 -133 468.5t-391 159.5t-391.5 -159.5t-133.5 -468.5zM732 1575l188 240h180 l-250 -240h-118z" />
<glyph unicode="&#xd4;" horiz-adv-x="1581" d="M139 707q0 350 172 545.5t480 195.5q307 0 479 -195.5t172 -545.5t-172 -546t-479 -196t-479.5 196t-172.5 546zM266 707q0 -309 133 -469t392 -160q258 0 391 159.5t133 469.5q0 309 -133 468.5t-391 159.5t-391.5 -159.5t-133.5 -468.5zM449 1575l279 264h126l279 -264 h-145l-197 178l-197 -178h-145z" />
<glyph unicode="&#xd5;" horiz-adv-x="1581" d="M139 707q0 350 172 545.5t480 195.5q307 0 479 -195.5t172 -545.5t-172 -546t-479 -196t-479.5 196t-172.5 546zM266 707q0 -309 133 -469t392 -160q258 0 391 159.5t133 469.5q0 309 -133 468.5t-391 159.5t-391.5 -159.5t-133.5 -468.5zM474 1638q0 86 47 133.5 t129 47.5q88 0 161 -72q39 -37 67.5 -52.5t59.5 -15.5q35 0 53.5 21.5t22.5 73.5l2 38h88q6 -20 6 -49q0 -86 -47 -133t-129 -47q-88 0 -161 72q-39 37 -68 52t-59 15q-35 0 -53.5 -21.5t-22.5 -72.5l-2 -39h-88q-6 23 -6 49z" />
<glyph unicode="&#xd6;" horiz-adv-x="1581" d="M139 707q0 350 172 545.5t480 195.5q307 0 479 -195.5t172 -545.5t-172 -546t-479 -196t-479.5 196t-172.5 546zM266 707q0 -309 133 -469t392 -160q258 0 391 159.5t133 469.5q0 309 -133 468.5t-391 159.5t-391.5 -159.5t-133.5 -468.5zM498 1700q0 41 24.5 66.5 t65.5 25.5t65.5 -25.5t24.5 -66.5t-24.5 -66.5t-65.5 -25.5t-65.5 25.5t-24.5 66.5zM904 1700q0 41 24.5 66.5t65.5 25.5t65.5 -25.5t24.5 -66.5t-24.5 -66.5t-65.5 -25.5t-65.5 25.5t-24.5 66.5z" />
<glyph unicode="&#xd7;" d="M199 360l329 340l-325 336l80 80l317 -342l318 342l79 -80l-325 -336l329 -340l-77 -77l-324 348l-324 -348z" />
<glyph unicode="&#xd8;" horiz-adv-x="1581" d="M139 707q0 350 172 545.5t480 195.5q252 0 417 -137l138 172l81 -66l-145 -180q160 -195 160 -530q0 -350 -172 -546t-479 -196q-254 0 -418 135l-131 -166l-82 66l139 174q-160 195 -160 533zM266 707q0 -279 109 -437l762 951q-131 115 -346 114q-258 0 -391.5 -159.5 t-133.5 -468.5zM444 190q127 -113 347 -112q258 0 391 160t133 469q0 276 -109 434z" />
<glyph unicode="&#xd9;" horiz-adv-x="1413" d="M172 516v903h121v-925q0 -201 106.5 -308.5t307.5 -107.5t307 107.5t106 308.5v925h121v-903q0 -268 -137 -409.5t-397 -141.5t-397.5 141.5t-137.5 409.5zM398 1815h180l188 -240h-118z" />
<glyph unicode="&#xda;" horiz-adv-x="1413" d="M172 516v903h121v-925q0 -201 106.5 -308.5t307.5 -107.5t307 107.5t106 308.5v925h121v-903q0 -268 -137 -409.5t-397 -141.5t-397.5 141.5t-137.5 409.5zM648 1575l188 240h180l-250 -240h-118z" />
<glyph unicode="&#xdb;" horiz-adv-x="1413" d="M172 516v903h121v-925q0 -201 106.5 -308.5t307.5 -107.5t307 107.5t106 308.5v925h121v-903q0 -268 -137 -409.5t-397 -141.5t-397.5 141.5t-137.5 409.5zM365 1575l279 264h126l279 -264h-145l-197 178l-197 -178h-145z" />
<glyph unicode="&#xdc;" horiz-adv-x="1413" d="M172 516v903h121v-925q0 -201 106.5 -308.5t307.5 -107.5t307 107.5t106 308.5v925h121v-903q0 -268 -137 -409.5t-397 -141.5t-397.5 141.5t-137.5 409.5zM414 1700q0 41 24.5 66.5t65.5 25.5t65.5 -25.5t24.5 -66.5t-24.5 -66.5t-65.5 -25.5t-65.5 25.5t-24.5 66.5z M820 1700q0 41 24.5 66.5t65.5 25.5t65.5 -25.5t24.5 -66.5t-24.5 -66.5t-65.5 -25.5t-65.5 25.5t-24.5 66.5z" />
<glyph unicode="&#xdd;" horiz-adv-x="1189" d="M37 1419h137l420 -790l428 790h131l-502 -909v-510h-121v514zM539 1575l188 240h180l-250 -240h-118z" />
<glyph unicode="&#xde;" horiz-adv-x="1185" d="M180 0v1419h117v-274h365q195 0 310 -112.5t115 -305.5q0 -190 -115.5 -303t-309.5 -113h-365v-311h-117zM297 420h360q303 0 304 307q0 309 -304 309h-360v-616z" />
<glyph unicode="&#xdf;" horiz-adv-x="1187" d="M160 0v1030q0 244 118.5 379t329.5 135q166 0 267.5 -86t101.5 -227q0 -84 -37 -148.5t-127 -136.5q-70 -55 -96.5 -94t-26.5 -86q0 -31 15.5 -51.5t50.5 -45t104 -63.5l60 -33q115 -63 165 -130.5t50 -161.5q0 -141 -102.5 -226.5t-272.5 -85.5q-141 0 -254 58v96 q150 -49 256 -49q125 0 192.5 52t67.5 146q0 68 -37 114t-129 95l-76 41q-115 63 -158.5 114.5t-43.5 125.5q0 68 33.5 121t125.5 133q70 61 98.5 109.5t28.5 105.5q0 96 -70.5 152.5t-191.5 56.5q-160 0 -243 -103.5t-83 -302.5v-1034h-116z" />
<glyph unicode="&#xe0;" horiz-adv-x="1040" d="M94 274q0 150 102.5 236t278.5 86q137 0 293 -47v172q0 125 -59.5 179t-196.5 54q-164 0 -350 -65v96q78 35 176 55.5t192 20.5q180 0 267.5 -76t87.5 -229v-756h-105l-10 119q-176 -141 -369 -142q-141 0 -224 81t-83 216zM211 1544h166l178 -311h-98zM215 276 q0 -94 51.5 -143t151.5 -49q78 0 168 31.5t182 89.5v256q-137 37 -266 37q-287 0 -287 -222z" />
<glyph unicode="&#xe1;" horiz-adv-x="1040" d="M94 274q0 150 102.5 236t278.5 86q137 0 293 -47v172q0 125 -59.5 179t-196.5 54q-164 0 -350 -65v96q78 35 176 55.5t192 20.5q180 0 267.5 -76t87.5 -229v-756h-105l-10 119q-176 -141 -369 -142q-141 0 -224 81t-83 216zM215 276q0 -94 51.5 -143t151.5 -49 q78 0 168 31.5t182 89.5v256q-137 37 -266 37q-287 0 -287 -222zM457 1233l178 311h166l-246 -311h-98z" />
<glyph unicode="&#xe2;" horiz-adv-x="1040" d="M94 274q0 150 102.5 236t278.5 86q137 0 293 -47v172q0 125 -59.5 179t-196.5 54q-164 0 -350 -65v96q78 35 176 55.5t192 20.5q180 0 267.5 -76t87.5 -229v-756h-105l-10 119q-176 -141 -369 -142q-141 0 -224 81t-83 216zM172 1233l271 311h126l271 -311h-121l-213 223 l-213 -223h-121zM215 276q0 -94 51.5 -143t151.5 -49q78 0 168 31.5t182 89.5v256q-137 37 -266 37q-287 0 -287 -222z" />
<glyph unicode="&#xe3;" horiz-adv-x="1040" d="M94 274q0 150 102.5 236t278.5 86q137 0 293 -47v172q0 125 -59.5 179t-196.5 54q-164 0 -350 -65v96q78 35 176 55.5t192 20.5q180 0 267.5 -76t87.5 -229v-756h-105l-10 119q-176 -141 -369 -142q-141 0 -224 81t-83 216zM189 1307q0 86 47 133t129 47q88 0 161 -72 q41 -39 69.5 -55.5t57.5 -16.5q70 0 76 99l2 39h88q6 -20 6 -49q0 -86 -47 -133.5t-129 -47.5q-88 0 -161 72q-41 39 -70 55.5t-57 16.5q-70 0 -76 -99l-2 -39h-88q-6 23 -6 50zM215 276q0 -94 51.5 -143t151.5 -49q78 0 168 31.5t182 89.5v256q-137 37 -266 37 q-287 0 -287 -222z" />
<glyph unicode="&#xe4;" horiz-adv-x="1040" d="M94 274q0 150 102.5 236t278.5 86q137 0 293 -47v172q0 125 -59.5 179t-196.5 54q-164 0 -350 -65v96q78 35 176 55.5t192 20.5q180 0 267.5 -76t87.5 -229v-756h-105l-10 119q-176 -141 -369 -142q-141 0 -224 81t-83 216zM213 1331q0 43 23.5 66.5t62.5 23.5 t62.5 -23.5t23.5 -64.5q0 -43 -23.5 -66.5t-62.5 -23.5t-62.5 23.5t-23.5 64.5zM215 276q0 -94 51.5 -143t151.5 -49q78 0 168 31.5t182 89.5v256q-137 37 -266 37q-287 0 -287 -222zM627 1331q0 43 23.5 66.5t62.5 23.5t62.5 -23.5t23.5 -64.5q0 -43 -23.5 -66.5 t-62.5 -23.5t-62.5 23.5t-23.5 64.5z" />
<glyph unicode="&#xe5;" horiz-adv-x="1040" d="M94 274q0 150 102.5 236t278.5 86q137 0 293 -47v172q0 125 -59.5 179t-196.5 54q-164 0 -350 -65v96q78 35 176 55.5t192 20.5q180 0 267.5 -76t87.5 -229v-756h-105l-10 119q-176 -141 -369 -142q-141 0 -224 81t-83 216zM215 276q0 -94 51.5 -143t151.5 -49 q78 0 168 31.5t182 89.5v256q-137 37 -266 37q-287 0 -287 -222zM289 1399q0 92 60.5 147.5t156.5 55.5t156.5 -55.5t60.5 -147.5t-60.5 -147.5t-156.5 -55.5t-156.5 55.5t-60.5 147.5zM387 1399q0 -57 31 -89t88 -32t88 31.5t31 89.5q0 57 -31 89t-88 32t-88 -32t-31 -89z " />
<glyph unicode="&#xe6;" horiz-adv-x="1716" d="M94 279q0 154 105.5 240.5t294.5 86.5q117 0 278 -14v121q0 127 -63.5 184t-200.5 57q-156 0 -346 -65v96q167 76 360 76q281 0 334 -201q119 201 381 201q184 0 282.5 -107.5t98.5 -306.5q0 -86 -14 -158h-713q2 -215 91 -314t282 -99q176 0 333 71v-96 q-141 -82 -342 -82q-295 0 -409 201q-207 -193 -438 -193q-143 0 -228.5 82t-85.5 220zM215 281q0 -96 53.5 -146.5t155.5 -50.5q180 0 385 162q-39 111 -39 250q-131 12 -250 12q-156 0 -230.5 -56.5t-74.5 -170.5zM891 584h610q4 39 4 71q0 147 -70.5 224t-207.5 77 q-158 0 -243 -94t-93 -278z" />
<glyph unicode="&#xe7;" horiz-adv-x="923" d="M106 514q0 262 125 400.5t363 138.5q127 0 240 -49v-97q-113 37 -234 37q-195 0 -282 -99.5t-87 -318.5v-24q0 -213 88.5 -314.5t276.5 -101.5q113 0 250 45v-96q-127 -57 -256 -58q-238 0 -361 136.5t-123 400.5zM428 -508q88 57 135 115.5t47 103.5q0 61 -90 62 q-41 0 -84 -6v81q56 17 109 17q80 0 128 -38t48 -101q0 -76 -59.5 -152t-169.5 -135z" />
<glyph unicode="&#xe8;" horiz-adv-x="1060" d="M106 518q0 258 124 400.5t348 142.5q186 0 285.5 -106.5t99.5 -305.5q0 -92 -13 -153h-725q2 -215 94.5 -317.5t284.5 -102.5q176 0 338 71v-96q-145 -82 -346 -82q-244 0 -367 138.5t-123 410.5zM225 590h623q2 29 2 67q0 147 -72 223t-211 76q-324 0 -342 -366z M270 1544h166l178 -311h-98z" />
<glyph unicode="&#xe9;" horiz-adv-x="1060" d="M106 518q0 258 124 400.5t348 142.5q186 0 285.5 -106.5t99.5 -305.5q0 -92 -13 -153h-725q2 -215 94.5 -317.5t284.5 -102.5q176 0 338 71v-96q-145 -82 -346 -82q-244 0 -367 138.5t-123 410.5zM225 590h623q2 29 2 67q0 147 -72 223t-211 76q-324 0 -342 -366z M516 1233l178 311h166l-246 -311h-98z" />
<glyph unicode="&#xea;" horiz-adv-x="1060" d="M106 518q0 258 124 400.5t348 142.5q186 0 285.5 -106.5t99.5 -305.5q0 -92 -13 -153h-725q2 -215 94.5 -317.5t284.5 -102.5q176 0 338 71v-96q-145 -82 -346 -82q-244 0 -367 138.5t-123 410.5zM225 590h623q2 29 2 67q0 147 -72 223t-211 76q-324 0 -342 -366z M231 1233l271 311h126l271 -311h-121l-213 223l-213 -223h-121z" />
<glyph unicode="&#xeb;" horiz-adv-x="1060" d="M106 518q0 258 124 400.5t348 142.5q186 0 285.5 -106.5t99.5 -305.5q0 -92 -13 -153h-725q2 -215 94.5 -317.5t284.5 -102.5q176 0 338 71v-96q-145 -82 -346 -82q-244 0 -367 138.5t-123 410.5zM225 590h623q2 29 2 67q0 147 -72 223t-211 76q-324 0 -342 -366z M272 1331q0 43 23.5 66.5t62.5 23.5t62.5 -23.5t23.5 -64.5q0 -43 -23.5 -66.5t-62.5 -23.5t-62.5 23.5t-23.5 64.5zM686 1331q0 43 23.5 66.5t62.5 23.5t62.5 -23.5t23.5 -64.5q0 -43 -23.5 -66.5t-62.5 -23.5t-62.5 23.5t-23.5 64.5z" />
<glyph unicode="&#xec;" horiz-adv-x="452" d="M-70 1544h166l178 -311h-98zM168 0v1030h117v-1030h-117z" />
<glyph unicode="&#xed;" horiz-adv-x="452" d="M168 0v1030h117v-1030h-117zM176 1233l178 311h166l-246 -311h-98z" />
<glyph unicode="&#xee;" horiz-adv-x="452" d="M-109 1233l271 311h126l271 -311h-121l-213 223l-213 -223h-121zM168 0v1030h117v-1030h-117z" />
<glyph unicode="&#xef;" horiz-adv-x="452" d="M-68 1331q0 43 23.5 66.5t62.5 23.5t62.5 -23.5t23.5 -64.5q0 -43 -23.5 -66.5t-62.5 -23.5t-62.5 23.5t-23.5 64.5zM168 0v1030h117v-1030h-117zM346 1331q0 43 23.5 66.5t62.5 23.5t62.5 -23.5t23.5 -64.5q0 -43 -23.5 -66.5t-62.5 -23.5t-62.5 23.5t-23.5 64.5z" />
<glyph unicode="&#xf0;" horiz-adv-x="1134" d="M106 477q0 236 120 370t329 134q248 0 358 -190q-74 340 -290 493l-205 -188l-60 67l183 168q-127 68 -260 92v105q186 -33 337 -125l195 180l59 -70l-178 -163q164 -129 249 -329t85 -460q0 -293 -115.5 -442.5t-341.5 -149.5q-219 0 -342 135.5t-123 372.5zM225 479 q0 -201 85 -304t253 -103q170 0 261 105.5t91 299.5q0 195 -93 300.5t-261 105.5q-166 0 -251 -101.5t-85 -302.5z" />
<glyph unicode="&#xf1;" horiz-adv-x="1163" d="M160 0v1030h102l12 -119q100 72 211 111t215 39q150 0 229 -79t79 -232v-750h-117v700q0 133 -51.5 193.5t-163.5 60.5q-205 0 -400 -131v-823h-116zM291 1307q0 86 47 133t129 47q88 0 161 -72q41 -39 69.5 -55.5t57.5 -16.5q70 0 76 99l2 39h88q6 -20 6 -49 q0 -86 -47 -133.5t-129 -47.5q-88 0 -161 72q-41 39 -70 55.5t-57 16.5q-70 0 -76 -99l-2 -39h-88q-6 23 -6 50z" />
<glyph unicode="&#xf2;" horiz-adv-x="1163" d="M106 516q0 258 125 401.5t351 143.5q225 0 350 -143.5t125 -401.5t-125 -402.5t-350 -144.5t-350.5 144.5t-125.5 402.5zM227 516q1 -440 355 -440t354 440q0 438 -354 438t-355 -438zM287 1544h166l178 -311h-98z" />
<glyph unicode="&#xf3;" horiz-adv-x="1163" d="M106 516q0 258 125 401.5t351 143.5q225 0 350 -143.5t125 -401.5t-125 -402.5t-350 -144.5t-350.5 144.5t-125.5 402.5zM227 516q1 -440 355 -440t354 440q0 438 -354 438t-355 -438zM533 1233l178 311h166l-246 -311h-98z" />
<glyph unicode="&#xf4;" horiz-adv-x="1163" d="M106 516q0 258 125 401.5t351 143.5q225 0 350 -143.5t125 -401.5t-125 -402.5t-350 -144.5t-350.5 144.5t-125.5 402.5zM227 516q1 -440 355 -440t354 440q0 438 -354 438t-355 -438zM248 1233l271 311h126l271 -311h-121l-213 223l-213 -223h-121z" />
<glyph unicode="&#xf5;" horiz-adv-x="1163" d="M106 516q0 258 125 401.5t351 143.5q225 0 350 -143.5t125 -401.5t-125 -402.5t-350 -144.5t-350.5 144.5t-125.5 402.5zM227 516q1 -440 355 -440t354 440q0 438 -354 438t-355 -438zM265 1307q0 86 47 133t129 47q88 0 161 -72q41 -39 69.5 -55.5t57.5 -16.5 q70 0 76 99l2 39h88q6 -20 6 -49q0 -86 -47 -133.5t-129 -47.5q-88 0 -161 72q-41 39 -70 55.5t-57 16.5q-70 0 -76 -99l-2 -39h-88q-6 23 -6 50z" />
<glyph unicode="&#xf6;" horiz-adv-x="1163" d="M106 516q0 258 125 401.5t351 143.5q225 0 350 -143.5t125 -401.5t-125 -402.5t-350 -144.5t-350.5 144.5t-125.5 402.5zM227 516q1 -440 355 -440t354 440q0 438 -354 438t-355 -438zM289 1331q0 43 23.5 66.5t62.5 23.5t62.5 -23.5t23.5 -64.5q0 -43 -23.5 -66.5 t-62.5 -23.5t-62.5 23.5t-23.5 64.5zM703 1331q0 43 23.5 66.5t62.5 23.5t62.5 -23.5t23.5 -64.5q0 -43 -23.5 -66.5t-62.5 -23.5t-62.5 23.5t-23.5 64.5z" />
<glyph unicode="&#xf7;" d="M152 666v102h897v-102h-897zM514 362q0 41 24.5 66t61.5 25q39 0 62.5 -25t23.5 -66q0 -39 -23.5 -63.5t-62.5 -24.5t-62.5 25t-23.5 63zM514 1069q0 41 24.5 65.5t61.5 24.5q39 0 62.5 -24.5t23.5 -65.5q0 -39 -23.5 -63.5t-62.5 -24.5t-62.5 24.5t-23.5 63.5z" />
<glyph unicode="&#xf8;" horiz-adv-x="1163" d="M106 516q0 258 125 401.5t351 143.5q180 0 297 -94l96 118l76 -61l-103 -129q109 -143 109 -379q0 -258 -125 -402.5t-350 -144.5q-180 0 -299 94l-95 -118l-75 61l102 127q-109 139 -109 383zM227 516q0 -182 62 -291l522 656q-86 74 -229 73q-355 0 -355 -438zM350 150 q87 -74 232 -74q354 0 354 440q0 182 -62 287z" />
<glyph unicode="&#xf9;" horiz-adv-x="1134" d="M152 283v747h116v-698q0 -135 51.5 -195.5t161.5 -60.5q100 0 188.5 30.5t188.5 100.5v823h117v-1030h-103l-12 113q-195 -143 -403 -144q-147 0 -226 80t-79 234zM268 1544h166l178 -311h-98z" />
<glyph unicode="&#xfa;" horiz-adv-x="1134" d="M152 283v747h116v-698q0 -135 51.5 -195.5t161.5 -60.5q100 0 188.5 30.5t188.5 100.5v823h117v-1030h-103l-12 113q-195 -143 -403 -144q-147 0 -226 80t-79 234zM514 1233l178 311h166l-246 -311h-98z" />
<glyph unicode="&#xfb;" horiz-adv-x="1134" d="M152 283v747h116v-698q0 -135 51.5 -195.5t161.5 -60.5q100 0 188.5 30.5t188.5 100.5v823h117v-1030h-103l-12 113q-195 -143 -403 -144q-147 0 -226 80t-79 234zM229 1233l271 311h126l271 -311h-121l-213 223l-213 -223h-121z" />
<glyph unicode="&#xfc;" horiz-adv-x="1134" d="M152 283v747h116v-698q0 -135 51.5 -195.5t161.5 -60.5q100 0 188.5 30.5t188.5 100.5v823h117v-1030h-103l-12 113q-195 -143 -403 -144q-147 0 -226 80t-79 234zM270 1331q0 43 23.5 66.5t62.5 23.5t62.5 -23.5t23.5 -64.5q0 -43 -23.5 -66.5t-62.5 -23.5t-62.5 23.5 t-23.5 64.5zM684 1331q0 43 23.5 66.5t62.5 23.5t62.5 -23.5t23.5 -64.5q0 -43 -23.5 -66.5t-62.5 -23.5t-62.5 23.5t-23.5 64.5z" />
<glyph unicode="&#xfd;" horiz-adv-x="995" d="M20 1030h127l351 -907l354 907h123l-502 -1247q-49 -125 -112.5 -177t-163.5 -52q-70 0 -125 24v92q53 -12 116 -12q68 0 108 35t77 125l69 172zM451 1233l178 311h166l-246 -311h-98z" />
<glyph unicode="&#xfe;" horiz-adv-x="1173" d="M160 -422v1938h116v-598q92 74 180.5 108.5t182.5 34.5q199 0 313.5 -142.5t114.5 -390.5q0 -252 -120.5 -401.5t-325.5 -149.5q-188 0 -345 140v-539h-116zM276 223q84 -72 164 -105.5t168 -33.5q168 0 253 109.5t85 326.5q0 434 -330 434q-170 0 -340 -131v-600z" />
<glyph unicode="&#xff;" horiz-adv-x="995" d="M20 1030h127l351 -907l354 907h123l-502 -1247q-49 -125 -112.5 -177t-163.5 -52q-70 0 -125 24v92q53 -12 116 -12q68 0 108 35t77 125l69 172zM207 1331q0 43 23.5 66.5t62.5 23.5t62.5 -23.5t23.5 -64.5q0 -43 -23.5 -66.5t-62.5 -23.5t-62.5 23.5t-23.5 64.5z M621 1331q0 43 23.5 66.5t62.5 23.5t62.5 -23.5t23.5 -64.5q0 -43 -23.5 -66.5t-62.5 -23.5t-62.5 23.5t-23.5 64.5z" />
<glyph unicode="&#x152;" horiz-adv-x="2168" d="M139 707q0 350 164 545.5t457 195.5q164 0 290 -64.5t203 -189.5v225h813v-108h-696v-523h594v-108h-594v-571h696v-109h-813v219q-78 -125 -203.5 -189.5t-289.5 -64.5q-293 0 -457 195.5t-164 546.5zM266 707q0 -309 126 -469t368 -160q238 0 365.5 156.5t127.5 449.5 v43q0 295 -127 451.5t-366 156.5q-242 0 -368 -159.5t-126 -468.5z" />
<glyph unicode="&#x153;" horiz-adv-x="1830" d="M106 516q0 258 124 401.5t345 143.5q141 0 239.5 -64.5t148.5 -189.5q102 254 391 254q184 0 281.5 -107.5t97.5 -304.5q0 -92 -13 -153h-700q4 -219 91 -319.5t269 -100.5q174 0 332 71v-96q-141 -82 -340 -82q-160 0 -260 62.5t-149 193.5q-49 -127 -147.5 -191.5 t-240.5 -64.5q-221 0 -345 144.5t-124 402.5zM227 516q0 -440 348 -440q334 0 334 440q0 438 -334 438q-348 0 -348 -438zM1020 590h598q2 29 2 67q0 147 -70 223t-207 76q-307 0 -323 -366z" />
<glyph unicode="&#x178;" horiz-adv-x="1189" d="M37 1419h137l420 -790l428 790h131l-502 -909v-510h-121v514zM305 1700q0 41 24.5 66.5t65.5 25.5t65.5 -25.5t24.5 -66.5t-24.5 -66.5t-65.5 -25.5t-65.5 25.5t-24.5 66.5zM711 1700q0 41 24.5 66.5t65.5 25.5t65.5 -25.5t24.5 -66.5t-24.5 -66.5t-65.5 -25.5 t-65.5 25.5t-24.5 66.5z" />
<glyph unicode="&#x2c6;" horiz-adv-x="1163" d="M248 1233l271 311h126l271 -311h-121l-213 223l-213 -223h-121z" />
<glyph unicode="&#x2dc;" horiz-adv-x="1163" d="M263 1307q0 86 47 133t129 47q88 0 161 -72q41 -39 69.5 -55.5t57.5 -16.5q70 0 76 99l2 39h88q6 -20 6 -49q0 -86 -47 -133.5t-129 -47.5q-88 0 -161 72q-41 39 -70 55.5t-57 16.5q-70 0 -76 -99l-2 -39h-88q-6 23 -6 50z" />
<glyph unicode="&#x2000;" horiz-adv-x="944" />
<glyph unicode="&#x2001;" horiz-adv-x="1888" />
<glyph unicode="&#x2002;" horiz-adv-x="944" />
<glyph unicode="&#x2003;" horiz-adv-x="1888" />
<glyph unicode="&#x2004;" horiz-adv-x="629" />
<glyph unicode="&#x2005;" horiz-adv-x="472" />
<glyph unicode="&#x2006;" horiz-adv-x="314" />
<glyph unicode="&#x2007;" horiz-adv-x="314" />
<glyph unicode="&#x2008;" horiz-adv-x="236" />
<glyph unicode="&#x2009;" horiz-adv-x="377" />
<glyph unicode="&#x200a;" horiz-adv-x="104" />
<glyph unicode="&#x2010;" horiz-adv-x="776" d="M102 477v109h572v-109h-572z" />
<glyph unicode="&#x2011;" horiz-adv-x="776" d="M102 477v109h572v-109h-572z" />
<glyph unicode="&#x2012;" horiz-adv-x="776" d="M102 477v109h572v-109h-572z" />
<glyph unicode="&#x2013;" horiz-adv-x="1024" d="M0 482v102h1024v-102h-1024z" />
<glyph unicode="&#x2014;" horiz-adv-x="2048" d="M0 481v103h2048v-103h-2048z" />
<glyph unicode="&#x2018;" horiz-adv-x="438" d="M121 1018q0 18 18 88l88 313h90l-71 -448h-45q-41 0 -60.5 10t-19.5 37z" />
<glyph unicode="&#x2019;" horiz-adv-x="438" d="M121 971l72 448h45q41 0 60 -10t19 -37q0 -16 -18 -88l-88 -313h-90z" />
<glyph unicode="&#x201a;" horiz-adv-x="438" d="M121 -276l72 448h45q41 0 60 -10t19 -37q0 -16 -18 -88l-88 -313h-90z" />
<glyph unicode="&#x201c;" horiz-adv-x="712" d="M121 1018q0 18 18 88l88 313h90l-71 -448h-45q-41 0 -60.5 10t-19.5 37zM395 1018q0 18 18 88l88 313h90l-71 -448h-45q-41 0 -60.5 10t-19.5 37z" />
<glyph unicode="&#x201d;" horiz-adv-x="712" d="M121 971l72 448h45q41 0 60 -10t19 -37q0 -16 -18 -88l-88 -313h-90zM395 971l72 448h45q41 0 60 -10t19 -37q0 -16 -18 -88l-88 -313h-90z" />
<glyph unicode="&#x201e;" horiz-adv-x="712" d="M121 -276l72 448h45q41 0 60 -10t19 -37q0 -16 -18 -88l-88 -313h-90zM395 -276l72 448h45q41 0 60 -10t19 -37q0 -16 -18 -88l-88 -313h-90z" />
<glyph unicode="&#x2022;" horiz-adv-x="684" d="M98 530q0 104 71 174t173 70t173 -69.5t71 -174.5q0 -104 -71 -173.5t-173 -69.5t-173 69.5t-71 173.5z" />
<glyph unicode="&#x2026;" horiz-adv-x="2048" d="M250 82q0 43 25.5 69.5t66.5 26.5t66.5 -26.5t25.5 -69.5q0 -41 -25.5 -67.5t-66.5 -26.5t-66.5 26.5t-25.5 67.5zM932 82q0 43 25.5 69.5t66.5 26.5t66.5 -26.5t25.5 -69.5q0 -41 -25.5 -67.5t-66.5 -26.5t-66.5 26.5t-25.5 67.5zM1614 82q0 43 25.5 69.5t66.5 26.5 t66.5 -26.5t25.5 -69.5q0 -41 -25.5 -67.5t-66.5 -26.5t-66.5 26.5t-25.5 67.5z" />
<glyph unicode="&#x202f;" horiz-adv-x="377" />
<glyph unicode="&#x2039;" horiz-adv-x="614" d="M102 530l279 426h119l-267 -426l267 -426h-119z" />
<glyph unicode="&#x203a;" horiz-adv-x="614" d="M115 104l266 426l-266 426h118l279 -426l-279 -426h-118z" />
<glyph unicode="&#x205f;" horiz-adv-x="472" />
<glyph unicode="&#x20ac;" d="M84 502v102h139q-2 23 -2 45.5v44.5q0 74 4 109h-141v102h154q43 258 193.5 394.5t395.5 136.5q164 0 287 -56v-102q-168 49 -270 49q-420 0 -488 -422h613l-29 -102h-594q-2 -16 -2 -34.5v-35.5v-55q0 -51 2 -74h547l-29 -102h-508q61 -416 459 -416q129 0 307 55v-102 q-145 -61 -311 -62q-244 0 -391.5 134.5t-186.5 390.5h-149z" />
<glyph unicode="&#x2122;" horiz-adv-x="1662" d="M37 1329v90h616v-90h-254v-696h-108v696h-254zM780 633v786h121l262 -483l262 483h121v-786h-102v627l-232 -424h-98l-231 417v-620h-103z" />
<glyph unicode="&#x25fc;" horiz-adv-x="1034" d="M0 0v1034h1034v-1034h-1034z" />
</font>
</defs>
</svg>
